SplineFontDB: 2.0
FontName: Sawasdee-BoldOblique
FullName: Sawasdee Bold Oblique
FamilyName: Sawasdee
Weight: Bold
Copyright: Created by Pol Udomwittayanukul,,, with FontForge 2.0 (http://fontforge.sf.net)
Version: 001.000
ItalicAngle: -12
UnderlinePosition: -75
UnderlineWidth: 50
Ascent: 750
Descent: 250
NeedsXUIDChange: 1
XUID: [1021 180 1442959360 14302000]
UniqueID: 4076113
FSType: 8
OS2Version: 0
OS2_WeightWidthSlopeOnly: 0
OS2_UseTypoMetrics: 1
CreationTime: 1178430034
ModificationTime: 1181133481
PfmFamily: 17
TTFWeight: 700
TTFWidth: 5
LineGap: 90
VLineGap: 0
OS2TypoAscent: 0
OS2TypoAOffset: 1
OS2TypoDescent: 0
OS2TypoDOffset: 1
OS2TypoLinegap: 90
OS2WinAscent: 0
OS2WinAOffset: 1
OS2WinDescent: 0
OS2WinDOffset: 1
HheadAscent: 2
HheadAOffset: 1
HheadDescent: 40
HheadDOffset: 1
OS2Vendor: 'PfEd'
Lookup: 4 0 1 "'liga' Standard Ligatures in Latin lookup 0"  {"'liga' Standard Ligatures in Latin lookup 0"  } ['liga' ('latn' <'dflt' > ) ]
Lookup: 4 0 0 "'frac' Diagonal Fractions in Latin lookup 42"  {"'frac' Diagonal Fractions in Latin lookup 42"  } ['frac' ('latn' <'dflt' > ) ]
Lookup: 6 0 0 "'ccmp' Glyph Composition/Decomposition in Thai lookup 0"  {"'ccmp' Glyph Composition/Decomposition in Thai lookup 0"  } ['ccmp' ('thai' <'KUY ' 'PAL ' 'THA ' 'dflt' > ) ]
Lookup: 6 0 0 "'ccmp' Glyph Composition/Decomposition in Thai lookup 1"  {"'ccmp' Glyph Composition/Decomposition in Thai lookup 1"  } ['ccmp' ('thai' <'KUY ' 'PAL ' 'THA ' 'dflt' > ) ]
Lookup: 5 0 0 "Required Feature in Thai lookup 2"  {"Required Feature in Thai lookup 2"  } [' RQD' ('thai' <'PAL ' > ) ]
Lookup: 1 0 0 "Single Substitution lookup 3"  {"Single Substitution lookup 3"  } []
Lookup: 1 0 0 "Single Substitution lookup 4"  {"Single Substitution lookup 4"  } []
Lookup: 2 0 0 "Multiple Substitution lookup 5"  {"Multiple Substitution lookup 5"  } []
Lookup: 1 0 0 "Single Substitution lookup 6"  {"Single Substitution lookup 6"  } []

StartChar: exclam
Encoding: 1 33 1
Width: 255
VWidth: 1333
Flags: HW
HStem: -5 107<111 165> 639 27G<226 312>
VStem: 85 228<48 665>
Fore
150 101 m 0
 179 101 198 77 192 48 c 0
 185 19 156 -5 127 -5 c 0
 98 -5 79 19 85 48 c 0
 91 77 120 101 150 101 c 0
190 157 m 1
 132 157 l 1
 226 665 l 1
 312 665 l 1
 190 157 l 1
EndSplineSet
EndChar
StartChar: quotedbl
Encoding: 2 34 2
Width: 341
VWidth: 1333
Flags: HW
Fore
253 504 m 1
 196 504 l 1
 224 709 l 1
 312 709 l 1
 253 504 l 1
359 504 m 1
 303 504 l 1
 331 709 l 1
 419 709 l 1
 359 504 l 1
EndSplineSet
EndChar
StartChar: numbersign
Encoding: 3 35 3
Width: 477
VWidth: 1333
Flags: HW
HStem: -1 28G<26 100 213 286> 191 72<40 116 221 303 408 487> 404 72<131 212 319 398 505 579> 641 27G<335 409 521 596>
VStem: 25 571<191 668>
Fore
286 -1 m 1
 213 -1 l 1
 303 191 l 1
 190 191 l 1
 100 -1 l 1
 26 -1 l 1
 116 191 l 1
 25 191 l 1
 40 263 l 1
 149 263 l 1
 212 404 l 1
 115 404 l 1
 131 476 l 1
 245 476 l 1
 335 668 l 1
 409 668 l 1
 319 476 l 1
 431 476 l 1
 521 668 l 1
 596 668 l 1
 505 476 l 1
 594 476 l 1
 579 404 l 1
 472 404 l 1
 408 263 l 1
 502 263 l 1
 487 191 l 1
 376 191 l 1
 286 -1 l 1
221 263 m 1
 334 263 l 1
 398 404 l 1
 285 404 l 1
 221 263 l 1
EndSplineSet
EndChar
StartChar: dollar
Encoding: 4 36 4
Width: 477
VWidth: 1333
Flags: HW
VStem: 63 72<141 222> 468 71<509 565>
Fore
63 208 m 1
 135 217 l 1
 130 155 135 82 221 64 c 1
 282 351 l 1
 227 378 160 417 180 510 c 0
 196 588 265 657 350 671 c 1
 363 730 l 1
 433 730 l 1
 420 671 l 1
 529 648 536 549 539 532 c 1
 468 509 l 1
 466 520 463 580 407 600 c 1
 364 398 l 1
 440 364 530 320 505 200 c 0
 481 91 381 14 279 -2 c 1
 266 -61 l 1
 194 -61 l 1
 206 -7 l 1
 122 5 52 60 63 208 c 1
346 320 m 1
 292 64 l 1
 357 79 417 127 432 197 c 0
 446 262 405 292 346 320 c 1
298 427 m 1
 334 597 l 1
 291 585 259 550 250 508 c 0
 242 470 262 448 298 427 c 1
EndSplineSet
EndChar
StartChar: percent
Encoding: 5 37 5
Width: 649
VWidth: 1333
Flags: HW
HStem: -8 70<450 557> 202 70<479 587> 394 70<211 318> 604 70<241 348>
Fore
662 132 m 0
 645 55 568 -8 488 -8 c 0
 409 -8 358 55 374 132 c 0
 391 209 469 272 548 272 c 0
 627 272 678 209 662 132 c 0
445 132 m 0
 437 94 462 62 503 62 c 0
 544 62 583 94 591 132 c 0
 599 171 574 202 533 202 c 0
 492 202 453 171 445 132 c 0
423 534 m 0
 407 457 329 394 250 394 c 0
 171 394 119 457 136 534 c 0
 152 612 230 674 309 674 c 0
 389 674 440 612 423 534 c 0
206 534 m 0
 198 496 223 464 265 464 c 0
 306 464 345 496 353 534 c 0
 361 573 336 604 294 604 c 0
 253 604 215 573 206 534 c 0
669 667 m 1
 756 667 l 1
 128 0 l 1
 41 0 l 1
 669 667 l 1
EndSplineSet
EndChar
StartChar: ampersand
Encoding: 6 38 6
Width: 671
VWidth: 1333
Flags: HW
HStem: -8 67<188 396> 606 69<396 505>
VStem: 103 528<238 257 243 257>
Fore
558 257 m 1
 631 257 l 1
 628 242 l 2
 618 194 594 150 562 112 c 1
 621 0 l 1
 534 0 l 1
 503 58 l 1
 448 17 380 -8 312 -8 c 0
 168 -8 73 104 103 243 c 0
 124 342 202 427 297 468 c 1
 291 492 292 516 296 538 c 0
 314 619 390 674 474 674 c 0
 553 674 616 623 595 522 c 2
 591 506 l 1
 521 506 l 1
 524 522 l 2
 538 589 495 606 460 606 c 0
 411 606 375 579 367 538 c 0
 363 519 364 495 378 467 c 2
 529 175 l 1
 541 195 550 217 555 242 c 2
 558 257 l 1
474 113 m 1
 320 408 l 1
 248 379 189 315 173 242 c 0
 152 142 220 60 327 60 c 0
 380 60 433 81 474 113 c 1
EndSplineSet
EndChar
StartChar: quoteright
Encoding: 300 8217 7
Width: 213
VWidth: 1333
Flags: HW
VStem: 119 177<473 611>
Fore
226 575 m 1
 200 574 175 596 181 628 c 0
 188 657 217 681 246 681 c 0
 275 681 305 659 295 611 c 0
 278 528 196 477 195 476 c 1
 185 473 l 1
 119 473 l 1
 162 502 l 2
 187 518 213 550 226 575 c 1
EndSplineSet
EndChar
StartChar: parenleft
Encoding: 8 40 8
Width: 233
VWidth: 1333
Flags: HW
VStem: 82 262<305 719>
Fore
82 305 m 0
 117 470 193 603 279 719 c 1
 344 719 l 1
 261 593 194 467 158 299 c 0
 121 125 138 -12 165 -136 c 1
 100 -136 l 1
 67 -16 45 128 82 305 c 0
EndSplineSet
EndChar
StartChar: parenright
Encoding: 9 41 9
Width: 233
VWidth: 1333
Flags: HW
VStem: 11 270<-136 305>
Fore
281 305 m 0
 243 128 157 -19 76 -136 c 1
 11 -136 l 1
 89 -15 165 125 202 299 c 0
 238 467 223 596 195 719 c 1
 260 719 l 1
 297 604 316 470 281 305 c 0
EndSplineSet
EndChar
StartChar: asterisk
Encoding: 10 42 10
Width: 439
VWidth: 1333
Flags: HW
HStem: 524 281<354 387>
VStem: 214 297<669 669>
Fore
354 805 m 1
 429 805 l 1
 410 716 l 1
 509 739 l 1
 511 669 l 1
 417 648 l 1
 456 565 l 1
 387 524 l 1
 349 607 l 1
 276 524 l 1
 225 565 l 1
 298 648 l 1
 214 669 l 1
 245 739 l 1
 335 716 l 1
 354 805 l 1
EndSplineSet
EndChar
StartChar: plus
Encoding: 11 43 11
Width: 418
VWidth: 1333
Flags: HW
HStem: 297 72<95 237 324 466>
VStem: 79 402<297 369>
Fore
275 140 m 1
 203 140 l 1
 237 297 l 1
 79 297 l 1
 95 369 l 1
 252 369 l 1
 285 527 l 1
 357 527 l 1
 324 369 l 1
 481 369 l 1
 466 297 l 1
 309 297 l 1
 275 140 l 1
EndSplineSet
EndChar
StartChar: comma
Encoding: 12 44 12
Width: 255
VWidth: 1333
Flags: HW
VStem: 35 163<-108 29>
Fore
88 -108 m 1
 35 -108 l 1
 74 -82 120 -35 126 -7 c 1
 97 -6 78 17 85 47 c 0
 91 76 120 100 149 100 c 0
 180 100 208 76 198 29 c 0
 178 -66 88 -108 88 -108 c 1
EndSplineSet
EndChar
StartChar: hyphen
Encoding: 13 45 13
Width: 402
VWidth: 1333
Flags: HW
HStem: 231 72<112 404>
VStem: 97 322<231 303>
Fore
419 303 m 1
 404 231 l 1
 97 231 l 1
 112 303 l 1
 419 303 l 1
EndSplineSet
EndChar
StartChar: period
Encoding: 14 46 14
Width: 255
VWidth: 1333
Flags: HW
HStem: -5 107<111 165>
VStem: 85 107<24 72 48 48>
Fore
150 101 m 0
 179 101 198 77 192 48 c 0
 185 19 156 -5 127 -5 c 0
 98 -5 79 19 85 48 c 0
 91 77 120 101 150 101 c 0
EndSplineSet
EndChar
StartChar: slash
Encoding: 15 47 15
Width: 522
VWidth: 1333
Flags: HW
Fore
610 683 m 1
 699 683 l 1
 54 -16 l 1
 -34 -16 l 1
 610 683 l 1
EndSplineSet
EndChar
StartChar: zero
Encoding: 16 48 16
Width: 527
VWidth: 1286
Flags: HW
HStem: -6 69<180 378> 604 69<297 495>
VStem: 105 465<309 358 333 333>
Fore
265 -6 m 0
 126 -6 67 156 105 333 c 0
 143 510 270 673 410 673 c 0
 549 673 608 510 570 333 c 0
 532 156 405 -6 265 -6 c 0
175 333 m 0
 141 169 203 62 280 62 c 0
 355 62 464 167 500 333 c 0
 534 497 472 604 395 604 c 0
 320 604 211 499 175 333 c 0
EndSplineSet
EndChar
StartChar: one
Encoding: 17 49 17
Width: 526
VWidth: 1287
Flags: HW
VStem: 229 215<0 673>
Fore
346 551 m 1
 278 516 l 1
 256 575 l 1
 444 673 l 1
 301 0 l 1
 229 0 l 1
 346 551 l 1
EndSplineSet
EndChar
StartChar: two
Encoding: 18 50 18
Width: 526
VWidth: 1286
Flags: HW
HStem: 0 69<123 491> 605 69<302 489>
VStem: 34 535<0 456>
Fore
491 0 m 1
 34 0 l 1
 41 33 l 2
 89 261 465 296 499 456 c 0
 518 541 468 605 396 605 c 0
 324 605 247 541 229 456 c 2
 226 440 l 1
 155 440 l 1
 158 456 l 2
 183 574 294 673 410 673 c 0
 525 673 594 574 569 456 c 0
 527 260 197 216 123 69 c 1
 506 69 l 1
 491 0 l 1
EndSplineSet
EndChar
StartChar: three
Encoding: 19 51 19
Width: 527
VWidth: 1286
Flags: HW
HStem: -6 69<177 385> 347 69<341 412> 604 69<323 470>
VStem: 93 455<205 506>
Fore
97 220 m 1
 168 220 l 1
 165 205 l 2
 149 127 201 62 281 62 c 0
 361 62 441 127 458 205 c 0
 474 283 422 347 342 347 c 2
 326 347 l 1
 341 416 l 1
 356 416 l 2
 412 416 466 452 478 506 c 0
 489 560 453 604 396 604 c 0
 340 604 285 560 274 506 c 2
 270 491 l 1
 200 491 l 1
 203 506 l 2
 223 599 316 673 411 673 c 0
 506 673 568 599 548 506 c 0
 537 456 505 413 462 384 c 1
 516 347 543 280 527 205 c 0
 502 88 385 -6 265 -6 c 0
 146 -6 69 88 93 205 c 2
 97 220 l 1
EndSplineSet
EndChar
StartChar: four
Encoding: 20 52 20
Width: 526
VWidth: 1287
Flags: HW
HStem: 119 69<155 384 469 509>
VStem: -1 581<119 705>
Fore
399 188 m 1
 465 500 l 1
 155 188 l 1
 399 188 l 1
430 1 m 1
 359 1 l 1
 384 119 l 1
 -1 119 l 1
 579 705 l 1
 469 188 l 1
 547 188 l 1
 509 119 l 1
 455 119 l 1
 430 1 l 1
EndSplineSet
EndChar
StartChar: five
Encoding: 21 53 21
Width: 526
VWidth: 1286
Flags: HW
HStem: -8 69<176 393> 417 66<301 469> 598 69<270 545>
Fore
354 417 m 0
 295 417 233 383 184 318 c 1
 115 318 l 1
 219 667 l 1
 583 667 l 1
 545 598 l 1
 270 598 l 1
 222 438 l 1
 266 466 316 483 368 483 c 0
 500 483 579 371 551 238 c 0
 523 104 396 -8 264 -8 c 0
 144 -8 68 85 76 201 c 2
 77 219 l 1
 147 219 l 1
 147 206 l 2
 144 122 199 61 278 61 c 0
 367 61 459 138 481 239 c 0
 502 340 442 417 354 417 c 0
EndSplineSet
EndChar
StartChar: six
Encoding: 22 54 22
Width: 526
VWidth: 1286
Flags: HW
HStem: -7 67<164 393> 420 67<318 469>
VStem: 81 470<217 266 242 242>
Fore
481 242 m 0
 503 342 443 420 355 420 c 0
 266 420 173 342 152 242 c 0
 131 141 190 61 278 61 c 0
 367 61 460 141 481 242 c 0
81 242 m 0
 109 372 205 439 411 668 c 1
 496 668 l 1
 329 484 l 1
 342 486 356 487 369 487 c 0
 501 487 580 375 552 242 c 0
 524 108 396 -7 264 -7 c 0
 131 -7 53 108 81 242 c 0
EndSplineSet
EndChar
StartChar: seven
Encoding: 23 55 23
Width: 527
VWidth: 1286
Flags: HW
HStem: 598 69<208 558>
VStem: 155 526<0 667>
Fore
208 667 m 1
 681 667 l 1
 233 0 l 1
 155 0 l 1
 558 598 l 1
 170 598 l 1
 208 667 l 1
EndSplineSet
EndChar
StartChar: eight
Encoding: 24 56 24
Width: 527
VWidth: 1286
Flags: HW
HStem: -6 69<176 384> 347 69<283 427> 604 69<323 467>
VStem: 93 453<205 510>
Fore
546 510 m 0
 536 460 503 416 460 386 c 1
 515 349 543 282 527 205 c 0
 502 88 385 -6 265 -6 c 0
 146 -6 69 88 93 205 c 0
 110 282 167 349 238 386 c 1
 207 416 193 460 204 510 c 0
 223 601 316 673 410 673 c 0
 503 673 565 601 546 510 c 0
164 205 m 0
 147 127 200 62 280 62 c 0
 360 62 440 127 457 205 c 0
 473 283 421 347 340 347 c 0
 260 347 180 283 164 205 c 0
355 416 m 0
 411 416 465 459 476 510 c 0
 487 561 451 604 395 604 c 0
 339 604 285 561 274 510 c 0
 264 459 299 416 355 416 c 0
EndSplineSet
EndChar
StartChar: nine
Encoding: 25 57 25
Width: 526
VWidth: 1286
Flags: HW
HStem: 181 67<203 348> 605 67<279 509>
VStem: 121 470<402 451 426 426>
Fore
191 426 m 0
 170 326 230 248 318 248 c 0
 406 248 499 326 521 426 c 0
 542 527 482 605 394 605 c 0
 306 605 213 527 191 426 c 0
591 426 m 0
 563 296 468 229 262 0 c 1
 177 0 l 1
 343 184 l 1
 330 182 317 181 304 181 c 0
 171 181 92 293 121 426 c 0
 149 560 276 672 408 672 c 0
 541 672 620 560 591 426 c 0
EndSplineSet
EndChar
StartChar: colon
Encoding: 26 58 26
Width: 255
VWidth: 1333
Flags: HW
HStem: -5 107<111 165> 353 107<188 241>
VStem: 85 183<48 407>
Fore
150 101 m 0
 179 101 198 77 192 48 c 0
 185 19 156 -5 127 -5 c 0
 98 -5 79 19 85 48 c 0
 91 77 120 101 150 101 c 0
226 460 m 0
 255 460 274 436 268 407 c 0
 262 377 232 353 203 353 c 0
 174 353 155 377 161 407 c 0
 167 436 196 460 226 460 c 0
EndSplineSet
EndChar
StartChar: semicolon
Encoding: 27 59 27
Width: 255
VWidth: 1333
Flags: HW
HStem: 353 107<188 241>
VStem: 35 232<-108 407>
Fore
226 460 m 0
 255 460 274 436 268 407 c 0
 262 377 232 353 203 353 c 0
 174 353 155 377 161 407 c 0
 167 436 196 460 226 460 c 0
149 100 m 0
 180 100 208 76 198 29 c 0
 178 -66 88 -108 88 -108 c 1
 35 -108 l 1
 74 -82 120 -35 126 -7 c 1
 97 -6 78 17 85 47 c 0
 91 76 120 100 149 100 c 0
EndSplineSet
EndChar
StartChar: less
Encoding: 28 60 28
Width: 527
VWidth: 1333
Flags: HW
HStem: -1 485<485 521>
VStem: 37 587<241 484>
Fore
521 -1 m 1
 382 -1 l 1
 37 241 l 1
 485 484 l 1
 624 484 l 1
 175 241 l 1
 521 -1 l 1
EndSplineSet
EndChar
StartChar: equal
Encoding: 29 61 29
Width: 482
VWidth: 1333
Flags: HW
HStem: 177 72<101 472> 311 72<129 501>
VStem: 86 430<177 383>
Fore
516 383 m 1
 501 311 l 1
 114 311 l 1
 129 383 l 1
 516 383 l 1
488 249 m 1
 472 177 l 1
 86 177 l 1
 101 249 l 1
 488 249 l 1
EndSplineSet
EndChar
StartChar: greater
Encoding: 30 62 30
Width: 527
VWidth: 1333
Flags: HW
HStem: -1 485<110 146>
VStem: 7 587<-1 241>
Fore
146 -1 m 1
 7 -1 l 1
 455 241 l 1
 110 484 l 1
 249 484 l 1
 594 241 l 1
 146 -1 l 1
EndSplineSet
EndChar
StartChar: question
Encoding: 31 63 31
Width: 529
VWidth: 1333
Flags: HW
HStem: -6 102<238 291> 604 69<306 486>
VStem: 181 382<482 501 482 497>
Fore
275 95 m 0
 304 95 323 72 317 44 c 0
 311 16 282 -6 254 -6 c 0
 225 -6 206 16 212 44 c 0
 218 72 246 95 275 95 c 0
322 144 m 1
 252 144 l 1
 266 210 l 2
 299 365 476 421 493 497 c 0
 506 562 467 604 406 604 c 0
 329 604 265 546 255 497 c 2
 252 482 l 1
 181 482 l 1
 184 497 l 2
 204 591 311 673 420 673 c 0
 523 673 585 598 563 497 c 0
 538 379 362 333 336 210 c 2
 322 144 l 1
EndSplineSet
EndChar
StartChar: at
Encoding: 32 64 32
Width: 917
VWidth: 1333
Flags: HW
HStem: -210 67<197 525> -7 70<312 482 693 774> 401 69<445 660> 604 70<356 826>
Fore
739 465 m 1
 813 465 l 1
 706 233 l 2
 702 224 688 197 682 170 c 0
 667 98 702 63 731 63 c 0
 764 63 823 108 851 241 c 0
 894 445 772 604 592 604 c 0
 410 604 222 440 177 231 c 0
 133 21 252 -142 434 -142 c 0
 504 -142 560 -120 620 -88 c 1
 646 -146 l 1
 572 -185 504 -210 419 -210 c 0
 191 -210 54 -9 106 232 c 0
 157 473 379 674 607 674 c 0
 831 674 972 477 922 241 c 0
 881 49 777 -7 716 -7 c 0
 655 -7 616 38 607 100 c 1
 543 39 458 -6 378 -6 c 0
 275 -6 221 69 243 172 c 0
 275 323 449 470 590 470 c 0
 648 470 690 446 712 407 c 1
 739 465 l 1
578 401 m 0
 475 401 340 284 317 173 c 0
 303 109 331 64 394 64 c 0
 494 64 631 177 655 292 c 0
 669 356 641 401 578 401 c 0
EndSplineSet
EndChar
StartChar: A
Encoding: 33 65 33
Width: 617
VWidth: 1287
Flags: HW
HStem: 198 69<258 475>
VStem: 11 596<1 1>
Fore
258 267 m 1
 475 267 l 1
 415 496 l 1
 258 267 l 1
212 198 m 1
 87 1 l 1
 11 1 l 1
 452 674 l 1
 607 1 l 1
 531 1 l 1
 489 198 l 1
 212 198 l 1
EndSplineSet
EndChar
StartChar: B
Encoding: 34 66 34
Width: 578
VWidth: 1286
Flags: HW
HStem: 0 69<149 324> 335 69<220 473> 598 69<262 514>
VStem: 64 529<0 499>
Fore
149 69 m 1
 324 69 l 2
 413 69 493 132 508 202 c 0
 523 273 470 335 381 335 c 2
 206 335 l 1
 149 69 l 1
521 499 m 2
 522 500 l 2
 532 550 494 598 429 598 c 2
 262 598 l 1
 220 403 l 1
 388 403 l 2
 453 403 511 449 521 499 c 2
446 667 m 2
 546 667 613 592 593 499 c 0
 583 449 549 405 505 375 c 1
 563 341 595 277 579 202 c 0
 554 88 432 0 310 0 c 2
 64 0 l 1
 206 667 l 1
 446 667 l 2
EndSplineSet
EndChar
StartChar: C
Encoding: 35 67 35
Width: 723
VWidth: 1286
Flags: HW
HStem: -6 67<205 540> 603 70<320 701>
Fore
662 182 m 1
 711 145 l 1
 615 45 506 -6 390 -6 c 0
 199 -6 75 145 115 333 c 0
 155 521 343 673 535 673 c 0
 708 673 772 558 791 522 c 1
 726 481 l 1
 710 509 659 603 520 603 c 0
 366 603 217 482 185 332 c 0
 153 183 251 61 405 61 c 0
 543 61 634 154 662 182 c 1
EndSplineSet
EndChar
StartChar: D
Encoding: 36 68 36
Width: 602
VWidth: 1286
Flags: HW
HStem: 0 69<149 380> 598 69<262 539>
VStem: 64 566<0 333>
Fore
149 69 m 1
 226 69 l 2
 380 69 528 184 560 333 c 0
 591 483 493 598 339 598 c 2
 262 598 l 1
 149 69 l 1
64 0 m 1
 206 667 l 1
 353 667 l 2
 545 667 670 521 630 333 c 0
 590 145 403 0 212 0 c 2
 64 0 l 1
EndSplineSet
EndChar
StartChar: E
Encoding: 37 69 37
Width: 518
VWidth: 1286
Flags: HW
HStem: 0 69<149 474> 350 69<224 523> 598 69<262 603>
VStem: 64 553<0 667>
Fore
537 419 m 1
 523 350 l 1
 209 350 l 1
 149 69 l 1
 489 69 l 1
 474 0 l 1
 64 0 l 1
 206 667 l 1
 617 667 l 1
 603 598 l 1
 262 598 l 1
 224 419 l 1
 537 419 l 1
EndSplineSet
EndChar
StartChar: F
Encoding: 38 70 38
Width: 518
VWidth: 1286
Flags: HW
HStem: 350 69<224 523> 598 69<262 603>
VStem: 64 553<0 667>
Fore
537 419 m 1
 523 350 l 1
 209 350 l 1
 135 0 l 1
 64 0 l 1
 206 667 l 1
 617 667 l 1
 603 598 l 1
 262 598 l 1
 224 419 l 1
 537 419 l 1
EndSplineSet
EndChar
StartChar: G
Encoding: 39 71 39
Width: 782
VWidth: 1286
Flags: HW
HStem: -6 69<205 589> 299 69<454 729> 604 69<321 701>
Fore
791 524 m 1
 726 482 l 1
 711 510 660 604 520 604 c 0
 367 604 217 483 185 333 c 0
 154 184 251 62 405 62 c 0
 546 62 685 166 729 299 c 1
 439 299 l 1
 454 368 l 1
 817 368 l 1
 810 333 l 2
 770 145 582 -6 390 -6 c 0
 199 -6 75 145 115 333 c 0
 155 521 343 673 535 673 c 0
 717 673 781 542 791 524 c 1
EndSplineSet
EndChar
StartChar: H
Encoding: 40 72 40
Width: 623
VWidth: 1286
Flags: HW
HStem: 350 69<224 564>
VStem: 64 638<0 667>
Fore
632 667 m 1
 702 667 l 1
 560 0 l 1
 490 0 l 1
 564 350 l 1
 209 350 l 1
 135 0 l 1
 64 0 l 1
 206 667 l 1
 276 667 l 1
 224 419 l 1
 579 419 l 1
 632 667 l 1
EndSplineSet
EndChar
StartChar: I
Encoding: 41 73 41
Width: 197
VWidth: 1286
Flags: HW
VStem: 64 212<0 667>
Fore
135 0 m 1
 64 0 l 1
 206 667 l 1
 276 667 l 1
 135 0 l 1
EndSplineSet
EndChar
StartChar: J
Encoding: 42 74 42
Width: 459
VWidth: 1286
Flags: HW
HStem: -7 69<161 309>
VStem: 82 456<180 667>
Fore
471 667 m 1
 538 667 l 1
 435 180 l 2
 414 79 319 -7 219 -7 c 0
 119 -7 61 79 82 180 c 2
 86 196 l 1
 156 196 l 1
 153 180 l 2
 139 113 178 62 235 62 c 0
 292 62 353 113 367 180 c 2
 471 667 l 1
EndSplineSet
EndChar
StartChar: K
Encoding: 43 75 43
Width: 545
VWidth: 1286
Flags: HW
VStem: 64 601<0 667>
Fore
206 667 m 1
 276 667 l 1
 223 416 l 1
 559 667 l 1
 664 667 l 1
 326 415 l 1
 536 0 l 1
 446 0 l 1
 265 369 l 1
 203 323 l 1
 135 0 l 1
 64 0 l 1
 206 667 l 1
EndSplineSet
EndChar
StartChar: L
Encoding: 44 76 44
Width: 518
VWidth: 1286
Flags: HW
HStem: 0 69<149 476>
VStem: 64 426<0 69>
Fore
476 0 m 1
 64 0 l 1
 206 667 l 1
 276 667 l 1
 149 69 l 1
 490 69 l 1
 476 0 l 1
EndSplineSet
EndChar
StartChar: M
Encoding: 45 77 45
Width: 786
VWidth: 1287
Flags: HW
VStem: 704 72<0 308> 707 78<366 436>
Fore
81 0 m 1x40
 11 0 l 1
 292 673 l 1
 429 170 l 1
 785 673 l 1x40
 776 0 l 1
 704 0 l 1x80
 707 436 l 1
 390 -7 l 1
 266 436 l 1
 81 0 l 1x40
EndSplineSet
EndChar
StartChar: N
Encoding: 46 78 46
Width: 747
VWidth: 1286
Flags: HW
Fore
64 0 m 1
 207 674 l 1
 649 162 l 1
 756 667 l 1
 826 667 l 1
 683 -8 l 1
 242 504 l 1
 135 0 l 1
 64 0 l 1
EndSplineSet
EndChar
StartChar: O
Encoding: 47 79 47
Width: 782
VWidth: 1286
Flags: HW
HStem: -6 69<205 604> 604 69<321 719>
Fore
810 333 m 0
 770 145 582 -6 390 -6 c 0
 199 -6 75 145 115 333 c 0
 155 521 343 673 535 673 c 0
 726 673 850 521 810 333 c 0
185 333 m 0
 154 184 251 62 405 62 c 0
 558 62 708 184 739 333 c 0
 771 483 673 604 520 604 c 0
 367 604 217 483 185 333 c 0
EndSplineSet
EndChar
StartChar: P
Encoding: 48 80 48
Width: 539
VWidth: 1286
Flags: HW
HStem: 298 70<213 470> 598 69<262 519>
VStem: 64 535<0 482>
Fore
64 0 m 1
 206 667 l 1
 454 667 l 2
 557 667 620 583 599 482 c 0
 578 381 479 298 377 298 c 2
 198 298 l 1
 135 0 l 1
 64 0 l 1
213 368 m 1
 392 368 l 2
 452 368 513 418 527 482 c 0
 541 547 501 598 439 598 c 2
 262 598 l 1
 213 368 l 1
EndSplineSet
EndChar
StartChar: Q
Encoding: 49 81 49
Width: 782
VWidth: 1286
Flags: HW
HStem: -6 69<205 493> 604 69<321 719>
Fore
595 125 m 1
 516 247 l 1
 608 247 l 1
 654 176 l 1
 696 220 727 275 739 333 c 0
 771 483 673 604 520 604 c 0
 367 604 217 483 185 333 c 0
 154 184 251 62 405 62 c 0
 472 62 539 86 595 125 c 1
768 0 m 1
 674 0 l 1
 628 71 l 1
 558 23 475 -6 390 -6 c 0
 199 -6 75 145 115 333 c 0
 155 521 343 673 535 673 c 0
 726 673 850 521 810 333 c 0
 793 253 749 179 689 121 c 1
 768 0 l 1
EndSplineSet
EndChar
StartChar: R
Encoding: 50 82 50
Width: 551
VWidth: 1286
Flags: HW
HStem: 299 69<213 357> 598 69<262 519>
VStem: 64 535<0 482>
Fore
64 0 m 1
 206 667 l 1
 454 667 l 2
 557 667 620 583 599 482 c 0
 582 401 514 331 435 307 c 1
 543 0 l 1
 462 0 l 1
 357 299 l 1
 198 299 l 1
 135 0 l 1
 64 0 l 1
213 368 m 1
 392 368 l 2
 452 368 513 418 527 482 c 0
 541 547 501 598 439 598 c 2
 262 598 l 1
 213 368 l 1
EndSplineSet
EndChar
StartChar: S
Encoding: 51 83 51
Width: 529
VWidth: 1286
Flags: HW
HStem: -8 70<189 379> 604 70<316 454>
VStem: 87 475<194 530>
Fore
563 530 m 1
 492 507 l 1
 490 522 l 2
 482 578 440 604 394 604 c 0
 334 604 287 561 276 510 c 0
 248 379 575 417 528 198 c 0
 502 75 377 -8 263 -8 c 0
 164 -8 77 53 87 194 c 2
 88 209 l 1
 161 218 l 1
 160 203 l 2
 153 103 209 62 277 62 c 0
 355 62 440 115 458 200 c 0
 493 363 164 316 206 511 c 0
 224 598 308 674 409 674 c 0
 482 674 549 630 561 544 c 2
 563 530 l 1
EndSplineSet
EndChar
StartChar: T
Encoding: 52 84 52
Width: 430
VWidth: 1286
Flags: HW
HStem: 598 69<152 308 378 548>
VStem: 138 425<598 667>
Fore
563 667 m 1
 548 598 l 1
 378 598 l 1
 251 0 l 1
 181 0 l 1
 308 598 l 1
 138 598 l 1
 152 667 l 1
 563 667 l 1
EndSplineSet
EndChar
StartChar: U
Encoding: 53 85 53
Width: 623
VWidth: 1286
Flags: HW
HStem: -7 69<204 450>
VStem: 119 584<257 667>
Fore
206 667 m 1
 276 667 l 1
 189 257 l 2
 166 146 232 62 327 62 c 0
 421 62 521 146 545 257 c 2
 632 667 l 1
 702 667 l 1
 615 257 l 2
 585 113 450 -7 311 -7 c 0
 172 -7 88 113 119 257 c 2
 206 667 l 1
EndSplineSet
EndChar
StartChar: V
Encoding: 54 86 54
Width: 599
VWidth: 1286
Flags: HW
VStem: 153 580<667 667>
Fore
655 667 m 1
 732 667 l 1
 303 -7 l 1
 153 667 l 1
 228 667 l 1
 341 177 l 1
 655 667 l 1
EndSplineSet
EndChar
StartChar: W
Encoding: 55 87 55
Width: 905
VWidth: 1286
Flags: HW
Fore
152 667 m 1
 225 667 l 1
 307 203 l 1
 596 674 l 1
 684 203 l 1
 962 667 l 1
 1037 667 l 1
 639 -7 l 1
 551 460 l 1
 266 -7 l 1
 152 667 l 1
EndSplineSet
EndChar
StartChar: X
Encoding: 56 88 56
Width: 474
VWidth: 1286
Flags: HW
VStem: 11 569<0 667>
Fore
178 667 m 1
 258 667 l 1
 330 435 l 1
 500 667 l 1
 580 667 l 1
 353 359 l 1
 464 0 l 1
 385 0 l 1
 297 282 l 1
 90 0 l 1
 11 0 l 1
 274 359 l 1
 178 667 l 1
EndSplineSet
EndChar
StartChar: Y
Encoding: 57 89 57
Width: 583
VWidth: 1286
Flags: HW
VStem: 152 564<667 667>
Fore
152 667 m 1
 235 667 l 1
 369 359 l 1
 633 667 l 1
 716 667 l 1
 389 286 l 1
 328 0 l 1
 257 0 l 1
 318 286 l 1
 152 667 l 1
EndSplineSet
EndChar
StartChar: Z
Encoding: 58 90 58
Width: 559
VWidth: 1286
Flags: HW
HStem: 0 69<157 527> 598 69<213 544>
Fore
213 667 m 1
 690 667 l 1
 157 69 l 1
 565 69 l 1
 527 0 l 1
 11 0 l 1
 544 598 l 1
 175 598 l 1
 213 667 l 1
EndSplineSet
EndChar
StartChar: bracketleft
Encoding: 59 91 59
Width: 215
VWidth: 1333
Flags: HW
HStem: -156 72<102 167> 651 72<258 338>
VStem: 15 339<-156 723>
Fore
102 -84 m 1
 182 -84 l 1
 167 -156 l 1
 15 -156 l 1
 202 723 l 1
 354 723 l 1
 338 651 l 1
 258 651 l 1
 102 -84 l 1
EndSplineSet
EndChar
StartChar: backslash
Encoding: 60 92 60
Width: 583
VWidth: 1333
Flags: HW
HStem: -1 28G<495 584> 641 27G<141 230>
VStem: 141 442<-1 668>
Fore
141 668 m 1
 230 668 l 1
 584 -1 l 1
 495 -1 l 1
 141 668 l 1
EndSplineSet
EndChar
StartChar: bracketright
Encoding: 61 93 61
Width: 214
VWidth: 1333
Flags: HW
HStem: -156 72<-19 61> 651 72<152 217>
VStem: -34 339<-156 723>
Fore
217 651 m 1
 137 651 l 1
 152 723 l 1
 304 723 l 1
 118 -156 l 1
 -34 -156 l 1
 -19 -84 l 1
 61 -84 l 1
 217 651 l 1
EndSplineSet
EndChar
StartChar: asciicircum
Encoding: 62 94 62
Width: 554
VWidth: 1333
Flags: HW
HStem: 303 365<389 582>
VStem: 101 482<303 303>
Fore
389 668 m 1
 453 668 l 1
 582 303 l 1
 499 303 l 1
 401 578 l 1
 184 303 l 1
 101 303 l 1
 389 668 l 1
EndSplineSet
EndChar
StartChar: underscore
Encoding: 63 95 63
Width: 466
VWidth: 1333
Flags: HW
HStem: -71 72<0 452>
VStem: -15 482<-71 1>
Fore
467 1 m 1
 452 -71 l 1
 -15 -71 l 1
 0 1 l 1
 467 1 l 1
EndSplineSet
EndChar
StartChar: quoteleft
Encoding: 299 8216 64
Width: 213
VWidth: 1333
Flags: HW
VStem: 164 174<544 683>
Fore
233 580 m 1
 258 581 284 559 277 527 c 0
 271 497 242 473 213 473 c 0
 183 473 153 495 164 544 c 0
 170 572 183 616 257 674 c 1
 258 683 l 1
 337 683 l 1
 296 654 l 2
 272 638 246 605 233 580 c 1
EndSplineSet
EndChar
StartChar: a
Encoding: 65 97 65
Width: 489
VWidth: 1261
Flags: HW
HStem: -8 67<133 279> 215 58<277 412> 394 67<234 389>
VStem: 73 407<124 258>
Fore
446 0 m 1
 368 0 l 1
 363 18 363 45 368 62 c 1
 321 23 261 -8 201 -8 c 0
 92 -8 61 65 73 124 c 0
 104 272 311 273 412 273 c 1
 420 351 373 394 319 394 c 0
 254 394 209 341 196 327 c 1
 147 363 l 1
 166 385 233 461 333 461 c 0
 429 461 505 387 480 258 c 2
 449 108 l 2
 440 68 439 22 446 0 c 1
215 60 m 0
 277 60 349 107 388 155 c 1
 401 215 l 1
 291 213 160 201 144 124 c 0
 138 99 152 60 215 60 c 0
EndSplineSet
EndChar
StartChar: b
Encoding: 66 98 66
Width: 545
VWidth: 1267
Flags: HW
HStem: -6 67<213 399> 393 67<313 469>
VStem: 44 506<0 227>
Fore
150 69 m 1
 142 36 134 20 123 0 c 1
 44 0 l 1
 69 33 86 102 93 133 c 2
 206 666 l 1
 276 666 l 1
 217 386 l 1
 263 429 329 460 382 460 c 0
 505 460 577 352 550 227 c 0
 524 101 406 -6 282 -6 c 0
 229 -6 177 26 150 69 c 1
183 227 m 0
 163 133 218 61 297 61 c 0
 375 61 461 133 481 227 c 0
 501 321 446 393 367 393 c 0
 289 393 203 321 183 227 c 0
EndSplineSet
EndChar
StartChar: c
Encoding: 67 99 67
Width: 498
VWidth: 1261
Flags: HW
HStem: -6 69<173 385> 391 69<243 449>
VStem: 92 435<227 336>
Fore
427 151 m 1
 481 118 l 1
 452 82 377 -6 261 -6 c 0
 137 -6 66 101 92 227 c 0
 119 352 236 460 360 460 c 0
 483 460 518 361 527 336 c 1
 459 302 l 1
 449 329 425 391 345 391 c 0
 266 391 182 322 162 228 c 0
 142 134 197 62 275 62 c 0
 359 62 412 132 427 151 c 1
EndSplineSet
EndChar
StartChar: d
Encoding: 68 100 68
Width: 545
VWidth: 1267
Flags: HW
HStem: -6 67<173 331> 393 67<244 429>
VStem: 92 531<227 666>
Fore
502 0 m 1
 423 0 l 1
 421 20 419 36 426 69 c 1
 380 26 315 -6 261 -6 c 0
 137 -6 66 101 92 227 c 0
 119 352 236 460 360 460 c 0
 413 460 465 429 493 386 c 1
 553 666 l 1
 623 666 l 1
 510 133 l 2
 501 93 495 22 502 0 c 1
459 227 m 0
 479 321 424 393 346 393 c 0
 267 393 181 321 161 227 c 0
 141 133 197 61 275 61 c 0
 354 61 439 133 459 227 c 0
EndSplineSet
EndChar
StartChar: e
Encoding: 69 101 69
Width: 529
VWidth: 1261
Flags: HW
HStem: -6 69<179 321> 212 66<182 465> 392 67<265 430>
VStem: 92 443<218 251 227 246>
Fore
182 278 m 1
 465 278 l 1
 459 346 411 392 347 392 c 0
 284 392 216 346 182 278 c 1
159 212 m 1
 147 125 201 62 275 62 c 0
 333 62 392 92 440 151 c 1
 494 118 l 1
 409 10 307 -6 261 -6 c 0
 137 -6 66 101 92 227 c 0
 119 352 237 460 361 460 c 0
 479 460 550 363 535 246 c 2
 530 212 l 1
 159 212 l 1
EndSplineSet
EndChar
StartChar: f
Encoding: 70 102 70
Width: 262
VWidth: 1267
Flags: HW
HStem: 385 67<123 146 231 322> 605 55<316 386>
VStem: 64 334<0 660>
Fore
146 385 m 1
 108 385 l 1
 123 453 l 1
 161 453 l 1
 166 476 l 2
 187 576 282 660 382 660 c 2
 398 660 l 1
 386 605 l 1
 371 605 l 2
 316 605 251 545 236 476 c 2
 231 453 l 1
 360 453 l 1
 322 385 l 1
 217 385 l 1
 135 0 l 1
 64 0 l 1
 146 385 l 1
EndSplineSet
EndChar
StartChar: g
Encoding: 71 103 71
Width: 543
VWidth: 1253
Flags: HW
HStem: -219 67<162 332> -7 67<170 330> 392 67<241 430>
VStem: 72 526<-149 453>
Fore
493 383 m 1
 500 417 508 433 519 453 c 1
 598 453 l 1
 573 419 556 350 550 319 c 2
 485 14 l 2
 458 -111 338 -219 214 -219 c 0
 139 -219 101 -183 72 -149 c 1
 134 -102 l 1
 152 -124 177 -152 230 -152 c 0
 308 -152 394 -80 414 14 c 2
 425 67 l 1
 379 23 314 -7 261 -7 c 0
 137 -7 65 101 92 226 c 0
 119 351 236 459 360 459 c 0
 414 459 465 426 493 383 c 1
457 226 m 0
 477 320 421 392 343 392 c 0
 264 392 179 320 159 226 c 0
 139 132 194 60 272 60 c 0
 351 60 437 132 457 226 c 0
EndSplineSet
EndChar
StartChar: h
Encoding: 72 104 72
Width: 482
VWidth: 1267
Flags: HW
HStem: 393 67<303 436>
VStem: 64 414<0 277>
Fore
64 0 m 1
 206 667 l 1
 276 667 l 1
 214 374 l 1
 259 421 317 460 367 460 c 0
 471 460 498 372 478 277 c 2
 419 0 l 1
 349 0 l 1
 408 277 l 2
 418 326 416 393 351 393 c 0
 289 393 195 283 183 227 c 2
 135 0 l 1
 64 0 l 1
EndSplineSet
EndChar
StartChar: i
Encoding: 73 105 73
Width: 195
VWidth: 1265
Flags: HW
HStem: 504 97<190 242>
VStem: 63 204<0 552>
Fore
226 601 m 0
 255 601 273 579 267 552 c 0
 261 525 234 504 206 504 c 0
 178 504 159 525 165 552 c 0
 171 579 198 601 226 601 c 0
134 0 m 1
 63 0 l 1
 160 453 l 1
 230 453 l 1
 134 0 l 1
EndSplineSet
EndChar
StartChar: j
Encoding: 74 106 74
Width: 195
VWidth: 1261
Flags: HW
HStem: -130 61<-37 14> 503 97<189 242>
VStem: -50 316<-130 552>
Fore
160 454 m 1
 231 454 l 1
 138 16 l 2
 121 -62 46 -130 -34 -130 c 2
 -50 -130 l 1
 -37 -69 l 1
 -21 -69 l 2
 14 -69 57 -33 67 16 c 2
 160 454 l 1
226 600 m 0
 254 600 272 579 266 552 c 0
 260 525 233 503 205 503 c 0
 177 503 159 525 164 552 c 0
 170 579 197 600 226 600 c 0
EndSplineSet
EndChar
StartChar: k
Encoding: 75 107 75
Width: 457
VWidth: 1267
Flags: HW
HStem: 0 667<135 206>
VStem: 64 448<0 454>
Fore
135 0 m 1
 64 0 l 1
 206 667 l 1
 276 667 l 1
 199 302 l 1
 407 454 l 1
 512 454 l 1
 269 275 l 1
 457 0 l 1
 365 0 l 1
 207 231 l 1
 179 211 l 1
 135 0 l 1
EndSplineSet
EndChar
StartChar: l
Encoding: 76 108 76
Width: 197
VWidth: 1267
Flags: HW
HStem: 0 667<135 206>
VStem: 64 212<0 667>
Fore
135 0 m 1
 64 0 l 1
 206 667 l 1
 276 667 l 1
 135 0 l 1
EndSplineSet
EndChar
StartChar: m
Encoding: 77 109 77
Width: 711
VWidth: 1261
Flags: HW
HStem: 393 66<295 407 546 664>
VStem: 64 643<0 275>
Fore
212 365 m 1
 223 412 223 421 219 454 c 1
 141 454 l 1
 148 431 141 361 133 320 c 2
 64 0 l 1
 135 0 l 1
 183 227 l 2
 197 291 288 393 335 393 c 0
 390 393 390 326 379 277 c 2
 321 0 l 1
 391 0 l 1
 439 226 l 2
 452 285 541 391 592 391 c 0
 647 391 647 324 636 275 c 2
 578 0 l 1
 648 0 l 1
 707 275 l 2
 726 366 707 459 607 459 c 0
 560 459 503 417 461 365 c 1
 454 419 423 459 357 459 c 0
 309 459 250 416 212 365 c 1
EndSplineSet
EndChar
StartChar: n
Encoding: 78 110 78
Width: 482
VWidth: 1261
Flags: HW
HStem: 393 67<302 435>
VStem: 63 414<0 277>
Fore
218 454 m 1
 222 422 222 412 212 366 c 1
 253 413 317 460 366 460 c 0
 471 460 498 372 478 277 c 2
 419 0 l 1
 348 0 l 1
 407 277 l 2
 418 326 416 393 351 393 c 0
 289 393 194 282 182 227 c 2
 134 0 l 1
 63 0 l 1
 132 320 l 2
 140 361 147 432 140 454 c 1
 218 454 l 1
EndSplineSet
EndChar
StartChar: o
Encoding: 79 111 79
Width: 573
VWidth: 1261
Flags: HW
HStem: -6 67<177 426> 392 67<247 496>
VStem: 92 486<202 251 227 227>
Fore
578 227 m 0
 551 98 420 -6 286 -6 c 0
 152 -6 65 98 92 227 c 0
 120 356 251 460 385 460 c 0
 519 460 606 356 578 227 c 0
163 227 m 0
 143 135 205 61 301 61 c 0
 397 61 491 135 510 227 c 0
 530 318 468 392 372 392 c 0
 276 392 182 318 163 227 c 0
EndSplineSet
EndChar
StartChar: p
Encoding: 80 112 80
Width: 545
VWidth: 1254
Flags: HW
HStem: -6 67<214 399> 393 67<312 469>
VStem: 22 529<-200 227>
Fore
141 454 m 1
 219 454 l 1
 222 434 223 418 217 384 c 1
 263 427 328 460 382 460 c 0
 506 460 577 352 550 227 c 0
 524 102 406 -6 282 -6 c 0
 229 -6 177 24 149 68 c 1
 92 -200 l 1
 22 -200 l 1
 132 321 l 2
 141 361 148 432 141 454 c 1
183 227 m 0
 163 133 218 61 297 61 c 0
 375 61 461 133 481 227 c 0
 501 321 446 393 367 393 c 0
 289 393 203 321 183 227 c 0
EndSplineSet
EndChar
StartChar: q
Encoding: 81 113 81
Width: 545
VWidth: 1254
Flags: HW
HStem: -6 67<173 330> 393 67<244 430>
VStem: 92 506<227 454>
Fore
493 384 m 1
 500 418 509 434 520 454 c 1
 598 454 l 1
 574 420 556 352 550 321 c 2
 442 -187 l 1
 371 -187 l 1
 426 68 l 1
 379 24 314 -6 261 -6 c 0
 137 -6 66 102 92 227 c 0
 119 352 236 460 360 460 c 0
 414 460 465 427 493 384 c 1
459 227 m 0
 479 321 424 393 346 393 c 0
 267 393 182 321 162 227 c 0
 142 133 197 61 275 61 c 0
 354 61 439 133 459 227 c 0
EndSplineSet
EndChar
StartChar: r
Encoding: 82 114 82
Width: 330
VWidth: 1261
Flags: HW
HStem: 0 462<134 341>
VStem: 64 353<0 400>
Fore
216 386 m 1
 257 424 299 448 341 462 c 1
 417 400 l 1
 231 400 191 265 184 233 c 2
 134 0 l 1
 64 0 l 1
 132 320 l 2
 141 361 147 432 140 454 c 1
 219 454 l 1
 221 434 223 418 216 386 c 1
EndSplineSet
EndChar
StartChar: s
Encoding: 83 115 83
Width: 405
VWidth: 1261
Flags: HW
HStem: -8 67<164 274> 394 67<248 320>
Fore
414 355 m 1
 343 332 l 1
 341 347 l 2
 336 380 313 394 288 394 c 0
 257 394 230 374 224 344 c 0
 208 272 423 287 391 138 c 0
 373 51 284 -8 200 -8 c 0
 130 -8 67 36 74 134 c 2
 76 149 l 1
 148 157 l 1
 147 143 l 2
 142 83 176 60 215 60 c 0
 261 60 311 90 321 138 c 0
 341 235 123 208 152 344 c 0
 167 418 237 461 301 461 c 0
 344 461 402 440 412 369 c 2
 414 355 l 1
EndSplineSet
EndChar
StartChar: t
Encoding: 84 116 84
Width: 262
VWidth: 1263
Flags: HW
HStem: 386 67<121 146 231 322>
VStem: 64 296<1 453>
Fore
135 1 m 1
 64 1 l 1
 146 386 l 1
 107 386 l 1
 121 453 l 1
 161 453 l 1
 182 553 l 1
 252 553 l 1
 231 453 l 1
 360 453 l 1
 322 386 l 1
 217 386 l 1
 135 1 l 1
EndSplineSet
EndChar
StartChar: u
Encoding: 85 117 85
Width: 479
VWidth: 1259
Flags: HW
HStem: -7 67<178 326>
VStem: 102 412<177 453>
Fore
160 453 m 1
 231 453 l 1
 172 177 l 2
 158 110 195 61 252 61 c 0
 309 61 370 110 384 177 c 2
 443 453 l 1
 513 453 l 1
 454 177 l 2
 433 77 339 -7 239 -7 c 0
 139 -7 80 77 102 177 c 2
 160 453 l 1
EndSplineSet
EndChar
StartChar: v
Encoding: 86 118 86
Width: 451
VWidth: 1259
Flags: HW
HStem: -7 461<107 226>
VStem: 107 431<454 454>
Fore
107 454 m 1
 183 454 l 1
 262 167 l 1
 461 454 l 1
 538 454 l 1
 226 -7 l 1
 107 454 l 1
EndSplineSet
EndChar
StartChar: w
Encoding: 87 119 87
Width: 737
VWidth: 1261
Flags: HW
HStem: -7 467<469 519>
Fore
107 454 m 1
 184 454 l 1
 259 172 l 1
 469 460 l 1
 557 172 l 1
 748 454 l 1
 824 454 l 1
 519 -7 l 1
 432 294 l 1
 219 -7 l 1
 107 454 l 1
EndSplineSet
EndChar
StartChar: x
Encoding: 88 120 88
Width: 445
VWidth: 1261
Flags: HW
VStem: 11 503<0 454>
Fore
125 454 m 1
 206 454 l 1
 285 298 l 1
 430 454 l 1
 514 454 l 1
 315 239 l 1
 436 0 l 1
 352 0 l 1
 262 180 l 1
 94 0 l 1
 11 0 l 1
 233 239 l 1
 125 454 l 1
EndSplineSet
EndChar
StartChar: y
Encoding: 89 121 89
Width: 450
VWidth: 1253
Flags: HW
VStem: 52 485<-218 454>
Fore
107 454 m 1
 181 454 l 1
 249 107 l 1
 462 454 l 1
 537 454 l 1
 127 -218 l 1
 52 -218 l 1
 194 14 l 1
 107 454 l 1
EndSplineSet
EndChar
StartChar: z
Encoding: 90 122 90
Width: 438
VWidth: 1261
Flags: HW
HStem: 0 67<160 396> 386 67<180 378>
VStem: 11 515<0 454>
Fore
180 454 m 1
 525 454 l 1
 160 67 l 1
 434 67 l 1
 396 0 l 1
 11 0 l 1
 378 386 l 1
 142 386 l 1
 180 454 l 1
EndSplineSet
EndChar
StartChar: braceleft
Encoding: 91 123 91
Width: 273
VWidth: 1333
Flags: HW
HStem: -155 59<152 216> 657 59<326 389>
VStem: 98 303<255 716>
Fore
109 306 m 1
 158 334 177 349 191 413 c 2
 219 547 l 2
 249 689 335 716 386 716 c 2
 402 716 l 1
 389 657 l 1
 373 657 l 2
 326 657 301 595 291 547 c 2
 263 415 l 2
 249 348 225 311 190 281 c 1
 210 256 221 219 206 148 c 2
 178 15 l 2
 167 -34 166 -96 213 -96 c 2
 229 -96 l 1
 216 -155 l 1
 200 -155 l 2
 150 -155 75 -128 106 15 c 2
 134 148 l 2
 149 218 129 231 98 255 c 1
 109 306 l 1
EndSplineSet
EndChar
StartChar: bar
Encoding: 92 124 92
Width: 199
VWidth: 1333
Flags: HW
VStem: 46 249<-83 749>
Fore
118 -83 m 1
 46 -83 l 1
 223 749 l 1
 295 749 l 1
 118 -83 l 1
EndSplineSet
EndChar
StartChar: braceright
Encoding: 93 125 93
Width: 274
VWidth: 1333
Flags: HW
HStem: -156 59<3 67> 657 57<176 241>
VStem: -9 305<-156 305>
Fore
285 254 m 1
 236 226 217 211 203 147 c 2
 175 13 l 2
 145 -127 60 -156 7 -156 c 2
 -9 -156 l 1
 3 -97 l 1
 19 -97 l 2
 67 -97 93 -34 103 13 c 2
 131 147 l 2
 146 218 173 255 204 280 c 1
 181 309 172 346 187 413 c 2
 215 547 l 2
 225 595 227 657 180 657 c 2
 164 657 l 1
 176 715 l 1
 192 715 l 2
 245 715 318 686 288 545 c 2
 260 412 l 2
 245 342 264 329 295 305 c 1
 285 254 l 1
EndSplineSet
EndChar
StartChar: asciitilde
Encoding: 94 126 94
Width: 483
VWidth: 1333
Flags: HW
HStem: 153 73<321 431> 213 73<146 264>
VStem: 77 423<157 283>
Fore
441 283 m 1xa0
 500 283 l 1
 497 267 l 2
 479 186 428 153 377 153 c 0xa0
 304 153 247 213 189 213 c 0
 156 213 144 195 140 173 c 2
 136 157 l 1
 77 157 l 1
 81 173 l 2
 99 258 156 287 205 287 c 0x60
 285 287 337 227 392 227 c 0
 422 227 433 243 438 267 c 2
 441 283 l 1xa0
EndSplineSet
EndChar
StartChar: exclamdown
Encoding: 96 161 95
Width: 255
VWidth: 1333
Flags: HW
HStem: 353 107<188 241>
VStem: 33 234<-243 407>
Fore
168 323 m 1
 226 323 l 1
 119 -243 l 1
 33 -243 l 1
 168 323 l 1
226 460 m 0
 255 460 274 436 268 407 c 0
 262 377 232 353 203 353 c 0
 174 353 155 377 161 407 c 0
 167 436 196 460 226 460 c 0
EndSplineSet
EndChar
StartChar: cent
Encoding: 97 162 96
Width: 511
VWidth: 1333
Flags: HW
VStem: 99 435<227 336>
Fore
265 -123 m 1
 193 -123 l 1
 219 0 l 1
 126 24 76 119 99 227 c 0
 122 335 212 429 316 454 c 1
 342 576 l 1
 414 576 l 1
 389 459 l 1
 493 448 525 360 534 336 c 1
 466 302 l 1
 457 326 436 379 374 390 c 1
 305 64 l 1
 376 75 420 134 434 151 c 1
 487 118 l 1
 461 84 393 5 290 -5 c 1
 265 -123 l 1
234 72 m 1
 300 382 l 1
 239 360 184 301 168 228 c 0
 153 154 183 95 234 72 c 1
EndSplineSet
EndChar
StartChar: sterling
Encoding: 98 163 97
Width: 526
VWidth: 1333
Flags: HW
HStem: 0 69<190 454> 297 69<154 239 316 426> 607 67<380 535>
Fore
63 58 m 1
 142 98 213 147 239 297 c 1
 116 297 l 1
 154 365 l 1
 247 365 l 1
 252 421 254 475 265 527 c 0
 284 616 372 675 454 675 c 0
 516 675 586 643 578 516 c 1
 521 516 l 1
 520 522 529 607 440 607 c 0
 394 607 344 578 334 528 c 0
 324 484 322 427 316 368 c 1
 464 368 l 1
 426 299 l 1
 308 299 l 1
 293 213 262 134 190 69 c 1
 492 69 l 1
 454 0 l 1
 68 0 l 1
 63 58 l 1
EndSplineSet
EndChar
StartChar: fraction
Encoding: 312 8260 98
Width: 526
VWidth: 1333
Flags: HW
Fore
611 683 m 1
 700 683 l 1
 56 -16 l 1
 -33 -16 l 1
 611 683 l 1
EndSplineSet
EndChar
StartChar: yen
Encoding: 100 165 99
Width: 578
VWidth: 1333
Flags: HW
HStem: 170 71<150 291 376 513> 275 71<173 290 437 540>
VStem: 135 576<170 667>
Fore
529 242 m 1
 513 170 l 1
 361 170 l 1
 325 0 l 1
 255 0 l 1
 291 170 l 1
 135 170 l 1
 150 242 l 1
 306 242 l 1
 313 275 l 1
 158 275 l 1
 173 346 l 1
 290 346 l 1
 152 667 l 1
 234 667 l 1
 366 359 l 1
 629 667 l 1
 711 667 l 1
 437 346 l 1
 555 346 l 1
 540 275 l 1
 383 275 l 1
 376 242 l 1
 529 242 l 1
EndSplineSet
EndChar
StartChar: florin
Encoding: 200 402 100
Width: 374
VWidth: 1333
Flags: HW
HStem: -72 56<-48 31> 333 69<175 221 323 419> 616 56<457 536>
VStem: -60 608<-72 672>
Fore
460 402 m 1
 419 333 l 1
 294 333 l 1
 184 71 l 2
 144 -31 49 -72 -44 -72 c 2
 -60 -72 l 1
 -48 -16 l 1
 -32 -16 l 2
 31 -16 92 19 117 84 c 2
 221 333 l 1
 136 333 l 1
 175 402 l 1
 250 402 l 1
 303 530 l 2
 346 631 438 672 532 672 c 2
 548 672 l 1
 536 616 l 1
 520 616 l 2
 457 616 396 581 371 516 c 2
 323 402 l 1
 460 402 l 1
EndSplineSet
EndChar
StartChar: section
Encoding: 102 167 101
Width: 419
VWidth: 1333
Flags: HW
HStem: -59 69<163 271> 603 69<280 375>
VStem: 408 72<517 596>
Fore
73 103 m 1
 143 103 l 1
 142 90 l 2
 137 28 174 10 210 10 c 0
 257 10 305 40 315 89 c 0
 337 194 87 161 122 327 c 0
 126 342 137 388 186 428 c 1
 154 463 160 505 164 524 c 0
 183 613 271 672 354 672 c 0
 423 672 487 629 480 529 c 2
 478 512 l 1
 407 512 l 1
 408 525 l 2
 413 595 363 603 340 603 c 0
 294 603 246 573 236 524 c 0
 213 419 464 454 428 288 c 0
 420 247 396 212 365 186 c 1
 397 151 391 110 386 90 c 0
 367 1 278 -59 197 -59 c 0
 127 -59 64 -15 71 86 c 2
 73 103 l 1
359 288 m 0
 371 344 302 360 239 390 c 1
 206 371 196 344 193 328 c 0
 180 270 250 255 311 225 c 1
 345 245 355 272 359 288 c 0
EndSplineSet
EndChar
StartChar: currency
Encoding: 99 164 102
Width: 582
VWidth: 1333
Flags: HW
HStem: 132 73<263 379> 477 72<350 467>
VStem: 71 580<141 532>
Fore
564 458 m 1
 579 424 583 384 574 341 c 0
 565 297 542 256 511 221 c 1
 571 143 l 1
 510 92 l 1
 449 170 l 1
 410 146 365 132 321 132 c 0
 276 132 237 146 208 170 c 1
 111 91 l 1
 71 141 l 1
 168 220 l 1
 152 254 147 296 156 340 c 0
 166 385 189 427 220 461 c 1
 164 532 l 1
 225 583 l 1
 281 512 l 1
 320 535 363 549 407 549 c 0
 453 549 492 534 520 509 c 1
 612 582 l 1
 652 532 l 1
 564 458 l 1
229 341 m 0
 213 266 260 205 336 205 c 0
 411 205 485 266 501 341 c 0
 517 417 469 477 393 477 c 0
 318 477 245 417 229 341 c 0
EndSplineSet
EndChar
StartChar: quotesingle
Encoding: 7 39 103
Width: 234
VWidth: 1333
Flags: HW
Fore
253 504 m 1
 196 504 l 1
 224 709 l 1
 312 709 l 1
 253 504 l 1
EndSplineSet
EndChar
StartChar: quotedblleft
Encoding: 302 8220 104
Width: 330
VWidth: 1333
Flags: HW
VStem: 164 291<544 683>
Fore
233 580 m 1
 258 581 284 559 277 527 c 0
 271 497 242 473 213 473 c 0
 183 473 153 495 164 544 c 0
 170 572 183 616 257 674 c 1
 258 683 l 1
 337 683 l 1
 296 654 l 2
 272 638 246 605 233 580 c 1
350 579 m 1
 374 579 401 558 394 525 c 0
 388 496 359 472 330 472 c 0
 301 472 270 494 281 543 c 0
 287 572 301 615 374 673 c 1
 376 683 l 1
 455 683 l 1
 413 654 l 2
 390 638 363 604 350 579 c 1
EndSplineSet
EndChar
StartChar: guillemotleft
Encoding: 106 171 105
Width: 395
VWidth: 1333
Flags: HW
HStem: 51 352<382 396>
VStem: 72 399<227 403>
Fore
382 403 m 1
 471 403 l 1
 308 227 l 1
 396 51 l 1
 308 51 l 1
 219 227 l 1
 382 403 l 1
236 403 m 1
 324 403 l 1
 161 227 l 1
 250 51 l 1
 161 51 l 1
 72 227 l 1
 236 403 l 1
EndSplineSet
EndChar
StartChar: guilsinglleft
Encoding: 310 8249 106
Width: 211
VWidth: 1333
Flags: HW
HStem: 51 352<208 222>
VStem: 44 252<227 403>
Fore
208 403 m 1
 297 403 l 1
 133 227 l 1
 222 51 l 1
 133 51 l 1
 44 227 l 1
 208 403 l 1
EndSplineSet
EndChar
StartChar: guilsinglright
Encoding: 311 8250 107
Width: 211
VWidth: 1333
Flags: HW
HStem: 51 352<86 100>
VStem: 12 252<51 227>
Fore
86 403 m 1
 175 403 l 1
 264 227 l 1
 100 51 l 1
 12 51 l 1
 175 227 l 1
 86 403 l 1
EndSplineSet
EndChar
StartChar: endash
Encoding: 297 8211 108
Width: 349
VWidth: 1333
Flags: HW
HStem: 191 72<104 342>
VStem: 89 269<191 263>
Fore
357 263 m 1
 342 191 l 1
 89 191 l 1
 104 263 l 1
 357 263 l 1
EndSplineSet
EndChar
StartChar: dagger
Encoding: 305 8224 109
Width: 522
VWidth: 1333
Flags: HW
HStem: 403 73<149 245 465 560> 410 60<222 319 391 488>
VStem: 134 442<403 477>
Fore
267 -144 m 1x60
 195 -144 l 1
 319 410 l 1x60
 134 403 l 1
 149 477 l 1xa0
 331 470 l 1
 370 683 l 1
 443 683 l 1
 391 470 l 1x60
 576 477 l 1
 560 403 l 1xa0
 378 410 l 1
 267 -144 l 1x60
EndSplineSet
EndChar
StartChar: daggerdbl
Encoding: 306 8225 110
Width: 522
VWidth: 1333
Flags: HW
HStem: 101 73<85 181 400 496> 107 60<158 254 326 423> 366 73<141 237 457 552> 373 60<214 311 383 479>
VStem: 69 499<101 439>
Fore
267 -144 m 1x48
 194 -144 l 1
 254 107 l 1x48
 69 101 l 1
 85 174 l 1x88
 268 167 l 1
 311 373 l 1x58
 126 366 l 1
 141 439 l 1x28
 323 433 l 1
 370 683 l 1
 443 683 l 1
 383 433 l 1x18
 568 439 l 1
 552 366 l 1x28
 370 373 l 1
 326 167 l 1x58
 512 174 l 1
 496 101 l 1x88
 314 107 l 1
 267 -144 l 1x48
EndSplineSet
EndChar
StartChar: periodcentered
Encoding: 118 183 111
Width: 255
VWidth: 1333
Flags: HW
HStem: 280 107<172 226>
VStem: 146 107<309 358 333 333>
Fore
210 387 m 0
 239 387 258 363 252 333 c 0
 246 304 217 280 188 280 c 0
 158 280 139 304 146 333 c 0
 152 363 181 387 210 387 c 0
EndSplineSet
EndChar
StartChar: paragraph
Encoding: 117 182 112
Width: 579
VWidth: 1333
Flags: HW
HStem: 597 69<527 573>
VStem: 142 516<428 666>
Fore
377 -108 m 1
 307 -108 l 1
 370 190 l 1
 188 192 116 309 142 428 c 0
 167 548 291 666 478 666 c 2
 658 666 l 1
 493 -108 l 1
 423 -108 l 1
 573 597 l 1
 527 597 l 1
 377 -108 l 1
EndSplineSet
EndChar
StartChar: bullet
Encoding: 307 8226 113
Width: 442
VWidth: 1333
Flags: HW
VStem: 105 347<242 291 267 267>
Fore
315 443 m 0
 411 443 472 363 451 267 c 0
 431 170 336 91 241 91 c 0
 145 91 84 170 105 267 c 0
 125 363 220 443 315 443 c 0
EndSplineSet
EndChar
StartChar: quotesinglbase
Encoding: 301 8218 114
Width: 255
VWidth: 1333
Flags: HW
VStem: 19 176<-124 13>
Fore
146 84 m 0
 177 84 205 60 195 13 c 0
 177 -69 96 -120 94 -121 c 1
 84 -124 l 1
 19 -124 l 1
 60 -96 l 2
 84 -79 109 -48 123 -23 c 1
 94 -22 75 1 81 31 c 0
 87 60 117 84 146 84 c 0
EndSplineSet
EndChar
StartChar: quotedblbase
Encoding: 304 8222 115
Width: 375
VWidth: 1333
Flags: HW
VStem: 19 296<-124 13>
Fore
266 84 m 0
 297 84 325 60 315 13 c 0
 297 -69 216 -120 214 -121 c 1
 204 -124 l 1
 139 -124 l 1
 180 -96 l 2
 204 -79 229 -48 243 -23 c 1
 214 -22 195 1 201 31 c 0
 207 60 237 84 266 84 c 0
146 84 m 0
 177 84 205 60 195 13 c 0
 177 -69 96 -120 94 -121 c 1
 84 -124 l 1
 19 -124 l 1
 60 -96 l 2
 84 -79 109 -48 123 -23 c 1
 94 -22 75 1 81 31 c 0
 87 60 117 84 146 84 c 0
EndSplineSet
EndChar
StartChar: quotedblright
Encoding: 303 8221 116
Width: 331
VWidth: 1333
Flags: HW
VStem: 119 295<473 611>
Fore
344 575 m 1
 319 574 293 596 300 628 c 0
 306 657 336 681 365 681 c 0
 394 681 424 659 414 611 c 0
 396 528 315 477 313 476 c 1
 303 473 l 1
 237 473 l 1
 281 502 l 2
 305 518 332 550 344 575 c 1
226 575 m 1
 200 574 175 596 181 628 c 0
 188 657 217 681 246 681 c 0
 275 681 305 659 295 611 c 0
 278 528 196 477 195 476 c 1
 185 473 l 1
 119 473 l 1
 162 502 l 2
 187 518 213 550 226 575 c 1
EndSplineSet
EndChar
StartChar: guillemotright
Encoding: 122 187 117
Width: 395
VWidth: 1333
Flags: HW
HStem: 51 352<96 110>
VStem: 21 399<51 227>
Fore
96 403 m 1
 185 403 l 1
 274 227 l 1
 110 51 l 1
 21 51 l 1
 185 227 l 1
 96 403 l 1
243 403 m 1
 332 403 l 1
 420 227 l 1
 257 51 l 1
 168 51 l 1
 332 227 l 1
 243 403 l 1
EndSplineSet
EndChar
StartChar: ellipsis
Encoding: 308 8230 118
Width: 789
VWidth: 1333
Flags: HW
HStem: -23 107<108 161 376 429 641 695>
VStem: 81 640<6 55 31 31>
Fore
146 84 m 0
 175 84 194 60 188 31 c 0
 182 1 152 -23 123 -23 c 0
 94 -23 75 1 81 31 c 0
 87 60 117 84 146 84 c 0
679 84 m 0
 708 84 727 60 721 31 c 0
 715 1 686 -23 656 -23 c 0
 627 -23 608 1 615 31 c 0
 621 60 650 84 679 84 c 0
414 84 m 0
 443 84 462 60 456 31 c 0
 450 1 420 -23 391 -23 c 0
 362 -23 343 1 349 31 c 0
 355 60 385 84 414 84 c 0
EndSplineSet
EndChar
StartChar: perthousand
Encoding: 309 8240 119
Width: 989
VWidth: 1333
Flags: HW
HStem: -24 73<449 558 782 892> 196 73<480 590 813 923> 393 73<207 317> 613 73<238 348>
Fore
666 123 m 0
 649 42 569 -24 488 -24 c 0
 407 -24 356 42 373 123 c 0
 390 204 470 269 551 269 c 0
 631 269 683 204 666 123 c 0
445 123 m 0
 436 82 462 49 504 49 c 0
 546 49 585 82 594 123 c 0
 603 163 577 196 535 196 c 0
 493 196 453 163 445 123 c 0
999 121 m 0
 982 40 902 -25 821 -25 c 0
 740 -25 689 40 706 121 c 0
 723 202 803 268 884 268 c 0
 964 268 1016 202 999 121 c 0
778 121 m 0
 769 81 795 48 837 48 c 0
 879 48 918 81 927 121 c 0
 936 162 910 195 868 195 c 0
 826 195 786 162 778 121 c 0
424 540 m 0
 407 459 327 393 246 393 c 0
 165 393 114 459 131 540 c 0
 148 621 228 687 309 687 c 0
 389 687 441 621 424 540 c 0
203 540 m 0
 194 500 220 467 262 467 c 0
 304 467 344 500 352 540 c 0
 361 580 335 613 293 613 c 0
 251 613 211 580 203 540 c 0
676 679 m 1
 765 679 l 1
 120 -20 l 1
 31 -20 l 1
 676 679 l 1
EndSplineSet
EndChar
StartChar: questiondown
Encoding: 126 191 120
Width: 487
VWidth: 1333
Flags: HW
HStem: -252 72<115 298> 353 107<317 371>
VStem: 36 390<-71 -52 -68 -52>
Fore
332 353 m 0
 303 353 284 377 290 407 c 0
 297 436 326 460 355 460 c 0
 384 460 403 436 397 407 c 0
 391 377 362 353 332 353 c 0
287 316 m 1
 359 316 l 1
 342 233 l 2
 307 71 125 12 108 -68 c 0
 94 -136 134 -180 196 -180 c 0
 275 -180 340 -119 351 -68 c 2
 354 -52 l 1
 426 -52 l 1
 423 -68 l 2
 402 -166 292 -252 181 -252 c 0
 76 -252 14 -174 36 -68 c 0
 63 56 242 104 270 233 c 2
 287 316 l 1
EndSplineSet
EndChar
StartChar: grave
Encoding: 64 96 121
Width: 190
VWidth: 1333
Flags: HW
Fore
262 533 m 1
 199 533 l 1
 154 696 l 1
 242 696 l 1
 262 533 l 1
EndSplineSet
EndChar
StartChar: acute
Encoding: 115 180 122
Width: 282
VWidth: 1333
Flags: HW
HStem: 517 192<256 334>
VStem: 172 279<517 709>
Fore
334 709 m 1
 451 709 l 1
 256 517 l 1
 172 517 l 1
 334 709 l 1
EndSplineSet
EndChar
StartChar: circumflex
Encoding: 201 710 123
Width: 309
VWidth: 1333
Flags: HW
HStem: 637 151<300 449>
VStem: 131 318<637 637>
Fore
300 788 m 1
 344 788 l 1
 449 637 l 1
 351 637 l 1
 304 703 l 1
 229 637 l 1
 131 637 l 1
 300 788 l 1
EndSplineSet
EndChar
StartChar: tilde
Encoding: 206 732 124
Width: 290
VWidth: 1333
Flags: HW
HStem: 640 47<235 341>
VStem: 138 281<575 681>
Fore
142 591 m 2
 159 672 206 687 235 687 c 0
 284 687 318 642 341 640 c 2
 341 640 334 640 341 640 c 0
 344 640 354 645 359 665 c 2
 362 681 l 1
 419 681 l 1
 416 665 l 2
 400 592 367 567 326 567 c 0
 259 567 218 660 200 590 c 2
 196 575 l 1
 138 575 l 1
 142 591 l 2
EndSplineSet
EndChar
StartChar: macron
Encoding: 110 175 125
Width: 402
VWidth: 1333
Flags: HW
HStem: 524 72<175 466>
VStem: 159 322<524 596>
Fore
481 596 m 1
 466 524 l 1
 159 524 l 1
 175 596 l 1
 481 596 l 1
EndSplineSet
EndChar
StartChar: dotaccent
Encoding: 203 729 126
Width: 255
VWidth: 1333
Flags: HW
HStem: 537 107<227 280>
VStem: 200 107<566 615 591 591>
Fore
265 644 m 0
 294 644 313 620 307 591 c 0
 301 561 272 537 242 537 c 0
 213 537 194 561 200 591 c 0
 206 620 236 644 265 644 c 0
EndSplineSet
EndChar
StartChar: dieresis
Encoding: 103 168 127
Width: 298
VWidth: 1333
Flags: HW
HStem: 524 107<165 219 325 379>
VStem: 139 267<553 602 577 577>
Fore
203 631 m 0
 233 631 252 607 245 577 c 0
 239 548 210 524 181 524 c 0
 151 524 132 548 139 577 c 0
 145 607 174 631 203 631 c 0
363 631 m 0
 393 631 412 607 405 577 c 0
 399 548 370 524 341 524 c 0
 311 524 292 548 299 577 c 0
 305 607 334 631 363 631 c 0
EndSplineSet
EndChar
StartChar: ring
Encoding: 204 730 128
Width: 255
VWidth: 1333
Flags: HW
HStem: 485 72<218 275> 637 72<235 292>
VStem: 143 224<573 622 597 597>
Fore
367 597 m 0
 354 535 293 485 231 485 c 0
 169 485 130 535 143 597 c 0
 156 659 217 709 279 709 c 0
 341 709 380 659 367 597 c 0
215 597 m 0
 210 576 225 557 246 557 c 0
 268 557 290 576 295 597 c 0
 300 619 285 637 263 637 c 0
 242 637 220 619 215 597 c 0
EndSplineSet
EndChar
StartChar: cedilla
Encoding: 119 184 129
Width: 279
VWidth: 1333
Flags: HW
HStem: -205 211<133 161 90 133>
VStem: 5 202<-173 5>
Fore
133 5 m 5
 207 5 l 5
 170 -43 l 5
 216 -60 211 -100 206 -120 c 5
 196 -171 145 -204 90 -205 c 5
 64 -205 38 -198 17 -181 c 6
 5 -173 l 5
 57 -112 l 5
 68 -121 l 6
 109 -153 172 -116 104 -104 c 6
 52 -97 l 5
 133 5 l 5
EndSplineSet
EndChar
StartChar: hungarumlaut
Encoding: 207 733 130
Width: 455
VWidth: 1333
Flags: HW
HStem: 517 192<256 334>
VStem: 172 452<517 709>
Fore
334 709 m 1
 451 709 l 1
 256 517 l 1
 172 517 l 1
 334 709 l 1
507 709 m 1
 624 709 l 1
 430 517 l 1
 345 517 l 1
 507 709 l 1
EndSplineSet
EndChar
StartChar: ogonek
Encoding: 205 731 131
Width: 270
VWidth: 1333
Flags: HW
HStem: -191 65<101 141>
VStem: 26 175<-101 16>
Fore
26 -101 m 0
 37 -53 81 -12 114 16 c 1
 201 16 l 1
 169 -11 l 2
 115 -57 104 -82 100 -100 c 0
 96 -120 116 -125 127 -125 c 0
 134 -125 143 -122 152 -117 c 2
 166 -107 l 1
 197 -157 l 1
 180 -167 l 2
 153 -183 125 -191 101 -191 c 0
 49 -191 15 -155 26 -101 c 0
EndSplineSet
EndChar
StartChar: caron
Encoding: 202 711 132
Width: 309
VWidth: 1333
Flags: HW
HStem: 637 151<163 312>
VStem: 163 318<788 788>
Fore
312 637 m 1
 268 637 l 1
 163 788 l 1
 261 788 l 1
 308 722 l 1
 383 788 l 1
 481 788 l 1
 312 637 l 1
EndSplineSet
EndChar
StartChar: emdash
Encoding: 298 8212 133
Width: 615
VWidth: 1333
Flags: HW
HStem: 191 72<104 609>
VStem: 89 535<191 263>
Fore
624 263 m 1
 609 191 l 1
 89 191 l 1
 104 263 l 1
 624 263 l 1
EndSplineSet
EndChar
StartChar: AE
Encoding: 133 198 134
Width: 743
VWidth: 1333
Flags: HW
HStem: 0 69<505 694> 197 69<257 435> 350 69<513 732> 598 69<517 811>
VStem: 431 73<68 194> 438 74<266 350> 445 72<444 562> 445 67<419 562>
Fore
746 419 m 1xf1
 732 350 l 1
 511 350 l 1xf4
 505 68 l 1
 709 68 l 1
 694 0 l 1
 431 0 l 1xf8
 435 197 l 1
 212 197 l 1
 86 0 l 1
 11 0 l 1
 436 667 l 1
 825 667 l 1
 811 598 l 1
 517 598 l 1xf2
 513 419 l 1
 746 419 l 1xf1
257 266 m 1
 438 266 l 1xf4
 445 562 l 1xf2
 257 266 l 1
EndSplineSet
EndChar
StartChar: ordfeminine
Encoding: 105 170 135
Width: 374
VWidth: 1333
Flags: HW
HStem: 261 67<188 280> 445 60<220 342> 560 65<232 350>
VStem: 338 70<273 322>
Fore
356 420 m 2
 359 435 l 1
 338 441 311 445 284 445 c 0
 235 445 192 432 182 385 c 0
 174 347 199 328 236 328 c 0
 296 328 347 393 356 420 c 2
204 512 m 1
 152 530 l 1
 171 553 227 625 312 625 c 0
 397 625 456 563 434 461 c 2
 414 367 l 2
 406 329 408 282 408 273 c 1
 338 258 l 1
 337 276 336 286 338 312 c 1
 307 284 267 261 222 261 c 0
 147 261 99 311 115 385 c 0
 134 475 218 505 293 505 c 0
 320 505 345 502 368 495 c 1
 365 536 337 560 295 560 c 0
 247 560 216 527 204 512 c 1
EndSplineSet
EndChar
StartChar: Lslash
Encoding: 191 321 136
Width: 518
VWidth: 1286
Flags: HW
HStem: 0 69<149 476>
VStem: 27 463<69 128>
Fore
476 0 m 1
 64 0 l 1
 103 185 l 1
 27 128 l 1
 48 225 l 1
 124 281 l 1
 206 667 l 1
 276 667 l 1
 208 344 l 1
 401 489 l 1
 381 393 l 1
 187 248 l 1
 149 69 l 1
 490 69 l 1
 476 0 l 1
EndSplineSet
EndChar
StartChar: Oslash
Encoding: 151 216 137
Width: 782
VWidth: 1286
Flags: HW
HStem: -6 69<345 604> 604 69<321 579>
Fore
152 -73 m 1
 100 -34 l 1
 189 68 l 1
 123 130 92 226 115 333 c 0
 155 521 343 673 535 673 c 0
 591 673 641 660 683 637 c 1
 772 739 l 1
 825 701 l 1
 736 599 l 1
 802 536 833 441 810 333 c 0
 770 145 582 -6 390 -6 c 0
 334 -6 283 7 241 30 c 1
 152 -73 l 1
685 540 m 1
 292 88 l 1
 324 72 362 62 405 62 c 0
 558 62 708 184 739 333 c 0
 757 416 735 491 685 540 c 1
633 579 m 1
 600 595 562 604 520 604 c 0
 367 604 217 483 185 333 c 0
 168 250 190 176 239 126 c 1
 633 579 l 1
EndSplineSet
EndChar
StartChar: OE
Encoding: 193 338 138
Width: 893
VWidth: 1333
Flags: HW
HStem: -7 69<212 455> 0 69<517 844> 350 69<590 892> 598 69<629 970> 605 69<327 570>
Fore
590 419 m 1x30
 907 419 l 1
 892 350 l 1
 577 350 l 1
 517 68 l 1
 858 68 l 1
 844 0 l 1
 465 0 l 1x70
 443 -4 420 -7 397 -7 c 0
 205 -7 82 145 122 333 c 0
 161 521 350 673 541 673 c 0xa8
 564 673 586 671 607 667 c 1
 984 667 l 1
 970 598 l 1
 629 598 l 1
 590 419 l 1x30
446 64 m 1
 560 603 l 1
 550 604 538 605 527 605 c 0x28
 373 605 224 483 192 333 c 0
 160 184 258 62 411 62 c 0
 423 62 435 63 446 64 c 1
EndSplineSet
EndChar
StartChar: ordmasculine
Encoding: 121 186 139
Width: 366
VWidth: 1333
Flags: HW
HStem: 260 71<186 322> 525 71<228 364>
VStem: 107 336<404 452 428 428>
Fore
443 428 m 0
 423 335 332 260 239 260 c 0
 146 260 87 335 107 428 c 0
 127 521 218 596 311 596 c 0
 403 596 463 521 443 428 c 0
179 428 m 0
 168 374 202 331 254 331 c 0
 307 331 360 374 371 428 c 0
 382 482 348 525 296 525 c 0
 243 525 190 482 179 428 c 0
EndSplineSet
EndChar
StartChar: ae
Encoding: 165 230 140
Width: 846
VWidth: 1261
Flags: HW
HStem: -8 67<133 292 493 632> 215 63<282 400 492 776> 392 67<234 389 577 741>
Fore
215 60 m 0
 276 60 349 107 388 155 c 1
 400 212 l 2
 400 213 400 214 401 215 c 1
 291 213 160 200 144 124 c 0
 138 99 152 60 215 60 c 0
492 278 m 1
 776 278 l 1
 770 346 722 392 658 392 c 0
 595 392 527 346 492 278 c 1
471 212 m 1
 468 201 l 2
 462 120 515 62 586 62 c 0
 643 62 703 92 751 151 c 1
 804 118 l 1
 720 10 618 -6 571 -6 c 0
 493 -6 436 37 411 100 c 1
 355 38 271 -8 201 -8 c 0
 91 -8 61 65 73 124 c 0
 104 272 312 278 413 278 c 1
 421 356 372 394 319 394 c 0
 254 394 209 341 196 327 c 1
 147 363 l 1
 166 385 233 461 333 461 c 0
 398 461 454 427 475 365 c 1
 527 422 599 460 672 460 c 0
 790 460 861 363 846 246 c 2
 841 212 l 1
 471 212 l 1
EndSplineSet
EndChar
StartChar: lslash
Encoding: 192 322 141
Width: 197
VWidth: 1286
Flags: HW
VStem: 43 233<146 667>
Fore
135 0 m 1
 64 0 l 1
 105 192 l 1
 43 146 l 1
 63 242 l 1
 125 288 l 1
 206 667 l 1
 276 667 l 1
 209 352 l 1
 270 397 l 1
 249 301 l 1
 189 255 l 1
 135 0 l 1
EndSplineSet
EndChar
StartChar: oslash
Encoding: 183 248 142
Width: 573
VWidth: 1261
Flags: HW
HStem: -6 67<253 426> 392 67<247 399>
VStem: 76 502<-37 227>
Fore
578 227 m 0
 551 98 420 -6 286 -6 c 0
 252 -6 222 0 195 12 c 1
 134 -71 l 1
 76 -37 l 1
 140 49 l 1
 97 92 77 155 92 227 c 0
 120 356 251 460 385 460 c 0
 404 460 422 458 439 454 c 1
 491 524 l 1
 549 489 l 1
 503 427 l 1
 565 386 596 312 578 227 c 0
393 391 m 1
 386 392 379 392 372 392 c 0
 276 392 182 318 163 227 c 0
 153 182 163 142 187 112 c 1
 393 391 l 1
458 367 m 1
 240 72 l 1
 258 65 279 61 301 61 c 0
 397 61 491 135 510 227 c 0
 523 286 501 338 458 367 c 1
EndSplineSet
EndChar
StartChar: oe
Encoding: 194 339 143
Width: 954
VWidth: 1261
Flags: HW
HStem: -6 67<177 400 597 740> 212 66<600 884> 392 67<247 496 684 849>
Fore
163 227 m 0
 143 135 205 61 301 61 c 0
 397 61 491 135 510 227 c 0
 530 318 468 392 372 392 c 0
 276 392 182 318 163 227 c 0
578 212 m 1
 566 125 620 62 694 62 c 0
 751 62 811 92 859 151 c 1
 913 118 l 1
 828 10 726 -6 679 -6 c 0
 599 -6 541 39 517 105 c 1
 460 38 374 -6 286 -6 c 0
 152 -6 65 98 92 227 c 0
 120 356 251 460 385 460 c 0
 473 460 540 415 569 348 c 1
 621 414 699 460 780 460 c 0
 898 460 969 363 954 246 c 2
 949 212 l 1
 578 212 l 1
600 278 m 1
 884 278 l 1
 878 346 830 392 766 392 c 0
 703 392 635 346 600 278 c 1
EndSplineSet
EndChar
StartChar: germandbls
Encoding: 158 223 144
Width: 495
VWidth: 1333
Flags: HW
HStem: -7 61<261 376> 675 67<320 459>
VStem: 64 479<1 563>
Fore
216 92 m 5
 241 66 270 55 299 55 c 4
 358 55 415 103 430 174 c 4
 448 257 305 284 326 386 c 4
 343 466 456 493 471 564 c 4
 487 635 443 675 389 675 c 4
 336 675 269 633 244 514 c 6
 135 1 l 5
 64 1 l 5
 173 513 l 6
 206 667 312 742 406 742 c 4
 495 742 567 675 543 563 c 4
 521 460 406 421 398 385 c 4
 387 332 527 290 502 172 c 4
 480 70 392 -7 297 -7 c 4
 249 -7 199 13 155 58 c 5
 216 92 l 5
EndSplineSet
EndChar
StartChar: logicalnot
Encoding: 107 172 145
Width: 594
VWidth: 1333
Flags: HW
HStem: 351 72<114 573>
VStem: 99 562<351 423>
Fore
660 423 m 1
 601 144 l 1
 529 144 l 1
 573 351 l 1
 99 351 l 1
 114 423 l 1
 660 423 l 1
EndSplineSet
EndChar
StartChar: trademark
Encoding: 314 8482 146
Width: 758
VWidth: 1333
Flags: HW
HStem: 736 64<225 304 369 462>
VStem: 748 62<451 639>
Fore
476 800 m 1
 462 736 l 1
 369 736 l 1
 309 451 l 1
 243 451 l 1
 304 736 l 1
 211 736 l 1
 225 800 l 1
 476 800 l 1
748 639 m 1
 597 444 l 1
 534 639 l 1
 456 451 l 1
 389 451 l 1
 544 807 l 1
 626 570 l 1
 810 806 l 1
 811 451 l 1
 745 451 l 1
 748 639 l 1
EndSplineSet
EndChar
StartChar: Eth
Encoding: 143 208 147
Width: 609
VWidth: 1333
Flags: HW
HStem: 0 69<149 380> 299 69<77 128 213 392> 598 69<262 539>
VStem: 63 568<309 318 299 333>
Fore
149 68 m 1
 227 68 l 2
 380 68 528 184 560 333 c 0
 592 483 493 598 339 598 c 2
 262 598 l 1
 213 368 l 1
 406 368 l 1
 392 299 l 1
 198 299 l 1
 149 68 l 1
143 368 m 1
 206 667 l 1
 354 667 l 2
 545 667 670 521 630 333 c 0
 590 145 403 0 212 0 c 2
 64 0 l 1
 128 299 l 1
 63 299 l 1
 77 368 l 1
 143 368 l 1
EndSplineSet
EndChar
StartChar: onehalf
Encoding: 124 189 148
Width: 813
VWidth: 1333
Flags: HW
HStem: 0 69<558 760> 392 69<658 757>
Fore
774 69 m 1
 760 0 l 1
 461 0 l 1
 468 33 l 2
 501 187 744 216 763 307 c 0
 774 357 745 392 707 392 c 0
 670 392 626 357 616 307 c 2
 612 292 l 1
 543 292 l 1
 546 307 l 2
 563 390 641 461 723 461 c 0
 805 461 853 391 836 308 c 0
 809 180 617 148 558 69 c 1
 774 69 l 1
723 667 m 1
 809 667 l 1
 186 0 l 1
 100 0 l 1
 723 667 l 1
247 557 m 1
 202 530 l 1
 175 587 l 1
 345 688 l 1
 244 215 l 1
 174 215 l 1
 247 557 l 1
EndSplineSet
Ligature2: "'frac' Diagonal Fractions in Latin lookup 42" one fraction two
Ligature2: "'frac' Diagonal Fractions in Latin lookup 42" one slash two
EndChar
StartChar: plusminus
Encoding: 112 177 149
Width: 422
VWidth: 1333
Flags: HW
HStem: 0 69<39 399> 286 69<99 237 322 460>
VStem: 24 450<0 355>
Fore
414 69 m 1
 399 0 l 1
 24 0 l 1
 39 69 l 1
 414 69 l 1
275 136 m 1
 205 136 l 1
 237 286 l 1
 85 286 l 1
 99 355 l 1
 252 355 l 1
 284 505 l 1
 354 505 l 1
 322 355 l 1
 474 355 l 1
 460 286 l 1
 307 286 l 1
 275 136 l 1
EndSplineSet
EndChar
StartChar: Thorn
Encoding: 157 222 150
Width: 515
VWidth: 1333
Flags: HW
HStem: 135 70<172 399> 462 67<235 454>
VStem: 64 473<0 332>
Fore
232 457 m 5
 179 210 l 5
 203 206 226 205 247 205 c 4
 364 205 448 253 466 333 c 4
 483 414 419 462 302 462 c 4
 281 462 257 460 232 457 c 5
64 0 m 5
 206 667 l 5
 276 667 l 5
 246 524 l 5
 270 528 294 529 316 529 c 4
 477 529 562 450 537 332 c 4
 512 214 393 135 233 135 c 4
 210 135 187 136 164 140 c 5
 135 0 l 5
 64 0 l 5
EndSplineSet
EndChar
StartChar: onequarter
Encoding: 123 188 151
Width: 813
VWidth: 1333
Flags: HW
HStem: 69 70<544 649 732 763>
Fore
763 667 m 1
 849 667 l 1
 226 0 l 1
 140 0 l 1
 763 667 l 1
664 139 m 1
 697 295 l 1
 544 139 l 1
 664 139 l 1
247 557 m 1
 202 530 l 1
 175 587 l 1
 345 688 l 1
 244 215 l 1
 174 215 l 1
 247 557 l 1
649 69 m 1
 388 69 l 1
 809 498 l 1
 732 139 l 1
 800 139 l 1
 763 69 l 1
 719 69 l 1
 704 0 l 1
 634 0 l 1
 649 69 l 1
EndSplineSet
Ligature2: "'frac' Diagonal Fractions in Latin lookup 42" one fraction four
Ligature2: "'frac' Diagonal Fractions in Latin lookup 42" one slash four
EndChar
StartChar: divide
Encoding: 182 247 152
Width: 482
VWidth: 1333
Flags: HW
HStem: 156 107<259 313> 297 72<127 498> 404 107<312 365>
VStem: 111 402<297 369>
CounterMasks: 1 00
Fore
297 263 m 0
 326 263 345 239 339 209 c 0
 333 180 304 156 274 156 c 0
 245 156 226 180 232 209 c 0
 239 239 268 263 297 263 c 0
350 511 m 0
 379 511 398 487 392 457 c 0
 386 428 356 404 327 404 c 0
 298 404 279 428 285 457 c 0
 291 487 321 511 350 511 c 0
513 369 m 1
 498 297 l 1
 111 297 l 1
 127 369 l 1
 513 369 l 1
EndSplineSet
EndChar
StartChar: brokenbar
Encoding: 101 166 153
Width: 167
VWidth: 1333
Flags: HW
VStem: -4 272<-243 696>
Fore
185 304 m 1
 113 304 l 1
 196 696 l 1
 268 696 l 1
 185 304 l 1
68 -243 m 1
 -4 -243 l 1
 80 149 l 1
 152 149 l 1
 68 -243 l 1
EndSplineSet
EndChar
StartChar: degree
Encoding: 111 176 154
Width: 354
VWidth: 1333
Flags: HW
HStem: 525 73<264 345> 711 73<288 369>
VStem: 187 259<630 679 655 655>
Fore
446 655 m 0
 431 583 360 525 289 525 c 0
 218 525 172 583 187 655 c 0
 202 726 273 784 344 784 c 0
 415 784 461 726 446 655 c 0
260 655 m 0
 254 623 273 599 305 599 c 0
 336 599 366 623 372 655 c 0
 379 686 360 711 328 711 c 0
 297 711 267 686 260 655 c 0
EndSplineSet
EndChar
StartChar: thorn
Encoding: 189 254 155
Width: 513
VWidth: 1333
Flags: HW
HStem: -8 70<196 392> 393 67<295 463>
VStem: 5 541<-222 226>
Fore
76 -222 m 1
 5 -222 l 1
 194 666 l 1
 265 666 l 1
 208 400 l 1
 256 439 313 460 373 460 c 0
 499 460 573 355 546 226 c 0
 519 98 399 -8 273 -8 c 0
 214 -8 166 17 135 56 c 1
 76 -222 l 1
174 241 m 2
 169 214 l 2
 156 124 210 62 287 62 c 0
 368 62 454 132 475 228 c 0
 495 323 438 393 357 393 c 0
 280 393 200 331 174 241 c 2
EndSplineSet
EndChar
StartChar: threequarters
Encoding: 125 190 156
Width: 813
VWidth: 1333
Flags: HW
HStem: 70 69<570 675 759 789> 207 67<194 313> 438 69<287 333> 605 69<284 363>
Fore
121 372 m 1
 191 372 l 1
 188 356 l 2
 178 311 208 275 253 275 c 0
 299 275 344 311 353 356 c 0
 363 401 334 438 288 438 c 2
 273 438 l 1
 287 507 l 1
 303 507 l 2
 333 507 361 525 367 552 c 0
 373 581 354 605 323 605 c 0
 293 605 264 581 258 552 c 2
 255 537 l 1
 185 537 l 1
 188 552 l 2
 202 619 269 673 337 673 c 0
 405 673 448 619 434 552 c 0
 428 523 410 495 386 474 c 1
 416 447 431 404 421 356 c 0
 403 274 321 207 238 207 c 0
 154 207 101 274 118 356 c 2
 121 372 l 1
815 667 m 1
 901 667 l 1
 278 0 l 1
 192 0 l 1
 815 667 l 1
690 139 m 1
 723 294 l 1
 570 139 l 1
 690 139 l 1
675 70 m 1
 414 70 l 1
 835 499 l 1
 759 139 l 1
 827 139 l 1
 789 70 l 1
 745 70 l 1
 730 0 l 1
 661 0 l 1
 675 70 l 1
EndSplineSet
Ligature2: "'frac' Diagonal Fractions in Latin lookup 42" three fraction four
Ligature2: "'frac' Diagonal Fractions in Latin lookup 42" three slash four
EndChar
StartChar: registered
Encoding: 109 174 157
Width: 789
VWidth: 1333
Flags: HW
HStem: -7 69<211 605> 295 69<420 462> 464 69<442 551> 605 69<326 720>
Fore
598 133 m 1
 517 133 l 1
 462 295 l 1
 406 295 l 1
 371 133 l 1
 301 133 l 1
 386 533 l 1
 533 533 l 2
 599 533 639 479 625 414 c 0
 615 368 581 327 538 308 c 1
 598 133 l 1
191 333 m 0
 160 184 256 62 408 62 c 0
 560 62 708 184 740 333 c 0
 771 483 675 605 523 605 c 0
 371 605 223 483 191 333 c 0
810 333 m 0
 770 145 583 -7 393 -7 c 0
 204 -7 82 145 122 333 c 0
 161 521 348 673 538 673 c 0
 727 673 849 521 810 333 c 0
420 364 m 1
 498 364 l 2
 523 364 549 384 555 414 c 0
 561 443 544 464 518 464 c 2
 442 464 l 1
 420 364 l 1
EndSplineSet
EndChar
StartChar: eth
Encoding: 175 240 158
Width: 522
VWidth: 1333
Flags: HW
HStem: -7 67<151 400> 399 70<252 410>
VStem: 70 512<231 660>
Fore
447 590 m 1
 584 444 568 288 556 231 c 0
 528 99 397 -7 263 -7 c 0
 128 -7 42 99 70 231 c 0
 98 363 230 469 364 469 c 0
 396 469 426 463 452 452 c 1
 433 489 408 523 377 553 c 1
 217 470 l 1
 195 529 l 1
 325 597 l 1
 285 626 247 641 211 653 c 1
 246 719 l 1
 301 701 349 678 399 637 c 1
 560 720 l 1
 582 660 l 1
 447 590 l 1
349 399 m 2
 348 399 l 2
 252 399 158 323 138 230 c 0
 118 137 180 61 276 61 c 0
 371 61 465 137 485 230 c 0
 507 332 438 399 349 399 c 2
EndSplineSet
EndChar
StartChar: multiply
Encoding: 150 215 159
Width: 511
VWidth: 1333
Flags: HW
HStem: 140 387<123 531>
VStem: 48 564<140 527>
Fore
531 140 m 1
 429 140 l 1
 317 281 l 1
 149 140 l 1
 48 140 l 1
 277 332 l 1
 123 527 l 1
 225 527 l 1
 339 383 l 1
 511 527 l 1
 612 527 l 1
 379 332 l 1
 531 140 l 1
EndSplineSet
EndChar
StartChar: copyright
Encoding: 104 169 160
Width: 789
VWidth: 1333
Flags: HW
HStem: -7 69<211 605> 132 69<360 519> 463 69<416 572> 605 69<326 720>
Fore
810 333 m 0
 770 145 583 -7 393 -7 c 0
 204 -7 82 145 122 333 c 0
 161 521 348 673 538 673 c 0
 727 673 849 521 810 333 c 0
191 333 m 0
 160 184 256 62 408 62 c 0
 560 62 708 184 740 333 c 0
 771 483 675 605 523 605 c 0
 371 605 223 483 191 333 c 0
555 275 m 1
 608 241 l 1
 581 207 519 132 421 132 c 0
 317 132 259 225 282 332 c 0
 304 440 402 532 506 532 c 0
 604 532 635 458 646 423 c 1
 579 389 l 1
 570 412 553 463 492 463 c 0
 434 463 368 408 351 332 c 0
 335 256 378 201 436 201 c 0
 500 201 539 255 555 275 c 1
EndSplineSet
EndChar
StartChar: Aacute
Encoding: 128 193 161
Width: 617
VWidth: 1287
Flags: HW
HStem: 198 69<258 475>
VStem: 11 646<1 855>
Fore
532 855 m 1
 657 855 l 1
 454 704 l 1
 373 704 l 1
 532 855 l 1
258 267 m 1
 475 267 l 1
 415 496 l 1
 258 267 l 1
212 198 m 1
 87 1 l 1
 11 1 l 1
 452 674 l 1
 607 1 l 1
 531 1 l 1
 489 198 l 1
 212 198 l 1
EndSplineSet
EndChar
StartChar: Acircumflex
Encoding: 129 194 162
Width: 617
VWidth: 1287
Flags: HW
HStem: 198 69<258 475>
VStem: 11 606<1 704>
Fore
258 267 m 1
 475 267 l 1
 415 496 l 1
 258 267 l 1
212 198 m 1
 87 1 l 1
 11 1 l 1
 452 674 l 1
 607 1 l 1
 531 1 l 1
 489 198 l 1
 212 198 l 1
469 855 m 1
 512 855 l 1
 617 704 l 1
 519 704 l 1
 472 770 l 1
 397 704 l 1
 299 704 l 1
 469 855 l 1
EndSplineSet
EndChar
StartChar: Adieresis
Encoding: 131 196 163
Width: 617
VWidth: 1287
Flags: HW
HStem: 198 69<258 475> 704 107<363 416 523 576>
VStem: 11 596<1 1>
Fore
258 267 m 5
 475 267 l 5
 415 496 l 5
 258 267 l 5
212 198 m 5
 87 1 l 5
 11 1 l 5
 452 674 l 5
 607 1 l 5
 531 1 l 5
 489 198 l 5
 212 198 l 5
401 811 m 4
 430 811 449 787 443 757 c 4
 437 728 408 704 378 704 c 4
 349 704 330 728 336 757 c 4
 343 787 372 811 401 811 c 4
561 811 m 4
 590 811 609 787 603 757 c 4
 597 728 568 704 538 704 c 4
 509 704 490 728 496 757 c 4
 503 787 532 811 561 811 c 4
EndSplineSet
EndChar
StartChar: Agrave
Encoding: 127 192 164
Width: 617
VWidth: 1287
Flags: HW
HStem: 198 69<258 475>
VStem: 11 596<1 1>
Fore
302 855 m 1
 428 855 l 1
 523 704 l 1
 441 704 l 1
 302 855 l 1
258 267 m 1
 475 267 l 1
 415 496 l 1
 258 267 l 1
212 198 m 1
 87 1 l 1
 11 1 l 1
 452 674 l 1
 607 1 l 1
 531 1 l 1
 489 198 l 1
 212 198 l 1
EndSplineSet
EndChar
StartChar: Aring
Encoding: 132 197 165
Width: 617
VWidth: 1287
Flags: HW
HStem: 198 69<258 475> 697 72<444 500> 849 72<461 517>
VStem: 11 596<1 1>
Fore
258 267 m 1
 475 267 l 1
 415 496 l 1
 258 267 l 1
212 198 m 1
 87 1 l 1
 11 1 l 1
 452 674 l 1
 607 1 l 1
 531 1 l 1
 489 198 l 1
 212 198 l 1
592 809 m 0
 579 747 519 697 457 697 c 0
 395 697 355 747 368 809 c 0
 382 871 442 921 504 921 c 0
 566 921 606 871 592 809 c 0
440 809 m 0
 436 788 450 769 472 769 c 0
 494 769 516 788 520 809 c 0
 525 831 511 849 489 849 c 0
 467 849 445 831 440 809 c 0
EndSplineSet
EndChar
StartChar: Atilde
Encoding: 130 195 166
Width: 617
VWidth: 1287
Flags: HW
HStem: 198 69<258 475> 697 120<427 515>
VStem: 11 600<1 811>
Fore
258 267 m 1
 475 267 l 1
 415 496 l 1
 258 267 l 1
212 198 m 1
 87 1 l 1
 11 1 l 1
 452 674 l 1
 607 1 l 1
 531 1 l 1
 489 198 l 1
 212 198 l 1
386 704 m 1
 329 704 l 1
 333 721 l 2
 342 756 362 817 427 817 c 0
 490 817 522 748 542 778 c 0
 544 781 547 786 549 795 c 2
 552 811 l 1
 611 811 l 1
 607 795 l 2
 592 724 557 697 515 697 c 0
 450 697 408 790 390 719 c 2
 386 704 l 1
EndSplineSet
EndChar
StartChar: Ccedilla
Encoding: 134 199 167
Width: 723
VWidth: 1286
Flags: HW
HStem: 603 70<320 701>
Fore
662 182 m 1
 711 145 l 1
 624 55 527 4 424 -5 c 1
 395 -43 l 1
 441 -60 436 -100 432 -120 c 0
 421 -171 370 -204 315 -205 c 0
 289 -205 263 -198 242 -181 c 2
 230 -173 l 1
 282 -112 l 1
 293 -121 l 2
 334 -153 398 -116 329 -104 c 2
 277 -97 l 1
 351 -4 l 1
 182 15 78 159 115 333 c 0
 155 521 343 673 535 673 c 0
 708 673 772 558 791 522 c 1
 726 481 l 1
 710 509 659 603 520 603 c 0
 366 603 217 482 185 332 c 0
 153 183 251 61 405 61 c 0
 543 61 634 154 662 182 c 1
EndSplineSet
EndChar
StartChar: Eacute
Encoding: 136 201 168
Width: 518
VWidth: 1286
Flags: HW
HStem: 0 69<149 474> 350 69<224 523> 598 69<262 603>
VStem: 64 553<0 667>
Fore
580 855 m 5
 377 704 l 5
 295 704 l 5
 454 855 l 5
 580 855 l 5
537 419 m 1
 523 350 l 1
 209 350 l 1
 149 69 l 1
 489 69 l 1
 474 0 l 1
 64 0 l 1
 206 667 l 1
 617 667 l 1
 603 598 l 1
 262 598 l 1
 224 419 l 1
 537 419 l 1
EndSplineSet
EndChar
StartChar: Ecircumflex
Encoding: 137 202 169
Width: 518
VWidth: 1286
Flags: HW
HStem: 0 69<149 474> 350 69<224 523> 598 69<262 603>
VStem: 64 553<0 667>
Fore
433 770 m 1
 358 704 l 1
 260 704 l 1
 429 855 l 1
 474 855 l 1
 579 704 l 1
 481 704 l 1
 433 770 l 1
537 419 m 1
 523 350 l 1
 209 350 l 1
 149 69 l 1
 489 69 l 1
 474 0 l 1
 64 0 l 1
 206 667 l 1
 617 667 l 1
 603 598 l 1
 262 598 l 1
 224 419 l 1
 537 419 l 1
EndSplineSet
EndChar
StartChar: Edieresis
Encoding: 138 203 170
Width: 518
VWidth: 1286
Flags: HW
HStem: 0 69<149 474> 350 69<224 523> 598 69<262 603> 704 107<324 377 484 537>
VStem: 64 553<0 667>
Fore
362 811 m 0
 391 811 410 787 404 757 c 0
 397 728 368 704 339 704 c 0
 310 704 291 728 297 757 c 0
 303 787 332 811 362 811 c 0
522 811 m 0
 551 811 570 787 564 757 c 0
 557 728 528 704 499 704 c 0
 470 704 451 728 457 757 c 0
 463 787 492 811 522 811 c 0
537 419 m 1
 523 350 l 1
 209 350 l 1
 149 69 l 1
 489 69 l 1
 474 0 l 1
 64 0 l 1
 206 667 l 1
 617 667 l 1
 603 598 l 1
 262 598 l 1
 224 419 l 1
 537 419 l 1
EndSplineSet
EndChar
StartChar: Egrave
Encoding: 135 200 171
Width: 518
VWidth: 1286
Flags: HW
HStem: 0 69<149 474> 350 69<224 523> 598 69<262 603>
VStem: 64 553<0 667>
Fore
263 855 m 5
 389 855 l 5
 484 704 l 5
 402 704 l 5
 263 855 l 5
537 419 m 1
 523 350 l 1
 209 350 l 1
 149 69 l 1
 489 69 l 1
 474 0 l 1
 64 0 l 1
 206 667 l 1
 617 667 l 1
 603 598 l 1
 262 598 l 1
 224 419 l 1
 537 419 l 1
EndSplineSet
EndChar
StartChar: Iacute
Encoding: 140 205 172
Width: 197
VWidth: 1286
Flags: HW
VStem: 64 379<0 855>
Fore
443 855 m 1
 240 704 l 1
 158 704 l 1
 317 855 l 1
 443 855 l 1
135 0 m 1
 64 0 l 1
 206 667 l 1
 276 667 l 1
 135 0 l 1
EndSplineSet
EndChar
StartChar: Icircumflex
Encoding: 141 206 173
Width: 197
VWidth: 1286
Flags: HW
VStem: 64 344<0 704>
Fore
135 0 m 1
 64 0 l 1
 206 667 l 1
 276 667 l 1
 135 0 l 1
262 770 m 1
 187 704 l 1
 89 704 l 1
 258 855 l 1
 303 855 l 1
 408 704 l 1
 310 704 l 1
 262 770 l 1
EndSplineSet
EndChar
StartChar: Idieresis
Encoding: 142 207 174
Width: 197
VWidth: 1286
Flags: HW
HStem: 704 107<153 206 313 366>
VStem: 64 329<0 757>
Fore
135 0 m 1
 64 0 l 1
 206 667 l 1
 276 667 l 1
 135 0 l 1
191 811 m 0
 220 811 239 787 233 757 c 0
 227 728 198 704 168 704 c 0
 139 704 120 728 126 757 c 0
 133 787 162 811 191 811 c 0
351 811 m 0
 380 811 399 787 393 757 c 0
 387 728 358 704 328 704 c 0
 299 704 280 728 286 757 c 0
 293 787 322 811 351 811 c 0
EndSplineSet
EndChar
StartChar: Igrave
Encoding: 139 204 175
Width: 197
VWidth: 1286
Flags: HW
VStem: 64 245<0 704>
Fore
89 855 m 1
 214 855 l 1
 309 704 l 1
 228 704 l 1
 89 855 l 1
135 0 m 1
 64 0 l 1
 206 667 l 1
 276 667 l 1
 135 0 l 1
EndSplineSet
EndChar
StartChar: Ntilde
Encoding: 144 209 176
Width: 747
VWidth: 1286
Flags: HW
HStem: 724 120<498 586>
Fore
64 0 m 1
 207 674 l 1
 649 162 l 1
 756 667 l 1
 826 667 l 1
 683 -8 l 1
 242 504 l 1
 135 0 l 1
 64 0 l 1
457 731 m 1
 400 731 l 1
 404 747 l 2
 413 783 433 844 498 844 c 0
 561 844 593 774 613 804 c 0
 615 808 618 813 620 821 c 2
 623 837 l 1
 682 837 l 1
 678 821 l 2
 663 751 628 724 586 724 c 0
 521 724 479 816 461 746 c 2
 457 731 l 1
EndSplineSet
EndChar
StartChar: Oacute
Encoding: 146 211 177
Width: 782
VWidth: 1286
Flags: HW
HStem: -6 69<205 604> 604 69<321 719>
Fore
756 855 m 1
 553 704 l 1
 471 704 l 1
 630 855 l 1
 756 855 l 1
810 333 m 0
 770 145 582 -6 390 -6 c 0
 199 -6 75 145 115 333 c 0
 155 521 343 673 535 673 c 0
 726 673 850 521 810 333 c 0
185 333 m 0
 154 184 251 62 405 62 c 0
 558 62 708 184 739 333 c 0
 771 483 673 604 520 604 c 0
 367 604 217 483 185 333 c 0
EndSplineSet
EndChar
StartChar: Ocircumflex
Encoding: 147 212 178
Width: 782
VWidth: 1286
Flags: HW
HStem: -6 69<205 604> 604 69<321 719>
Fore
810 333 m 4
 770 145 582 -6 390 -6 c 4
 199 -6 75 145 115 333 c 4
 155 521 343 673 535 673 c 4
 726 673 850 521 810 333 c 4
185 333 m 4
 154 184 251 62 405 62 c 4
 558 62 708 184 739 333 c 4
 771 483 673 604 520 604 c 4
 367 604 217 483 185 333 c 4
554 770 m 1
 479 704 l 1
 381 704 l 1
 551 855 l 1
 595 855 l 1
 700 704 l 1
 603 704 l 1
 554 770 l 1
EndSplineSet
EndChar
StartChar: Odieresis
Encoding: 149 214 179
Width: 782
VWidth: 1286
Flags: HW
HStem: -6 69<205 604> 604 69<321 719> 704 107<446 499 606 659>
Fore
810 333 m 0
 770 145 582 -6 390 -6 c 0
 199 -6 75 145 115 333 c 0
 155 521 343 673 535 673 c 0
 726 673 850 521 810 333 c 0
185 333 m 0
 154 184 251 62 405 62 c 0
 558 62 708 184 739 333 c 0
 771 483 673 604 520 604 c 0
 367 604 217 483 185 333 c 0
484 811 m 0
 513 811 532 787 526 757 c 0
 519 728 490 704 461 704 c 0
 432 704 413 728 419 757 c 0
 425 787 454 811 484 811 c 0
644 811 m 0
 673 811 692 787 686 757 c 0
 679 728 650 704 621 704 c 0
 592 704 573 728 579 757 c 0
 585 787 614 811 644 811 c 0
EndSplineSet
EndChar
StartChar: Ograve
Encoding: 145 210 180
Width: 782
VWidth: 1286
Flags: HW
HStem: -6 69<205 604> 604 69<321 719>
Fore
361 855 m 5
 486 855 l 5
 581 704 l 5
 500 704 l 5
 361 855 l 5
810 333 m 0
 770 145 582 -6 390 -6 c 0
 199 -6 75 145 115 333 c 0
 155 521 343 673 535 673 c 0
 726 673 850 521 810 333 c 0
185 333 m 0
 154 184 251 62 405 62 c 0
 558 62 708 184 739 333 c 0
 771 483 673 604 520 604 c 0
 367 604 217 483 185 333 c 0
EndSplineSet
EndChar
StartChar: Otilde
Encoding: 148 213 181
Width: 782
VWidth: 1286
Flags: HW
HStem: -6 69<205 604> 604 69<321 719> 724 120<515 603>
Fore
810 333 m 0
 770 145 582 -6 390 -6 c 0
 199 -6 75 145 115 333 c 0
 155 521 343 673 535 673 c 0
 726 673 850 521 810 333 c 0
185 333 m 0
 154 184 251 62 405 62 c 0
 558 62 708 184 739 333 c 0
 771 483 673 604 520 604 c 0
 367 604 217 483 185 333 c 0
474 731 m 1
 417 731 l 1
 421 747 l 2
 430 783 450 844 515 844 c 0
 578 844 610 774 630 804 c 0
 633 808 635 813 637 821 c 2
 640 837 l 1
 699 837 l 1
 696 821 l 2
 681 751 645 724 603 724 c 0
 539 724 496 816 478 746 c 2
 474 731 l 1
EndSplineSet
EndChar
StartChar: Scaron
Encoding: 195 352 182
Width: 529
VWidth: 1286
Flags: HW
HStem: -8 70<189 379> 604 70<316 454>
VStem: 87 515<194 841>
Fore
563 530 m 1
 492 507 l 1
 490 522 l 2
 482 578 440 604 394 604 c 0
 334 604 287 561 276 510 c 0
 248 379 575 417 528 198 c 0
 502 75 377 -8 263 -8 c 0
 164 -8 77 53 87 194 c 2
 88 209 l 1
 161 218 l 1
 160 203 l 2
 153 103 209 62 277 62 c 0
 355 62 440 115 458 200 c 0
 493 363 164 316 206 511 c 0
 224 598 308 674 409 674 c 0
 482 674 549 630 561 544 c 2
 563 530 l 1
433 691 m 1
 390 691 l 1
 285 841 l 1
 382 841 l 1
 430 776 l 1
 505 841 l 1
 602 841 l 1
 433 691 l 1
EndSplineSet
EndChar
StartChar: Uacute
Encoding: 153 218 183
Width: 623
VWidth: 1286
Flags: HW
HStem: -7 69<204 450>
VStem: 119 584<257 667>
Fore
554 855 m 5
 680 855 l 5
 477 704 l 5
 395 704 l 5
 554 855 l 5
206 667 m 1
 276 667 l 1
 189 257 l 2
 166 146 232 62 327 62 c 0
 421 62 521 146 545 257 c 2
 632 667 l 1
 702 667 l 1
 615 257 l 2
 585 113 450 -7 311 -7 c 0
 172 -7 88 113 119 257 c 2
 206 667 l 1
EndSplineSet
EndChar
StartChar: Ucircumflex
Encoding: 154 219 184
Width: 623
VWidth: 1286
Flags: HW
HStem: -7 69<204 450>
VStem: 119 584<257 667>
Fore
206 667 m 1
 276 667 l 1
 189 257 l 2
 166 146 232 62 327 62 c 0
 421 62 521 146 545 257 c 2
 632 667 l 1
 702 667 l 1
 615 257 l 2
 585 113 450 -7 311 -7 c 0
 172 -7 88 113 119 257 c 2
 206 667 l 1
621 704 m 1
 522 704 l 1
 475 770 l 1
 400 704 l 1
 302 704 l 1
 471 855 l 1
 516 855 l 1
 621 704 l 1
EndSplineSet
EndChar
StartChar: Udieresis
Encoding: 155 220 185
Width: 623
VWidth: 1286
Flags: HW
HStem: -7 69<204 450> 704 107<366 420 526 580>
VStem: 119 584<257 667>
Fore
206 667 m 1
 276 667 l 1
 189 257 l 2
 166 146 232 62 327 62 c 0
 421 62 521 146 545 257 c 2
 632 667 l 1
 702 667 l 1
 615 257 l 2
 585 113 450 -7 311 -7 c 0
 172 -7 88 113 119 257 c 2
 206 667 l 1
404 811 m 0
 434 811 453 787 446 757 c 0
 440 728 411 704 382 704 c 0
 352 704 333 728 340 757 c 0
 346 787 375 811 404 811 c 0
564 811 m 0
 594 811 613 787 606 757 c 0
 600 728 571 704 542 704 c 0
 512 704 493 728 500 757 c 0
 506 787 535 811 564 811 c 0
EndSplineSet
EndChar
StartChar: Ugrave
Encoding: 152 217 186
Width: 623
VWidth: 1286
Flags: HW
HStem: -7 69<204 450>
VStem: 119 584<257 667>
Fore
286 855 m 5
 412 855 l 5
 507 704 l 5
 425 704 l 5
 286 855 l 5
206 667 m 1
 276 667 l 1
 189 257 l 2
 166 146 232 62 327 62 c 0
 421 62 521 146 545 257 c 2
 632 667 l 1
 702 667 l 1
 615 257 l 2
 585 113 450 -7 311 -7 c 0
 172 -7 88 113 119 257 c 2
 206 667 l 1
EndSplineSet
EndChar
StartChar: Yacute
Encoding: 156 221 187
Width: 583
VWidth: 1286
Flags: HW
VStem: 152 564<667 667>
Fore
529 855 m 1
 655 855 l 1
 452 704 l 1
 370 704 l 1
 529 855 l 1
152 667 m 1
 235 667 l 1
 369 359 l 1
 633 667 l 1
 716 667 l 1
 389 286 l 1
 328 0 l 1
 257 0 l 1
 318 286 l 1
 152 667 l 1
EndSplineSet
EndChar
StartChar: Ydieresis
Encoding: 197 376 188
Width: 583
VWidth: 1286
Flags: HW
HStem: 704 107<346 400 506 560>
VStem: 152 564<667 667>
Fore
152 667 m 1
 235 667 l 1
 369 359 l 1
 633 667 l 1
 716 667 l 1
 389 286 l 1
 328 0 l 1
 257 0 l 1
 318 286 l 1
 152 667 l 1
384 811 m 0
 414 811 433 787 426 757 c 0
 420 728 391 704 362 704 c 0
 332 704 313 728 320 757 c 0
 326 787 355 811 384 811 c 0
544 811 m 0
 574 811 593 787 586 757 c 0
 580 728 551 704 522 704 c 0
 492 704 473 728 480 757 c 0
 486 787 515 811 544 811 c 0
EndSplineSet
EndChar
StartChar: Zcaron
Encoding: 198 381 189
Width: 559
VWidth: 1286
Flags: HW
HStem: 0 69<157 527> 598 69<213 544>
Fore
213 667 m 1
 690 667 l 1
 157 69 l 1
 565 69 l 1
 527 0 l 1
 11 0 l 1
 544 598 l 1
 175 598 l 1
 213 667 l 1
449 691 m 1
 405 691 l 1
 300 841 l 1
 398 841 l 1
 445 776 l 1
 520 841 l 1
 618 841 l 1
 449 691 l 1
EndSplineSet
EndChar
StartChar: aacute
Encoding: 160 225 190
Width: 489
VWidth: 1261
Flags: HW
HStem: -8 67<133 279> 215 58<277 412> 394 67<234 389> 640 27G<402 528>
VStem: 73 455<124 667>
Fore
402 667 m 5
 528 667 l 5
 325 516 l 5
 243 516 l 5
 402 667 l 5
446 0 m 1
 368 0 l 1
 363 18 363 45 368 62 c 1
 321 23 261 -8 201 -8 c 0
 92 -8 61 65 73 124 c 0
 104 272 311 273 412 273 c 1
 420 351 373 394 319 394 c 0
 254 394 209 341 196 327 c 1
 147 363 l 1
 166 385 233 461 333 461 c 0
 429 461 505 387 480 258 c 2
 449 108 l 2
 440 68 439 22 446 0 c 1
215 60 m 0
 277 60 349 107 388 155 c 1
 401 215 l 1
 291 213 160 201 144 124 c 0
 138 99 152 60 215 60 c 0
EndSplineSet
EndChar
StartChar: acircumflex
Encoding: 161 226 191
Width: 489
VWidth: 1261
Flags: HW
HStem: -8 67<133 279> 215 58<277 412> 394 67<234 389> 640 27G<355 398>
VStem: 73 430<124 516>
Fore
355 667 m 1
 398 667 l 1
 503 516 l 1
 405 516 l 1
 358 582 l 1
 283 516 l 1
 185 516 l 1
 355 667 l 1
446 0 m 1
 368 0 l 1
 363 18 363 45 368 62 c 1
 321 23 261 -8 201 -8 c 0
 92 -8 61 65 73 124 c 0
 104 272 311 273 412 273 c 1
 420 351 373 394 319 394 c 0
 254 394 209 341 196 327 c 1
 147 363 l 1
 166 385 233 461 333 461 c 0
 429 461 505 387 480 258 c 2
 449 108 l 2
 440 68 439 22 446 0 c 1
215 60 m 0
 277 60 349 107 388 155 c 1
 401 215 l 1
 291 213 160 201 144 124 c 0
 138 99 152 60 215 60 c 0
EndSplineSet
EndChar
StartChar: adieresis
Encoding: 163 228 192
Width: 489
VWidth: 1261
Flags: HW
HStem: -8 67<133 279> 215 58<277 412> 394 67<234 389> 517 107<248 301 408 461>
VStem: 73 415<124 571>
Fore
286 624 m 0
 315 624 334 600 328 571 c 0
 322 541 293 517 263 517 c 0
 234 517 215 541 221 571 c 0
 228 600 257 624 286 624 c 0
446 624 m 0
 475 624 494 600 488 571 c 0
 482 541 453 517 423 517 c 0
 394 517 375 541 381 571 c 0
 388 600 417 624 446 624 c 0
446 0 m 1
 368 0 l 1
 363 18 363 45 368 62 c 1
 321 23 261 -8 201 -8 c 0
 92 -8 61 65 73 124 c 0
 104 272 311 273 412 273 c 1
 420 351 373 394 319 394 c 0
 254 394 209 341 196 327 c 1
 147 363 l 1
 166 385 233 461 333 461 c 0
 429 461 505 387 480 258 c 2
 449 108 l 2
 440 68 439 22 446 0 c 1
215 60 m 0
 277 60 349 107 388 155 c 1
 401 215 l 1
 291 213 160 201 144 124 c 0
 138 99 152 60 215 60 c 0
EndSplineSet
EndChar
StartChar: agrave
Encoding: 159 224 193
Width: 489
VWidth: 1261
Flags: HW
HStem: -8 67<133 279> 215 58<277 412> 394 67<234 389> 640 27G<175 301>
VStem: 73 407<124 258>
Fore
175 667 m 1
 301 667 l 1
 396 516 l 1
 314 516 l 1
 175 667 l 1
446 0 m 1
 368 0 l 1
 363 18 363 45 368 62 c 1
 321 23 261 -8 201 -8 c 0
 92 -8 61 65 73 124 c 0
 104 272 311 273 412 273 c 1
 420 351 373 394 319 394 c 0
 254 394 209 341 196 327 c 1
 147 363 l 1
 166 385 233 461 333 461 c 0
 429 461 505 387 480 258 c 2
 449 108 l 2
 440 68 439 22 446 0 c 1
215 60 m 0
 277 60 349 107 388 155 c 1
 401 215 l 1
 291 213 160 201 144 124 c 0
 138 99 152 60 215 60 c 0
EndSplineSet
EndChar
StartChar: aring
Encoding: 164 229 194
Width: 489
VWidth: 1261
Flags: HW
HStem: -8 67<133 279> 215 58<277 412> 394 67<234 389> 511 72<330 387> 663 72<347 404>
VStem: 73 407<124 258>
Fore
479 623 m 0
 466 561 405 511 343 511 c 0
 281 511 242 561 255 623 c 0
 268 685 329 735 391 735 c 0
 453 735 492 685 479 623 c 0
327 623 m 0
 322 601 337 583 359 583 c 0
 380 583 402 601 407 623 c 0
 412 644 397 663 376 663 c 0
 354 663 332 644 327 623 c 0
446 0 m 1
 368 0 l 1
 363 18 363 45 368 62 c 1
 321 23 261 -8 201 -8 c 0
 92 -8 61 65 73 124 c 0
 104 272 311 273 412 273 c 1
 420 351 373 394 319 394 c 0
 254 394 209 341 196 327 c 1
 147 363 l 1
 166 385 233 461 333 461 c 0
 429 461 505 387 480 258 c 2
 449 108 l 2
 440 68 439 22 446 0 c 1
215 60 m 0
 277 60 349 107 388 155 c 1
 401 215 l 1
 291 213 160 201 144 124 c 0
 138 99 152 60 215 60 c 0
EndSplineSet
EndChar
StartChar: atilde
Encoding: 162 227 195
Width: 489
VWidth: 1261
Flags: HW
HStem: -8 67<133 279> 215 58<277 412> 394 67<234 389> 583 47<314 419>
VStem: 73 424<124 620>
Fore
220 533 m 2
 237 615 284 629 314 629 c 0
 363 629 396 584 419 583 c 2
 419 583 412 582 420 583 c 0
 425 583 432 586 436 604 c 2
 440 620 l 1
 497 620 l 1
 494 604 l 2
 479 535 445 509 404 509 c 0
 338 509 296 602 279 533 c 2
 275 517 l 1
 217 517 l 1
 220 533 l 2
446 0 m 1
 368 0 l 1
 363 18 363 45 368 62 c 1
 321 23 261 -8 201 -8 c 0
 92 -8 61 65 73 124 c 0
 104 272 311 273 412 273 c 1
 420 351 373 394 319 394 c 0
 254 394 209 341 196 327 c 1
 147 363 l 1
 166 385 233 461 333 461 c 0
 429 461 505 387 480 258 c 2
 449 108 l 2
 440 68 439 22 446 0 c 1
215 60 m 0
 277 60 349 107 388 155 c 1
 401 215 l 1
 291 213 160 201 144 124 c 0
 138 99 152 60 215 60 c 0
EndSplineSet
EndChar
StartChar: ccedilla
Encoding: 166 231 196
Width: 498
VWidth: 1261
Flags: HW
HStem: -180 62<185 236> 391 69<243 449>
VStem: 92 435<227 336>
Fore
427 151 m 1
 481 118 l 1
 456 86 393 12 297 -4 c 1
 287 -18 l 1
 333 -35 328 -74 324 -95 c 0
 313 -146 262 -180 207 -180 c 0
 181 -180 156 -172 134 -156 c 2
 123 -147 l 1
 171 -100 l 1
 183 -109 l 2
 191 -115 200 -118 209 -118 c 0
 230 -118 250 -104 253 -90 c 0
 255 -80 247 -69 224 -65 c 2
 183 -58 l 1
 224 -3 l 1
 123 16 68 114 92 227 c 0
 119 352 236 460 360 460 c 0
 483 460 518 361 527 336 c 1
 459 302 l 1
 449 329 425 391 345 391 c 0
 266 391 182 322 162 228 c 0
 142 134 197 62 275 62 c 0
 359 62 412 132 427 151 c 1
EndSplineSet
EndChar
StartChar: eacute
Encoding: 168 233 197
Width: 529
VWidth: 1261
Flags: HW
HStem: -6 69<179 321> 212 66<182 465> 392 67<265 430> 641 27G<448 574>
VStem: 92 481<227 668>
Fore
448 668 m 5
 574 668 l 5
 371 517 l 5
 289 517 l 5
 448 668 l 5
182 278 m 1
 465 278 l 1
 459 346 411 392 347 392 c 0
 284 392 216 346 182 278 c 1
159 212 m 1
 147 125 201 62 275 62 c 0
 333 62 392 92 440 151 c 1
 494 118 l 1
 409 10 307 -6 261 -6 c 0
 137 -6 66 101 92 227 c 0
 119 352 237 460 361 460 c 0
 479 460 550 363 535 246 c 2
 530 212 l 1
 159 212 l 1
EndSplineSet
EndChar
StartChar: ecircumflex
Encoding: 169 234 198
Width: 529
VWidth: 1261
Flags: HW
HStem: -6 69<179 321> 212 66<182 465> 392 67<265 430> 641 27G<385 428>
VStem: 92 443<218 251 227 246>
Fore
182 278 m 1
 465 278 l 1
 459 346 411 392 347 392 c 0
 284 392 216 346 182 278 c 1
159 212 m 1
 147 125 201 62 275 62 c 0
 333 62 392 92 440 151 c 1
 494 118 l 1
 409 10 307 -6 261 -6 c 0
 137 -6 66 101 92 227 c 0
 119 352 237 460 361 460 c 0
 479 460 550 363 535 246 c 2
 530 212 l 1
 159 212 l 1
385 668 m 1
 428 668 l 1
 533 517 l 1
 436 517 l 1
 389 583 l 1
 314 517 l 1
 216 517 l 1
 385 668 l 1
EndSplineSet
EndChar
StartChar: edieresis
Encoding: 170 235 199
Width: 529
VWidth: 1261
Flags: HW
HStem: -6 69<179 321> 212 66<182 465> 392 67<265 430> 517 107<279 333 439 493>
VStem: 92 443<218 251 227 246>
Fore
182 278 m 5
 465 278 l 5
 459 346 411 392 347 392 c 4
 284 392 216 346 182 278 c 5
159 212 m 5
 147 125 201 62 275 62 c 4
 333 62 392 92 440 151 c 5
 494 118 l 5
 409 10 307 -6 261 -6 c 4
 137 -6 66 101 92 227 c 4
 119 352 237 460 361 460 c 4
 479 460 550 363 535 246 c 6
 530 212 l 5
 159 212 l 5
317 624 m 0
 347 624 366 600 359 571 c 0
 353 541 324 517 295 517 c 0
 265 517 246 541 253 571 c 0
 259 600 288 624 317 624 c 0
477 624 m 0
 507 624 526 600 519 571 c 0
 513 541 484 517 455 517 c 0
 425 517 406 541 413 571 c 0
 419 600 448 624 477 624 c 0
EndSplineSet
EndChar
StartChar: egrave
Encoding: 167 232 200
Width: 529
VWidth: 1261
Flags: HW
HStem: -6 69<179 321> 212 66<182 465> 392 67<265 430> 641 27G<177 303>
VStem: 92 443<218 251 227 246>
Fore
177 668 m 5
 303 668 l 5
 398 517 l 5
 316 517 l 5
 177 668 l 5
182 278 m 1
 465 278 l 1
 459 346 411 392 347 392 c 0
 284 392 216 346 182 278 c 1
159 212 m 1
 147 125 201 62 275 62 c 0
 333 62 392 92 440 151 c 1
 494 118 l 1
 409 10 307 -6 261 -6 c 0
 137 -6 66 101 92 227 c 0
 119 352 237 460 361 460 c 0
 479 460 550 363 535 246 c 2
 530 212 l 1
 159 212 l 1
EndSplineSet
EndChar
StartChar: iacute
Encoding: 172 237 201
Width: 195
VWidth: 1265
Flags: HW
HStem: 641 27G<271 395>
VStem: 63 332<0 668>
Fore
271 668 m 5
 395 668 l 5
 192 517 l 5
 110 517 l 5
 271 668 l 5
134 0 m 1
 63 0 l 1
 160 453 l 1
 230 453 l 1
 134 0 l 1
EndSplineSet
EndChar
StartChar: icircumflex
Encoding: 173 238 202
Width: 195
VWidth: 1265
Flags: HW
HStem: 641 27G<218 262>
VStem: 49 318<517 517>
Fore
134 0 m 5
 63 0 l 5
 160 453 l 5
 230 453 l 5
 134 0 l 5
218 668 m 1
 262 668 l 1
 367 517 l 1
 269 517 l 1
 222 583 l 1
 147 517 l 1
 49 517 l 1
 218 668 l 1
EndSplineSet
EndChar
StartChar: idieresis
Encoding: 174 239 203
Width: 195
VWidth: 1265
Flags: HW
HStem: 517 107<113 166 273 326>
VStem: 63 289<0 571>
Fore
134 0 m 1
 63 0 l 1
 160 453 l 1
 230 453 l 1
 134 0 l 1
151 624 m 0
 180 624 199 600 193 571 c 0
 186 541 157 517 128 517 c 0
 99 517 80 541 86 571 c 0
 92 600 121 624 151 624 c 0
311 624 m 0
 340 624 359 600 353 571 c 0
 346 541 317 517 288 517 c 0
 259 517 240 541 246 571 c 0
 252 600 281 624 311 624 c 0
EndSplineSet
EndChar
StartChar: igrave
Encoding: 171 236 204
Width: 195
VWidth: 1265
Flags: HW
HStem: 641 27G<45 171>
VStem: 45 221<517 668>
Fore
45 668 m 5
 171 668 l 5
 266 517 l 5
 184 517 l 5
 45 668 l 5
134 0 m 1
 63 0 l 1
 160 453 l 1
 230 453 l 1
 134 0 l 1
EndSplineSet
EndChar
StartChar: ntilde
Encoding: 176 241 205
Width: 482
VWidth: 1261
Flags: HW
HStem: 393 67<302 435> 559 71<294 333>
VStem: 63 440<0 623>
Fore
218 454 m 1
 222 422 222 412 212 366 c 1
 253 413 317 460 366 460 c 0
 471 460 498 372 478 277 c 2
 419 0 l 1
 348 0 l 1
 407 277 l 2
 418 326 416 393 351 393 c 0
 289 393 194 282 182 227 c 2
 134 0 l 1
 63 0 l 1
 132 320 l 2
 140 361 147 432 140 454 c 1
 218 454 l 1
225 533 m 2
 243 615 290 629 319 629 c 0
 368 629 404 583 425 583 c 0
 428 583 438 588 443 608 c 2
 446 623 l 1
 503 623 l 1
 499 604 l 2
 484 535 450 509 410 509 c 0
 361 509 326 559 304 559 c 0
 295 559 289 552 284 533 c 2
 281 517 l 1
 222 517 l 1
 225 533 l 2
EndSplineSet
EndChar
StartChar: oacute
Encoding: 178 243 206
Width: 573
VWidth: 1261
Flags: HW
HStem: -6 67<177 426> 392 67<247 496> 641 27G<448 574>
VStem: 92 486<202 251 227 227>
Fore
448 668 m 5
 574 668 l 5
 371 517 l 5
 289 517 l 5
 448 668 l 5
578 227 m 0
 551 98 420 -6 286 -6 c 0
 152 -6 65 98 92 227 c 0
 120 356 251 460 385 460 c 0
 519 460 606 356 578 227 c 0
163 227 m 0
 143 135 205 61 301 61 c 0
 397 61 491 135 510 227 c 0
 530 318 468 392 372 392 c 0
 276 392 182 318 163 227 c 0
EndSplineSet
EndChar
StartChar: ocircumflex
Encoding: 179 244 207
Width: 573
VWidth: 1261
Flags: HW
HStem: -6 67<177 426> 392 67<247 496> 641 27G<407 450>
VStem: 92 486<202 251 227 227>
Fore
578 227 m 0
 551 98 420 -6 286 -6 c 0
 152 -6 65 98 92 227 c 0
 120 356 251 460 385 460 c 0
 519 460 606 356 578 227 c 0
163 227 m 0
 143 135 205 61 301 61 c 0
 397 61 491 135 510 227 c 0
 530 318 468 392 372 392 c 0
 276 392 182 318 163 227 c 0
407 668 m 1
 450 668 l 1
 555 517 l 1
 458 517 l 1
 411 583 l 1
 336 517 l 1
 238 517 l 1
 407 668 l 1
EndSplineSet
EndChar
StartChar: odieresis
Encoding: 181 246 208
Width: 573
VWidth: 1261
Flags: HW
HStem: -6 67<177 426> 392 67<247 496> 517 107<301 355 461 515>
VStem: 92 486<202 251 227 227>
Fore
578 227 m 0
 551 98 420 -6 286 -6 c 0
 152 -6 65 98 92 227 c 0
 120 356 251 460 385 460 c 0
 519 460 606 356 578 227 c 0
163 227 m 0
 143 135 205 61 301 61 c 0
 397 61 491 135 510 227 c 0
 530 318 468 392 372 392 c 0
 276 392 182 318 163 227 c 0
339 624 m 0
 369 624 388 600 381 571 c 0
 375 541 346 517 317 517 c 0
 287 517 268 541 275 571 c 0
 281 600 310 624 339 624 c 0
499 624 m 0
 529 624 548 600 541 571 c 0
 535 541 506 517 477 517 c 0
 447 517 428 541 435 571 c 0
 441 600 470 624 499 624 c 0
EndSplineSet
EndChar
StartChar: ograve
Encoding: 177 242 209
Width: 573
VWidth: 1261
Flags: HW
HStem: -6 67<177 426> 392 67<247 496> 641 27G<236 361>
VStem: 92 486<202 251 227 227>
Fore
236 668 m 5
 361 668 l 5
 456 517 l 5
 375 517 l 5
 236 668 l 5
578 227 m 0
 551 98 420 -6 286 -6 c 0
 152 -6 65 98 92 227 c 0
 120 356 251 460 385 460 c 0
 519 460 606 356 578 227 c 0
163 227 m 0
 143 135 205 61 301 61 c 0
 397 61 491 135 510 227 c 0
 530 318 468 392 372 392 c 0
 276 392 182 318 163 227 c 0
EndSplineSet
EndChar
StartChar: otilde
Encoding: 180 245 210
Width: 573
VWidth: 1261
Flags: HW
HStem: -6 67<177 426> 392 67<247 496> 559 71<340 378>
VStem: 92 486<202 251 227 227>
Fore
578 227 m 0
 551 98 420 -6 286 -6 c 0
 152 -6 65 98 92 227 c 0
 120 356 251 460 385 460 c 0
 519 460 606 356 578 227 c 0
163 227 m 0
 143 135 205 61 301 61 c 0
 397 61 491 135 510 227 c 0
 530 318 468 392 372 392 c 0
 276 392 182 318 163 227 c 0
271 533 m 2
 288 615 335 629 364 629 c 0
 413 629 449 583 470 583 c 0
 473 583 484 588 488 608 c 2
 491 623 l 1
 548 623 l 1
 544 604 l 2
 530 535 495 509 455 509 c 0
 407 509 371 559 349 559 c 0
 341 559 334 552 329 533 c 2
 326 517 l 1
 267 517 l 1
 271 533 l 2
EndSplineSet
EndChar
StartChar: scaron
Encoding: 196 353 211
Width: 405
VWidth: 1261
Flags: HW
HStem: -8 67<164 274> 394 67<248 320>
Fore
414 355 m 1
 343 332 l 1
 341 347 l 2
 336 380 313 394 288 394 c 0
 257 394 230 374 224 344 c 0
 208 272 423 287 391 138 c 0
 373 51 284 -8 200 -8 c 0
 130 -8 67 36 74 134 c 2
 76 149 l 1
 148 157 l 1
 147 143 l 2
 142 83 176 60 215 60 c 0
 261 60 311 90 321 138 c 0
 341 235 123 208 152 344 c 0
 167 418 237 461 301 461 c 0
 344 461 402 440 412 369 c 2
 414 355 l 1
326 477 m 1
 282 477 l 1
 177 628 l 1
 275 628 l 1
 322 562 l 1
 397 628 l 1
 495 628 l 1
 326 477 l 1
EndSplineSet
EndChar
StartChar: uacute
Encoding: 185 250 212
Width: 479
VWidth: 1259
Flags: HW
HStem: -7 67<178 326> 641 27G<424 550>
VStem: 102 448<177 668>
Fore
424 668 m 5
 550 668 l 5
 347 517 l 5
 265 517 l 5
 424 668 l 5
160 453 m 1
 231 453 l 1
 172 177 l 2
 158 110 195 61 252 61 c 0
 309 61 370 110 384 177 c 2
 443 453 l 1
 513 453 l 1
 454 177 l 2
 433 77 339 -7 239 -7 c 0
 139 -7 80 77 102 177 c 2
 160 453 l 1
EndSplineSet
EndChar
StartChar: ucircumflex
Encoding: 186 251 213
Width: 479
VWidth: 1259
Flags: HW
HStem: -7 67<178 326> 641 27G<360 404>
VStem: 102 412<177 453>
Fore
160 453 m 1
 231 453 l 1
 172 177 l 2
 158 110 195 61 252 61 c 0
 309 61 370 110 384 177 c 2
 443 453 l 1
 513 453 l 1
 454 177 l 2
 433 77 339 -7 239 -7 c 0
 139 -7 80 77 102 177 c 2
 160 453 l 1
360 668 m 1
 404 668 l 1
 509 517 l 1
 411 517 l 1
 364 583 l 1
 289 517 l 1
 191 517 l 1
 360 668 l 1
EndSplineSet
EndChar
StartChar: udieresis
Encoding: 187 252 214
Width: 479
VWidth: 1259
Flags: HW
HStem: -7 67<178 326> 517 107<255 308 415 468>
VStem: 102 412<177 453>
Fore
160 453 m 1
 231 453 l 1
 172 177 l 2
 158 110 195 61 252 61 c 0
 309 61 370 110 384 177 c 2
 443 453 l 1
 513 453 l 1
 454 177 l 2
 433 77 339 -7 239 -7 c 0
 139 -7 80 77 102 177 c 2
 160 453 l 1
293 624 m 0
 322 624 341 600 335 571 c 0
 328 541 299 517 270 517 c 0
 241 517 222 541 228 571 c 0
 234 600 263 624 293 624 c 0
453 624 m 0
 482 624 501 600 495 571 c 0
 488 541 459 517 430 517 c 0
 401 517 382 541 388 571 c 0
 394 600 423 624 453 624 c 0
EndSplineSet
EndChar
StartChar: ugrave
Encoding: 184 249 215
Width: 479
VWidth: 1259
Flags: HW
HStem: -7 67<178 326> 641 27G<194 320>
VStem: 102 412<177 453>
Fore
194 668 m 5
 320 668 l 5
 415 517 l 5
 333 517 l 5
 194 668 l 5
160 453 m 1
 231 453 l 1
 172 177 l 2
 158 110 195 61 252 61 c 0
 309 61 370 110 384 177 c 2
 443 453 l 1
 513 453 l 1
 454 177 l 2
 433 77 339 -7 239 -7 c 0
 139 -7 80 77 102 177 c 2
 160 453 l 1
EndSplineSet
EndChar
StartChar: yacute
Encoding: 188 253 216
Width: 450
VWidth: 1253
Flags: HW
HStem: 641 27G<408 534>
VStem: 52 485<-218 454>
Fore
408 668 m 5
 534 668 l 5
 331 517 l 5
 249 517 l 5
 408 668 l 5
107 454 m 1
 181 454 l 1
 249 107 l 1
 462 454 l 1
 537 454 l 1
 127 -218 l 1
 52 -218 l 1
 194 14 l 1
 107 454 l 1
EndSplineSet
EndChar
StartChar: ydieresis
Encoding: 190 255 217
Width: 450
VWidth: 1253
Flags: HW
HStem: 524 107<241 295 401 455>
VStem: 52 485<-218 454>
Fore
107 454 m 1
 181 454 l 1
 249 107 l 1
 462 454 l 1
 537 454 l 1
 127 -218 l 1
 52 -218 l 1
 194 14 l 1
 107 454 l 1
279 631 m 0
 309 631 328 607 321 577 c 0
 315 548 286 524 257 524 c 0
 227 524 208 548 215 577 c 0
 221 607 250 631 279 631 c 0
439 631 m 0
 469 631 488 607 481 577 c 0
 475 548 446 524 417 524 c 0
 387 524 368 548 375 577 c 0
 381 607 410 631 439 631 c 0
EndSplineSet
EndChar
StartChar: zcaron
Encoding: 199 382 218
Width: 438
VWidth: 1261
Flags: HW
HStem: 0 67<160 396> 386 67<180 378>
VStem: 11 515<0 454>
Fore
180 454 m 1
 525 454 l 1
 160 67 l 1
 434 67 l 1
 396 0 l 1
 11 0 l 1
 378 386 l 1
 142 386 l 1
 180 454 l 1
343 477 m 1
 299 477 l 1
 194 628 l 1
 292 628 l 1
 339 562 l 1
 414 628 l 1
 512 628 l 1
 343 477 l 1
EndSplineSet
EndChar
StartChar: uni00AD
Encoding: 108 173 220
Width: 487
VWidth: 1333
Flags: HW
HStem: 191 72<106 478>
VStem: 91 402<191 263>
Fore
493 263 m 1
 478 191 l 1
 91 191 l 1
 106 263 l 1
 493 263 l 1
EndSplineSet
EndChar
StartChar: uni00B2
Encoding: 113 178 221
Width: 350
VWidth: 1333
Flags: HW
HStem: 396 73<200 418> 808 72<305 407>
VStem: 100 388<396 720>
Fore
418 396 m 1
 100 396 l 1
 108 432 l 2
 142 593 392 623 413 719 c 0
 424 771 395 808 356 808 c 0
 317 808 272 771 261 719 c 2
 257 703 l 1
 185 703 l 1
 189 719 l 2
 207 805 288 880 372 880 c 0
 457 880 506 806 488 720 c 0
 459 586 262 552 200 469 c 1
 433 469 l 1
 418 396 l 1
EndSplineSet
EndChar
StartChar: uni00B3
Encoding: 114 179 222
Width: 350
VWidth: 1333
Flags: HW
HStem: 391 71<211 334> 632 72<308 355> 807 72<305 387>
VStem: 134 326<547 752>
Fore
275 736 m 1
 203 736 l 1
 207 752 l 2
 221 822 290 879 360 879 c 0
 430 879 475 822 460 752 c 0
 453 721 435 692 410 670 c 1
 441 642 456 597 446 547 c 0
 427 461 343 391 256 391 c 0
 170 391 115 461 134 547 c 2
 137 563 l 1
 209 563 l 1
 206 547 l 2
 195 499 226 461 273 461 c 0
 320 461 366 499 376 547 c 0
 386 594 356 632 309 632 c 2
 293 632 l 1
 308 704 l 1
 324 704 l 2
 355 704 384 723 390 752 c 0
 397 782 377 807 346 807 c 0
 315 807 285 782 279 752 c 2
 275 736 l 1
EndSplineSet
EndChar
StartChar: uni00B5
Encoding: 116 181 223
Width: 475
VWidth: 1333
Flags: HW
HStem: -6 69<185 324>
VStem: 39 471<-118 453>
Fore
160 453 m 1
 230 453 l 1
 172 181 l 2
 158 113 195 63 251 63 c 0
 307 63 367 113 382 181 c 2
 440 453 l 1
 510 453 l 1
 452 181 l 2
 430 80 336 -6 237 -6 c 0
 197 -6 164 8 140 31 c 1
 109 -117 l 2
 104 -140 105 -162 111 -180 c 2
 115 -193 l 1
 47 -225 l 1
 43 -212 l 2
 33 -184 32 -152 39 -118 c 2
 160 453 l 1
EndSplineSet
EndChar
StartChar: uni00B9
Encoding: 120 185 224
Width: 350
VWidth: 1333
Flags: HW
HStem: 397 494<326 431>
VStem: 255 176<397 892>
Fore
331 755 m 1
 284 727 l 1
 256 787 l 1
 431 892 l 1
 326 397 l 1
 255 397 l 1
 331 755 l 1
EndSplineSet
EndChar
StartChar: uni0E01
Encoding: 209 3585 225
Width: 529
VWidth: 1273
Flags: HW
HStem: 472 68<293 448>
VStem: 64 474<0 337>
Fore
203 385 m 1
 269 342 l 1
 244 332 200 306 187 248 c 2
 135 0 l 1
 64 0 l 1
 117 248 l 2
 123 279 147 310 174 332 c 1
 122 362 l 1
 190 512 311 540 371 540 c 0
 487 540 562 449 538 337 c 2
 466 0 l 1
 396 0 l 1
 468 337 l 2
 486 423 427 472 356 472 c 0
 303 472 240 446 203 385 c 1
EndSplineSet
EndChar
StartChar: uni0E02
Encoding: 210 3586 226
Width: 549
VWidth: 1273
Flags: HW
HStem: -7 68<187 389> 283 68<195 293> 465 68<280 319>
VStem: 106 492<196 533>
Fore
242 465 m 1
 280 533 l 1
 404 533 l 1
 369 367 l 2
 359 321 311 283 263 283 c 2
 195 283 l 1
 177 196 l 2
 161 121 210 61 288 61 c 0
 366 61 441 121 456 196 c 2
 528 533 l 1
 599 533 l 1
 527 196 l 2
 503 84 389 -7 274 -7 c 0
 158 -7 83 84 106 196 c 2
 139 351 l 1
 278 351 l 2
 287 351 296 358 298 367 c 2
 319 465 l 1
 242 465 l 1
EndSplineSet
EndChar
StartChar: uni0E03
Encoding: 211 3587 227
Width: 549
VWidth: 1273
Flags: HW
HStem: -6 68<187 388> 283 68<195 293>
VStem: 106 492<196 534>
Fore
287 483 m 1
 343 534 l 1
 403 534 l 1
 368 368 l 2
 358 321 311 283 263 283 c 2
 195 283 l 1
 176 196 l 2
 160 122 210 62 287 62 c 0
 365 62 440 122 456 196 c 2
 528 534 l 1
 598 534 l 1
 526 196 l 2
 503 84 389 -6 273 -6 c 0
 157 -6 82 84 106 196 c 2
 139 351 l 1
 277 351 l 2
 287 351 296 359 298 368 c 2
 308 417 l 1
 248 362 l 1
 243 424 221 458 174 486 c 1
 221 546 l 1
 253 527 269 513 287 483 c 1
EndSplineSet
EndChar
StartChar: uni0E04
Encoding: 212 3588 228
Width: 547
VWidth: 1273
Flags: HW
HStem: 233 68<199 322> 472 68<274 476>
VStem: 64 492<0 337>
Fore
360 301 m 1
 322 233 l 1
 184 233 l 1
 135 0 l 1
 64 0 l 1
 136 337 l 2
 159 449 273 540 389 540 c 0
 505 540 580 449 556 337 c 2
 485 0 l 1
 414 0 l 1
 486 337 l 2
 502 412 452 472 375 472 c 0
 297 472 222 412 206 337 c 2
 198 301 l 1
 360 301 l 1
EndSplineSet
EndChar
StartChar: uni0E05
Encoding: 213 3589 229
Width: 549
VWidth: 1273
Flags: HW
HStem: 233 68<199 321>
VStem: 65 495<0 351>
Fore
359 301 m 1
 321 233 l 1
 185 233 l 1
 135 0 l 1
 65 0 l 1
 139 351 l 2
 155 425 201 487 268 524 c 2
 300 542 l 1
 314 514 l 2
 351 440 380 431 455 513 c 2
 479 540 l 1
 504 524 l 2
 560 488 573 419 560 351 c 2
 485 0 l 1
 415 0 l 1
 489 351 l 2
 498 390 492 423 475 446 c 1
 441 415 400 386 357 386 c 0
 314 386 285 415 265 446 c 1
 237 423 218 390 210 351 c 2
 199 301 l 1
 359 301 l 1
EndSplineSet
EndChar
StartChar: uni0E06
Encoding: 214 3590 230
Width: 547
VWidth: 1273
Flags: HW
HStem: -6 68<233 431> 283 68<195 293>
VStem: 64 534<0 534>
Fore
174 486 m 1
 221 546 l 1
 253 527 269 513 287 483 c 1
 343 534 l 1
 403 534 l 1
 368 368 l 2
 358 321 311 283 263 283 c 2
 195 283 l 1
 188 249 l 2
 171 170 255 62 327 62 c 0
 407 62 442 132 456 196 c 2
 528 534 l 1
 598 534 l 1
 526 196 l 2
 503 88 433 -6 312 -6 c 0
 245 -6 191 46 157 106 c 1
 135 0 l 1
 64 0 l 1
 139 351 l 1
 277 351 l 2
 287 351 296 359 298 368 c 2
 308 417 l 1
 248 362 l 1
 241 432 221 458 174 486 c 1
EndSplineSet
EndChar
StartChar: uni0E07
Encoding: 215 3591 231
Width: 547
VWidth: 1273
Flags: HW
HStem: -7 68<186 388> 465 68<372 474>
VStem: 106 449<196 331>
Fore
144 378 m 1
 220 401 l 1
 176 196 l 2
 160 121 210 61 287 61 c 0
 365 61 440 121 456 196 c 2
 484 331 l 2
 500 405 451 465 373 465 c 2
 358 465 l 1
 372 533 l 1
 388 533 l 2
 504 533 579 442 555 331 c 2
 526 196 l 2
 503 84 389 -7 273 -7 c 0
 157 -7 82 84 106 196 c 2
 144 378 l 1
EndSplineSet
EndChar
StartChar: uni0E08
Encoding: 216 3592 232
Width: 526
VWidth: 1273
Flags: HW
HStem: 233 68<319 442> 472 68<252 454>
VStem: 111 424<322 341 322 337>
Fore
281 233 m 1
 319 301 l 1
 457 301 l 1
 465 337 l 2
 480 412 431 472 353 472 c 0
 276 472 201 412 185 337 c 2
 182 322 l 1
 111 322 l 1
 114 337 l 2
 138 449 252 540 368 540 c 0
 484 540 559 449 535 337 c 2
 463 0 l 1
 393 0 l 1
 442 233 l 1
 281 233 l 1
EndSplineSet
EndChar
StartChar: uni0E09
Encoding: 217 3593 233
Width: 525
VWidth: 1273
Flags: HW
HStem: -4 68<173 307> 472 68<251 453>
VStem: 64 470<224 337>
Fore
64 224 m 1
 102 292 l 1
 202 292 l 1
 182 199 l 2
 160 91 188 64 240 64 c 0
 316 64 429 175 445 249 c 2
 464 337 l 2
 479 412 430 472 352 472 c 0
 275 472 200 412 184 337 c 9
 113 337 l 17
 137 449 251 540 367 540 c 0
 483 540 558 449 534 337 c 2
 462 0 l 1
 392 0 l 1
 413 98 l 1
 357 41 288 -4 226 -4 c 0
 100 -4 91 99 111 199 c 2
 117 224 l 1
 64 224 l 1
EndSplineSet
EndChar
StartChar: uni0E0A
Encoding: 218 3594 234
Width: 547
VWidth: 1273
Flags: HW
HStem: -7 68<186 388> 283 68<195 293> 367 68<383 450> 465 68<280 318>
VStem: 106 492<196 533>
Fore
242 465 m 1
 280 533 l 1
 403 533 l 1
 383 435 l 1
 450 435 l 2
 487 435 513 464 521 502 c 2
 528 533 l 1
 598 533 l 1
 591 502 l 2
 583 461 557 425 523 400 c 1
 547 375 557 338 548 298 c 2
 526 196 l 2
 503 84 389 -7 273 -7 c 0
 157 -7 82 84 106 196 c 2
 139 351 l 1
 277 351 l 2
 287 351 296 358 298 367 c 2
 318 465 l 1
 242 465 l 1
436 367 m 2
 368 367 l 1
 358 321 311 283 263 283 c 2
 195 283 l 1
 176 196 l 2
 160 121 210 61 287 61 c 0
 365 61 440 121 456 196 c 2
 478 298 l 2
 483 324 481 367 436 367 c 2
EndSplineSet
EndChar
StartChar: uni0E0B
Encoding: 219 3595 235
Width: 547
VWidth: 1273
Flags: HW
HStem: -7 68<186 388> 283 68<195 293> 367 68<383 494>
VStem: 106 492<196 533>
Fore
436 367 m 2
 368 367 l 1
 358 321 311 283 263 283 c 2
 195 283 l 1
 176 196 l 2
 160 121 210 61 287 61 c 0
 365 61 440 121 456 196 c 2
 478 298 l 2
 483 324 481 367 436 367 c 2
174 486 m 1
 221 546 l 1
 253 527 269 513 287 483 c 1
 343 534 l 1
 403 533 l 1
 383 435 l 1
 450 435 l 2
 487 435 513 464 521 502 c 2
 528 533 l 1
 598 533 l 1
 591 502 l 2
 583 461 557 425 523 400 c 1
 547 375 557 338 548 298 c 2
 526 196 l 2
 503 84 389 -7 273 -7 c 0
 157 -7 82 84 106 196 c 2
 139 351 l 1
 277 351 l 2
 287 351 296 358 298 367 c 2
 308 417 l 1
 248 362 l 1
 242 427 221 458 174 486 c 1
EndSplineSet
EndChar
StartChar: uni0E0C
Encoding: 220 3596 236
Width: 838
VWidth: 1273
Flags: HW
HStem: -8 68<543 700> 472 68<293 448>
Fore
520 248 m 2
 502 164 563 60 631 60 c 0
 684 60 725 89 748 195 c 2
 820 533 l 1
 890 533 l 1
 818 195 l 2
 787 50 710 -8 617 -8 c 0
 560 -8 514 31 485 86 c 1
 467 0 l 1
 396 0 l 1
 468 337 l 2
 486 423 427 472 357 472 c 0
 303 472 240 446 203 385 c 1
 270 342 l 1
 245 332 200 306 187 248 c 2
 149 68 l 1
 208 68 l 1
 170 0 l 1
 64 0 l 1
 117 248 l 2
 124 279 147 310 174 332 c 1
 122 362 l 1
 190 512 311 540 371 540 c 0
 487 540 562 449 538 337 c 2
 520 248 l 2
EndSplineSet
EndChar
StartChar: uni0E0D
Encoding: 221 3597 237
Width: 842
VWidth: 1269
Flags: HW
HStem: -145 67<495 648> -7 68<517 646> 472 68<293 448>
Fore
468 337 m 2
 486 423 427 472 357 472 c 0
 303 472 240 446 203 385 c 1
 270 342 l 1
 245 332 200 306 187 248 c 2
 149 68 l 1
 208 68 l 1
 170 0 l 1
 64 0 l 1
 117 248 l 2
 124 279 147 310 174 332 c 1
 122 362 l 1
 190 512 311 540 371 540 c 0
 487 540 562 449 538 337 c 2
 508 196 l 2
 492 119 536 61 601 61 c 0
 665 61 733 119 750 196 c 2
 821 533 l 1
 892 533 l 1
 791 58 l 2
 768 -51 666 -145 557 -145 c 0
 461 -145 429 -79 417 -57 c 1
 485 -23 l 1
 492 -36 513 -78 571 -78 c 0
 630 -78 701 -25 716 43 c 1
 680 11 632 -7 586 -7 c 0
 477 -7 414 86 437 195 c 2
 468 337 l 2
EndSplineSet
Substitution2: "Single Substitution lookup 8" uni0E0D.descless
EndChar
StartChar: uni0E0E
Encoding: 222 3598 238
Width: 530
VWidth: 1267
Flags: HW
HStem: -177 68<-9 143> 0 21G<12 135> 472 68<293 448.3>
AnchorPoint: "BelowBase" 426.614 -190 basechar 0
Fore
12 0 m 1
 50 68 l 1
 78 68 l 1
 117 248 l 2
 124 280 147 310 175 332 c 1
 122 362 l 1
 191 512 311 540 371 540 c 0
 487 540 562 449 539 337 c 2
 429 -177 l 1
 351 -177 l 1
 261 -111 l 1
 151 -177 l 1
 -48 -177 l 1
 -9 -109 l 1
 143 -109 l 1
 276 -29 l 1
 374 -102 l 1
 468 337 l 2
 486 423 427 472 356 472 c 0
 303 472 240 446 203 385 c 1
 270 342 l 1
 245 332 200 306 188 248 c 2
 135 0 l 1
 12 0 l 1
EndSplineSet
EndChar
StartChar: uni0E0F
Encoding: 223 3599 239
Width: 530
VWidth: 1267
Flags: HW
HStem: -178 68<-9 51> 0 21G<12 135> 472 68<293 448.3>
AnchorPoint: "BelowBase" 426.614 -190 basechar 0
Fore
12 0 m 1
 50 68 l 1
 78 68 l 1
 117 248 l 2
 123 279 147 310 175 332 c 1
 122 362 l 1
 191 511 311 540 371 540 c 0
 487 540 562 449 539 337 c 2
 429 -178 l 1
 346 -178 l 1
 298 -117 l 1
 205 -190 l 1
 137 -117 l 1
 69 -178 l 1
 -48 -178 l 1
 -9 -110 l 1
 51 -110 l 1
 149 -22 l 1
 221 -98 l 1
 318 -22 l 1
 376 -93 l 1
 468 337 l 2
 486 423 427 472 356 472 c 0
 303 472 240 445 203 384 c 1
 270 342 l 1
 245 332 200 306 188 248 c 2
 135 0 l 1
 12 0 l 1
EndSplineSet
EndChar
StartChar: uni0E10
Encoding: 224 3600 240
Width: 534
VWidth: 1267
Flags: HW
HStem: -203 68<-11 50> 233 68<327 450> 472 68<260 431>
VStem: -49 621<-203 484>
Fore
318 -47 m 1
 377 -119 l 1
 388 -65 l 1
 369 -25 l 1
 466 -25 l 1
 428 -203 l 1
 346 -203 l 1
 297 -143 l 1
 204 -215 l 1
 136 -143 l 1
 68 -203 l 1
 -49 -203 l 1
 -11 -135 l 1
 50 -135 l 1
 149 -47 l 1
 220 -123 l 1
 318 -47 l 1
289 233 m 1
 327 301 l 1
 465 301 l 1
 472 337 l 2
 488 412 439 472 361 472 c 0
 284 472 209 412 193 337 c 2
 190 322 l 1
 119 322 l 1
 122 337 l 2
 146 449 260 540 376 540 c 0
 418 540 455 527 484 506 c 1
 545 540 l 1
 573 484 l 1
 527 458 l 1
 546 425 553 382 543 337 c 2
 471 0 l 1
 401 0 l 1
 450 233 l 1
 289 233 l 1
EndSplineSet
Substitution2: "Single Substitution lookup 8" uni0E10.descless
EndChar
StartChar: uni0E11
Encoding: 225 3601 241
Width: 547
VWidth: 1273
Flags: HW
HStem: 473 68<434 538>
VStem: 64 494<0 345>
Fore
113 486 m 1
 159 546 l 1
 191 527 207 513 225 483 c 1
 281 534 l 1
 342 534 l 1
 324 452 l 1
 379 496 445 541 494 541 c 0
 609 541 579 444 558 345 c 2
 484 0 l 1
 414 0 l 1
 487 345 l 2
 505 431 524 473 479 473 c 0
 445 473 308 368 184 233 c 1
 134 0 l 1
 64 0 l 1
 117 249 l 2
 119 260 192 333 238 376 c 1
 246 418 l 1
 186 362 l 1
 181 423 160 458 113 486 c 1
EndSplineSet
EndChar
StartChar: uni0E12
Encoding: 226 3602 242
Width: 871
VWidth: 1273
Flags: HW
HStem: -6 68<156 323 575 732> 268 68<257 350> 386 68<366 409>
Fore
219 268 m 1
 257 336 l 1
 305 336 l 2
 402 336 431 251 413 167 c 0
 399 102 344 -6 219 -6 c 0
 104 -6 77 125 104 252 c 0
 126 356 194 469 297 533 c 2
 312 543 l 1
 319 529 l 2
 345 472 371 454 388 454 c 0
 404 454 435 472 486 528 c 2
 497 541 l 1
 508 532 l 2
 562 491 589 426 575 356 c 2
 552 249 l 2
 534 166 595 62 664 62 c 0
 716 62 757 91 780 196 c 2
 851 534 l 1
 922 534 l 1
 850 196 l 2
 819 51 742 -6 649 -6 c 0
 592 -6 546 32 517 87 c 1
 499 0 l 1
 428 0 l 1
 504 356 l 2
 511 391 507 421 490 444 c 1
 452 411 410 386 373 386 c 0
 332 386 301 412 280 444 c 1
 218 389 187 309 175 252 c 0
 153 147 174 62 234 62 c 0
 303 62 334 127 342 167 c 0
 354 222 337 268 291 268 c 2
 219 268 l 1
EndSplineSet
EndChar
StartChar: uni0E13
Encoding: 227 3603 243
Width: 839
VWidth: 1273
Flags: HW
HStem: -8 68<498 627> 472 68<293 448>
Fore
207 68 m 1
 169 0 l 1
 64 0 l 1
 117 248 l 2
 123 279 147 310 174 332 c 1
 121 362 l 1
 190 511 311 540 371 540 c 0
 487 540 562 449 538 337 c 2
 508 195 l 2
 485 89 514 60 565 60 c 0
 633 60 740 163 758 248 c 2
 819 533 l 1
 889 533 l 1
 776 0 l 1
 705 0 l 1
 724 86 l 1
 671 31 609 -8 552 -8 c 0
 459 -8 406 50 437 195 c 2
 467 337 l 2
 486 423 427 472 356 472 c 0
 303 472 240 445 202 384 c 1
 269 342 l 1
 244 332 199 306 187 248 c 2
 149 68 l 1
 207 68 l 1
EndSplineSet
EndChar
StartChar: uni0E14
Encoding: 228 3604 244
Width: 562
VWidth: 1273
Flags: HW
HStem: -6 68<156 308> 268 68<257 350> 472 68<240 487>
VStem: 104 466<252 337 252 337>
Fore
219 268 m 1
 257 336 l 1
 305 336 l 2
 401 336 431 250 413 167 c 0
 393 75 323 -6 219 -6 c 0
 117 -6 72 101 104 252 c 0
 132 385 237 540 401 540 c 0
 516 540 594 449 571 337 c 2
 499 0 l 1
 428 0 l 1
 500 337 l 2
 516 412 464 472 386 472 c 0
 274 472 198 359 175 252 c 0
 152 145 174 61 234 61 c 0
 291 61 330 108 342 167 c 0
 354 221 336 268 291 268 c 2
 219 268 l 1
EndSplineSet
EndChar
StartChar: uni0E15
Encoding: 229 3605 245
Width: 562
VWidth: 1273
Flags: HW
HStem: -6 68<156 323> 267 69<257 350> 384 68<365 408>
VStem: 104 470<252 353>
Fore
219 267 m 1
 257 336 l 1
 305 336 l 2
 402 336 431 251 413 167 c 0
 399 102 344 -6 219 -6 c 0
 104 -6 77 125 104 252 c 0
 126 356 194 466 296 530 c 2
 312 540 l 1
 318 526 l 2
 345 469 370 451 387 451 c 0
 404 451 434 470 485 525 c 2
 497 538 l 1
 508 529 l 2
 561 488 589 423 574 353 c 2
 499 0 l 1
 428 0 l 1
 503 353 l 2
 511 388 506 418 489 442 c 1
 452 408 409 384 373 384 c 0
 332 384 301 409 279 441 c 1
 218 386 187 309 175 252 c 0
 153 147 174 62 234 62 c 0
 303 62 334 127 342 167 c 0
 354 222 336 267 290 267 c 2
 219 267 l 1
EndSplineSet
EndChar
StartChar: uni0E16
Encoding: 230 3606 246
Width: 530
VWidth: 1273
Flags: HW
HStem: 472 68<293 448>
VStem: 64 474<0 337>
Fore
208 68 m 1
 170 0 l 1
 64 0 l 1
 117 248 l 2
 124 279 147 310 174 332 c 1
 122 362 l 1
 190 512 311 540 371 540 c 0
 487 540 562 449 538 337 c 2
 467 0 l 1
 396 0 l 1
 468 337 l 2
 486 423 427 472 357 472 c 0
 303 472 240 446 203 385 c 1
 270 342 l 1
 245 332 200 306 187 248 c 2
 149 68 l 1
 208 68 l 1
EndSplineSet
EndChar
StartChar: uni0E17
Encoding: 231 3607 247
Width: 549
VWidth: 1273
Flags: HW
HStem: 472 68<342 519>
VStem: 65 492<0 337>
Fore
65 0 m 1
 178 534 l 1
 249 534 l 1
 226 428 l 1
 285 488 362 540 429 540 c 0
 549 540 580 446 557 337 c 2
 485 0 l 1
 415 0 l 1
 486 337 l 2
 500 401 495 472 414 472 c 0
 343 472 212 364 196 284 c 2
 135 0 l 1
 65 0 l 1
EndSplineSet
EndChar
StartChar: uni0E18
Encoding: 232 3608 248
Width: 549
VWidth: 1273
Flags: HW
HStem: 0 68<150 289> 233 68<199 464> 472 68<274 476>
VStem: 65 492<0 337>
Fore
65 0 m 1
 108 203 l 1
 178 203 l 1
 150 68 l 1
 289 68 l 2
 367 68 442 128 458 203 c 2
 464 233 l 1
 114 233 l 1
 136 337 l 2
 160 449 274 540 390 540 c 0
 506 540 581 449 557 337 c 9
 486 337 l 17
 502 412 453 472 375 472 c 0
 298 472 223 412 207 337 c 2
 199 301 l 1
 549 301 l 1
 528 203 l 2
 505 91 391 0 275 0 c 2
 65 0 l 1
EndSplineSet
EndChar
StartChar: uni0E19
Encoding: 233 3609 249
Width: 549
VWidth: 1273
Flags: HW
HStem: -4 68<145 320>
VStem: 107 492<199 533>
Fore
178 533 m 1
 249 533 l 1
 177 199 l 2
 164 135 169 64 249 64 c 0
 326 64 452 175 468 249 c 2
 528 533 l 1
 599 533 l 1
 485 0 l 1
 415 0 l 1
 437 106 l 1
 378 47 301 -4 235 -4 c 0
 114 -4 84 90 107 199 c 2
 178 533 l 1
EndSplineSet
EndChar
StartChar: uni0E1A
Encoding: 234 3610 250
Width: 549
VWidth: 1273
Flags: HW
HStem: -7 68<187 389>
VStem: 106 492<196 533>
Fore
178 533 m 1
 250 533 l 1
 178 196 l 2
 162 121 210 61 288 61 c 0
 366 61 439 121 455 196 c 2
 527 533 l 1
 599 533 l 1
 527 196 l 2
 503 84 389 -7 274 -7 c 0
 158 -7 83 84 106 196 c 2
 178 533 l 1
EndSplineSet
EndChar
StartChar: uni0E1B
Encoding: 235 3611 251
Width: 549
VWidth: 1275
Flags: HW
HStem: -7 68<186.6 389.4>
AnchorPoint: "AboveBase" 497.732 568 basechar 0
Fore
178 533 m 1
 249 533 l 1
 178 196 l 2
 162 121 210 61 288 61 c 0
 366 61 439 121 455 196 c 2
 553 659 l 1
 625 659 l 1
 527 196 l 2
 503 84 390 -7 274 -7 c 0
 158 -7 83 84 107 196 c 2
 178 533 l 1
EndSplineSet
EndChar
StartChar: uni0E1C
Encoding: 236 3612 252
Width: 593
VWidth: 1273
Flags: HW
HStem: -7 68<166 245 345 475> 467 68<262 312>
VStem: 107 537<264 533>
Fore
376 533 m 1
 445 533 l 1
 365 158 l 2
 355 110 357 61 409 61 c 0
 460 61 483 110 493 158 c 2
 573 533 l 1
 644 533 l 1
 564 158 l 2
 540 46 468 -7 394 -7 c 0
 356 -7 325 16 307 51 c 1
 274 16 233 -7 196 -7 c 0
 108 -7 72 100 107 264 c 0
 141 426 223 535 311 535 c 2
 326 535 l 1
 312 467 l 1
 296 467 l 2
 262 467 205 395 177 264 c 0
 149 133 176 61 210 61 c 0
 265 61 288 123 296 158 c 2
 376 533 l 1
EndSplineSet
EndChar
StartChar: uni0E1D
Encoding: 237 3613 253
Width: 593
VWidth: 1275
Flags: HW
HStem: -7 68<165.8 245.4 345.6 475.3> 466 68<262 312>
AnchorPoint: "AboveBase" 541.732 568 basechar 0
Fore
375 533 m 1
 445 533 l 1
 366 158 l 2
 355 110 357 61 409 61 c 0
 460 61 483 110 494 158 c 2
 600 659 l 1
 670 659 l 1
 564 158 l 2
 540 45 469 -7 395 -7 c 0
 357 -7 325 15 307 50 c 1
 274 15 234 -7 196 -7 c 0
 108 -7 72 100 107 264 c 0
 142 426 223 534 311 534 c 2
 327 534 l 1
 312 466 l 1
 296 466 l 2
 262 466 205 395 177 264 c 0
 149 132 176 61 210 61 c 0
 265 61 288 122 296 158 c 2
 375 533 l 1
EndSplineSet
EndChar
StartChar: uni0E1E
Encoding: 238 3614 254
Width: 610
VWidth: 1273
Flags: HW
HStem: -7 68<145 252 356 493>
VStem: 98 563<158 533>
Fore
177 533 m 1
 248 533 l 1
 168 158 l 2
 158 109 161 61 214 61 c 0
 272 61 296 120 304 158 c 2
 384 533 l 1
 454 533 l 1
 375 158 l 2
 365 111 368 61 422 61 c 0
 476 61 500 111 511 158 c 2
 590 533 l 1
 661 533 l 1
 581 158 l 2
 557 45 484 -7 408 -7 c 0
 368 -7 336 16 317 52 c 1
 283 16 240 -7 201 -7 c 0
 125 -7 74 45 98 158 c 2
 177 533 l 1
EndSplineSet
EndChar
StartChar: uni0E1F
Encoding: 239 3615 255
Width: 610
VWidth: 1275
Flags: HW
HStem: -7 68<145.1 252.7 357.3 492.2>
AnchorPoint: "AboveBase" 558.732 568 basechar 0
Fore
177 533 m 1
 248 533 l 1
 169 158 l 2
 158 109 161 61 214 61 c 0
 272 61 296 120 304 158 c 2
 383 533 l 1
 454 533 l 1
 375 158 l 2
 365 111 368 61 422 61 c 0
 476 61 501 111 511 158 c 2
 617 659 l 1
 687 659 l 1
 581 158 l 2
 557 45 484 -7 408 -7 c 0
 369 -7 335 16 317 52 c 1
 282 16 241 -7 202 -7 c 0
 125 -7 74 45 98 158 c 2
 177 533 l 1
EndSplineSet
EndChar
StartChar: uni0E20
Encoding: 240 3616 256
Width: 529
VWidth: 1273
Flags: HW
HStem: 472 68<292 448>
VStem: 8 530<0 337>
Fore
8 0 m 1
 46 68 l 1
 78 68 l 1
 116 248 l 2
 123 279 147 310 173 332 c 1
 121 362 l 1
 190 512 310 540 370 540 c 0
 486 540 561 449 538 337 c 2
 466 0 l 1
 395 0 l 1
 467 337 l 2
 485 423 427 472 356 472 c 0
 302 472 239 446 202 385 c 1
 269 342 l 1
 244 332 199 306 187 248 c 2
 134 0 l 1
 8 0 l 1
EndSplineSet
EndChar
StartChar: uni0E21
Encoding: 241 3617 257
Width: 547
VWidth: 1273
Flags: HW
HStem: -7 68<233 431>
VStem: 64 534<0 533>
Fore
177 533 m 1
 248 533 l 1
 187 249 l 2
 171 170 255 61 327 61 c 0
 407 61 442 132 456 196 c 2
 528 533 l 1
 598 533 l 1
 526 196 l 2
 503 88 433 -7 312 -7 c 0
 245 -7 191 46 157 105 c 1
 134 0 l 1
 64 0 l 1
 177 533 l 1
EndSplineSet
EndChar
StartChar: uni0E22
Encoding: 242 3618 258
Width: 547
VWidth: 1273
Flags: HW
HStem: -7 68<185 390> 298 63<258 349> 465 68<306 389>
VStem: 97 502<183 533>
Fore
387 361 m 1
 349 298 l 1
 338 298 l 2
 258 298 183 252 169 183 c 0
 153 110 209 61 289 61 c 0
 366 61 439 110 455 183 c 2
 529 533 l 1
 598 533 l 1
 524 183 l 2
 500 70 387 -7 273 -7 c 0
 160 -7 72 66 97 183 c 0
 107 232 137 273 188 298 c 1
 128 298 l 1
 135 332 l 2
 159 444 272 533 388 533 c 2
 404 533 l 1
 389 465 l 1
 374 465 l 2
 306 465 241 422 215 361 c 1
 387 361 l 1
EndSplineSet
EndChar
StartChar: uni0E23
Encoding: 243 3619 259
Width: 547
VWidth: 1273
Flags: HW
HStem: 0 68<273 367> 233 68<198 464> 472 68<274 476>
VStem: 113 443<233 337>
Fore
273 68 m 1
 289 68 l 2
 367 68 441 128 457 203 c 2
 464 233 l 1
 113 233 l 1
 136 337 l 2
 159 449 273 540 389 540 c 0
 505 540 580 449 556 337 c 9
 486 337 l 17
 502 412 452 472 375 472 c 0
 297 472 222 412 206 337 c 2
 198 301 l 1
 549 301 l 1
 528 203 l 2
 504 91 390 0 274 0 c 2
 259 0 l 1
 273 68 l 1
EndSplineSet
EndChar
StartChar: uni0E24
Encoding: 244 3620 260
Width: 529
VWidth: 1267
Flags: HW
HStem: 472 68<293 448>
VStem: 64 474<0 337>
Fore
207 68 m 1
 169 0 l 1
 64 0 l 1
 117 248 l 2
 123 279 147 310 174 332 c 1
 122 362 l 1
 190 511 311 540 371 540 c 0
 487 540 562 449 538 337 c 2
 426 -192 l 1
 355 -192 l 1
 467 337 l 2
 486 423 427 472 356 472 c 0
 303 472 240 445 202 384 c 1
 269 342 l 1
 244 332 199 306 187 248 c 2
 149 68 l 1
 207 68 l 1
EndSplineSet
EndChar
StartChar: uni0E25
Encoding: 245 3621 261
Width: 547
VWidth: 1273
Flags: HW
HStem: 0 68<188 290> 233 68<184 464> 472 68<274 476>
VStem: 107 449<203 337>
Fore
305 68 m 1
 290 0 l 1
 274 0 l 2
 159 0 83 91 107 203 c 2
 128 301 l 1
 478 301 l 1
 486 337 l 2
 502 412 452 472 375 472 c 0
 297 472 222 412 206 337 c 9
 136 337 l 17
 159 449 273 540 389 540 c 0
 505 540 580 449 556 337 c 2
 485 0 l 1
 414 0 l 1
 464 233 l 1
 184 233 l 1
 178 203 l 2
 162 128 211 68 289 68 c 2
 305 68 l 1
EndSplineSet
EndChar
StartChar: uni0E26
Encoding: 246 3622 262
Width: 529
VWidth: 1267
Flags: HW
HStem: 472 68<292 448>
VStem: 8 530<0 337>
Fore
8 0 m 1
 46 68 l 1
 78 68 l 1
 116 248 l 2
 123 279 146 310 173 332 c 1
 121 362 l 1
 190 511 310 540 370 540 c 0
 486 540 561 449 538 337 c 2
 425 -192 l 1
 355 -192 l 1
 467 337 l 2
 485 423 427 472 356 472 c 0
 302 472 239 445 202 384 c 1
 269 342 l 1
 244 332 199 306 187 248 c 2
 134 0 l 1
 8 0 l 1
EndSplineSet
EndChar
StartChar: uni0E27
Encoding: 247 3623 263
Width: 559
VWidth: 1273
Flags: HW
HStem: -6 68<165 398> 472 68<295 485>
Fore
86 164 m 1
 158 191 l 1
 167 131 193 61 287 61 c 0
 372 61 472 148 497 268 c 0
 522 387 460 472 374 472 c 0
 313 472 249 433 194 344 c 1
 134 369 l 1
 207 489 301 540 389 540 c 0
 524 540 598 412 567 267 c 0
 536 121 408 -6 273 -6 c 0
 183 -6 103 40 86 164 c 1
EndSplineSet
EndChar
StartChar: uni0E28
Encoding: 248 3624 264
Width: 547
VWidth: 1273
Flags: HW
HStem: 233 68<199 322> 473 68<274 448>
VStem: 64 538<0 497>
Fore
360 301 m 1
 322 233 l 1
 184 233 l 1
 135 0 l 1
 64 0 l 1
 136 339 l 2
 160 450 274 541 389 541 c 0
 434 541 473 528 502 505 c 1
 563 545 l 1
 602 497 l 1
 542 457 l 1
 560 424 566 382 556 337 c 2
 485 0 l 1
 414 0 l 1
 486 337 l 2
 502 412 452 473 375 473 c 0
 298 473 222 412 206 337 c 2
 199 301 l 1
 360 301 l 1
EndSplineSet
EndChar
StartChar: uni0E29
Encoding: 249 3625 265
Width: 546
VWidth: 1273
Flags: HW
HStem: -7 68<185 387> 282 68<380 472 557 571>
VStem: 105 504<196 350>
Fore
313 367 m 1
 388 389 l 1
 380 350 l 1
 487 350 l 1
 526 533 l 1
 596 533 l 1
 557 350 l 1
 609 350 l 1
 571 282 l 1
 544 282 l 1
 526 196 l 2
 502 84 388 -7 272 -7 c 0
 157 -7 81 84 105 196 c 2
 177 533 l 1
 247 533 l 1
 176 196 l 2
 160 121 208 61 286 61 c 0
 363 61 438 121 454 196 c 2
 472 282 l 1
 294 282 l 1
 313 367 l 1
EndSplineSet
EndChar
StartChar: uni0E2A
Encoding: 250 3626 266
Width: 547
VWidth: 1273
Flags: HW
HStem: 0 68<188 290> 233 68<184 464> 472 69<273 448>
VStem: 107 495<203 497>
Fore
563 545 m 1
 602 497 l 1
 542 457 l 1
 560 423 566 382 556 337 c 2
 485 0 l 1
 414 0 l 1
 464 233 l 1
 184 233 l 1
 178 203 l 2
 162 128 211 68 289 68 c 2
 305 68 l 1
 290 0 l 1
 274 0 l 2
 159 0 83 91 107 203 c 2
 128 301 l 1
 478 301 l 1
 486 337 l 2
 502 412 452 472 375 472 c 0
 297 472 222 413 207 339 c 9
 136 339 l 17
 160 450 274 541 389 541 c 0
 434 541 473 528 502 505 c 1
 563 545 l 1
EndSplineSet
EndChar
StartChar: uni0E2B
Encoding: 251 3627 267
Width: 547
VWidth: 1273
Flags: HW
HStem: 0 541<485 524>
VStem: 64 529<0 485>
Fore
207 342 m 1
 299 440 444 524 524 541 c 1
 592 485 l 1
 561 487 483 464 461 446 c 1
 531 422 557 342 539 257 c 2
 485 0 l 1
 414 0 l 1
 469 257 l 2
 481 314 479 400 397 400 c 0
 340 400 190 256 173 181 c 2
 135 0 l 1
 64 0 l 1
 177 534 l 1
 248 534 l 1
 207 342 l 1
EndSplineSet
EndChar
StartChar: uni0E2C
Encoding: 252 3628 268
Width: 610
VWidth: 1275
Flags: HW
HStem: -7 68<144.5 255.3 354.7 492.2> 465 68<454 568.1>
AnchorPoint: "AboveBase" 558.732 568 basechar 0
Fore
177 533 m 1
 248 533 l 1
 169 158 l 2
 159 111 161 61 216 61 c 0
 273 61 296 120 304 158 c 2
 359 420 l 1
 430 420 l 1
 375 158 l 2
 365 111 368 61 422 61 c 0
 476 61 501 111 511 158 c 2
 562 399 l 2
 570 437 557 465 520 465 c 2
 440 465 l 1
 454 533 l 1
 534 533 l 2
 571 533 596 562 605 600 c 2
 609 621 l 1
 679 621 l 1
 675 600 l 2
 666 560 641 523 607 498 c 1
 631 473 640 436 631 396 c 2
 581 158 l 2
 557 45 484 -7 408 -7 c 0
 367 -7 333 9 315 41 c 1
 282 9 243 -7 202 -7 c 0
 125 -7 74 45 98 158 c 2
 177 533 l 1
EndSplineSet
EndChar
StartChar: uni0E2D
Encoding: 253 3629 269
Width: 607
VWidth: 1273
Flags: HW
HStem: -5 68<203 442> 233 68<173 350> 471 68<311 530>
VStem: 107 507<242 285 267 267>
Fore
391 301 m 1
 350 233 l 1
 173 233 l 1
 167 134 229 63 316 63 c 0
 413 63 517 151 541 267 c 0
 566 382 501 471 404 471 c 0
 333 471 250 437 195 326 c 1
 131 344 l 1
 208 499 331 539 419 539 c 0
 562 539 646 413 614 267 c 0
 583 120 446 -5 303 -5 c 0
 160 -5 76 120 107 267 c 2
 115 301 l 1
 391 301 l 1
EndSplineSet
EndChar
StartChar: uni0E2E
Encoding: 254 3630 270
Width: 607
VWidth: 1273
Flags: HW
HStem: -5 68<203 442> 233 67<173 350> 471 68<311 479>
VStem: 107 526<267 494>
Fore
390 299 m 1
 350 233 l 1
 173 233 l 1
 167 134 229 63 316 63 c 0
 413 63 517 152 541 267 c 0
 566 382 501 471 404 471 c 0
 333 471 250 437 195 326 c 1
 131 344 l 1
 208 499 331 539 419 539 c 0
 465 539 505 525 537 503 c 1
 591 540 l 1
 633 494 l 1
 581 458 l 1
 617 409 630 340 614 267 c 0
 583 120 446 -5 303 -5 c 0
 160 -5 76 120 107 267 c 2
 114 299 l 1
 390 299 l 1
EndSplineSet
EndChar
StartChar: uni0E2F
Encoding: 255 3631 271
Width: 511
VWidth: 1273
Flags: HW
HStem: 322 68<234 363> 472 68<247 304>
VStem: 141 422<424 534>
Fore
496 534 m 1
 563 534 l 1
 449 0 l 1
 379 0 l 1
 465 408 l 1
 414 367 339 322 258 322 c 0
 185 322 128 363 141 424 c 0
 154 486 230 540 303 540 c 2
 318 540 l 1
 304 472 l 1
 288 472 l 2
 247 472 214 443 210 424 c 0
 205 401 248 390 271 390 c 0
 357 390 467 476 496 534 c 1
EndSplineSet
EndChar
StartChar: uni0E30
Encoding: 256 3632 272
Width: 291
VWidth: 1333
Flags: HW
HStem: 37 72<159 245> 372 72<230 316>
VStem: 72 283<37 444>
Fore
355 444 m 1
 316 372 l 1
 143 372 l 1
 166 478 l 1
 243 502 l 1
 230 444 l 1
 355 444 l 1
284 109 m 1
 245 37 l 1
 72 37 l 1
 95 144 l 1
 172 168 l 1
 159 109 l 1
 284 109 l 1
EndSplineSet
EndChar
StartChar: uni0E31
Encoding: 257 3633 273
Width: 0
VWidth: 1333
Flags: HW
HStem: 587 72<-51 232>
VStem: -138 433<587 659>
AnchorPoint: "AboveMark" 59.417 750 basemark 0
AnchorPoint: "AboveBase" 56.7324 568 mark 0
Fore
295 659 m 1
 232 587 l 1
 -138 587 l 1
 -116 693 l 1
 -39 717 l 1
 -51 659 l 1
 295 659 l 1
EndSplineSet
EndChar
StartChar: uni0E32
Encoding: 258 3634 274
Width: 405
VWidth: 1333
Flags: HW
HStem: 472 68<221 376>
VStem: 137 276<337 408>
Fore
155 491 m 1
 189 513 236 540 286 540 c 0
 406 540 437 446 414 337 c 2
 342 0 l 1
 271 0 l 1
 343 337 l 2
 357 401 352 472 271 472 c 0
 223 472 167 429 137 408 c 1
 155 491 l 1
EndSplineSet
EndChar
StartChar: uni0E33
Encoding: 259 3635 275
Width: 405
VWidth: 1333
Flags: HW
HStem: 472 68<221 376> 560 49<26 68> 657 49<39 82>
VStem: -22 436<337 633>
Fore
155 491 m 1
 189 513 236 540 286 540 c 0
 406 540 437 446 414 337 c 2
 342 0 l 1
 271 0 l 1
 343 337 l 2
 357 401 352 472 271 472 c 0
 223 472 167 429 137 408 c 1
 155 491 l 1
129 633 m 0
 121 593 80 560 38 560 c 0
 -3 560 -31 593 -22 633 c 0
 -14 673 28 706 69 706 c 0
 111 706 138 673 129 633 c 0
29 633 m 0
 26 622 31 609 49 609 c 0
 60 609 75 616 78 633 c 0
 81 644 76 657 59 657 c 0
 47 657 32 650 29 633 c 0
EndSplineSet
MultipleSubs2: "Multiple Substitution lookup 7" uni0E4D uni0E32
Substitution2: "Single Substitution lookup 6" uni0E32
LCarets2: 1 0 
EndChar
StartChar: uni0E34
Encoding: 260 3636 276
Width: 0
VWidth: 1333
Flags: HW
HStem: 587 72<-298 61>
VStem: -361 437<587 659>
AnchorPoint: "AboveMark" 59.417 750 basemark 0
AnchorPoint: "AboveBase" 56.7324 568 mark 0
Fore
-361 587 m 1
 -298 659 l 1
 76 659 l 1
 61 587 l 1
 -361 587 l 1
EndSplineSet
LCarets2: 1 0 
EndChar
StartChar: uni0E35
Encoding: 261 3637 277
Width: 0
VWidth: 1333
Flags: HW
HStem: 587 72<-298 4>
VStem: -361 448<587 711>
AnchorPoint: "AboveMark" 59.417 750 basemark 0
AnchorPoint: "AboveBase" 56.7324 568 mark 0
Fore
4 659 m 1
 15 711 l 1
 87 711 l 1
 61 587 l 1
 -361 587 l 1
 -298 659 l 1
 4 659 l 1
EndSplineSet
LCarets2: 1 0 
EndChar
StartChar: uni0E36
Encoding: 262 3638 278
Width: 0
VWidth: 1333
Flags: HW
HStem: 587 72<-297 -37> 587 46<12.6 58.1> 696 45<25.6 71.1>
VStem: -360 478<587 664>
AnchorPoint: "AboveMark" 59.417 750 basemark 0
AnchorPoint: "AboveBase" 56.7324 568 mark 0
Fore
10 665 m 0x70
 7 647 18 633 36 633 c 0
 53 633 70 647 73 665 c 0
 77 682 66 696 49 696 c 0
 31 696 14 682 10 665 c 0x70
118 664 m 0
 109 622 67 587 25 587 c 2
 -360 587 l 1x70
 -297 659 l 1
 -37 659 l 1xb0
 -37 660 -36 662 -36 664 c 0
 -27 706 16 741 58 741 c 0
 100 741 127 706 118 664 c 0
EndSplineSet
EndChar
StartChar: uni0E37
Encoding: 263 3639 279
Width: 0
VWidth: 1333
Flags: HW
HStem: 587 124<-85 -24 15 61> 587 72<-298 -96 -24 4>
VStem: -361 448<587 711>
AnchorPoint: "AboveMark" 9.41699 750 basemark 0
AnchorPoint: "AboveBase" 56.7324 568 mark 0
Fore
4 659 m 1x60
 15 711 l 1
 87 711 l 1
 61 587 l 1xa0
 -361 587 l 1
 -298 659 l 1
 -96 659 l 1x60
 -85 711 l 1
 -13 711 l 1xa0
 -24 659 l 1
 4 659 l 1x60
EndSplineSet
EndChar
StartChar: uni0E38
Encoding: 264 3640 280
Width: 0
VWidth: 1333
Flags: HW
VStem: -214 141<-112 -40>
AnchorPoint: "BelowBase" -70.377 -30 mark 0
Fore
-214 -112 m 1
 -175 -40 l 1
 -73 -40 l 1
 -112 -228 l 1
 -184 -228 l 1
 -160 -112 l 1
 -214 -112 l 1
EndSplineSet
EndChar
StartChar: uni0E39
Encoding: 265 3641 281
Width: 0
VWidth: 1333
Flags: HW
HStem: -235 72<-255.1 -184.9>
VStem: -373 300<-112 -40>
AnchorPoint: "BelowBase" -70.377 -30 mark 0
Fore
-373 -112 m 1
 -334 -40 l 1
 -244 -40 l 1
 -259 -113 l 2
 -265 -140 -247 -163 -220 -163 c 0
 -193 -163 -166 -140 -160 -113 c 2
 -145 -40 l 1
 -73 -40 l 1
 -88 -113 l 2
 -102 -181 -168 -235 -235 -235 c 0
 -303 -235 -345 -181 -331 -113 c 2
 -331 -112 l 1
 -373 -112 l 1
EndSplineSet
EndChar
StartChar: uni0E3A
Encoding: 266 3642 282
Width: 0
VWidth: 1333
Flags: HW
VStem: -166 98<-99.2 -63.45 -81 -81>
AnchorPoint: "BelowBase" -70.377 -30 mark 0
Fore
-107 -32 m 0
 -80 -32 -62 -54 -68 -81 c 0
 -74 -109 -101 -131 -128 -131 c 0
 -155 -131 -172 -109 -166 -81 c 0
 -160 -54 -134 -32 -107 -32 c 0
EndSplineSet
EndChar
StartChar: uni0E3F
Encoding: 267 3647 283
Width: 579
VWidth: 1286
Flags: HW
HStem: 0 69<149 191 277 440> 335 69<220 262 348 388> 598 69<262 318 404 514>
VStem: 64 529<0 499>
Fore
446 667 m 2
 546 667 613 592 593 499 c 0
 583 449 549 405 505 375 c 1
 563 341 595 277 579 202 c 0
 554 88 432 0 310 0 c 2
 263 0 l 1
 250 -59 l 1
 178 -59 l 1
 191 0 l 1
 64 0 l 1
 206 667 l 1
 332 667 l 1
 345 725 l 1
 417 725 l 1
 404 667 l 1
 446 667 l 2
521 499 m 2
 522 500 l 2
 532 550 494 598 429 598 c 2
 390 598 l 1
 348 403 l 1
 388 403 l 2
 453 403 511 449 521 499 c 2
334 335 m 1
 277 69 l 1
 324 69 l 2
 413 69 493 132 508 202 c 0
 523 273 470 335 381 335 c 2
 334 335 l 1
276 403 m 1
 318 598 l 1
 262 598 l 1
 220 403 l 1
 276 403 l 1
262 335 m 1
 206 335 l 1
 149 69 l 1
 205 69 l 1
 262 335 l 1
EndSplineSet
EndChar
StartChar: uni0E40
Encoding: 268 3648 284
Width: 197
VWidth: 1273
Flags: HW
HStem: 0 534<135 177>
VStem: 64 184<0 534>
Fore
135 0 m 1
 64 0 l 1
 177 534 l 1
 248 534 l 1
 135 0 l 1
EndSplineSet
EndChar
StartChar: uni0E41
Encoding: 269 3649 285
Width: 315
VWidth: 1273
Flags: HW
HStem: 0 534<135 177>
VStem: 64 302<0 534>
Fore
135 0 m 1
 64 0 l 1
 177 534 l 1
 248 534 l 1
 135 0 l 1
252 0 m 1
 182 0 l 1
 295 534 l 1
 366 534 l 1
 252 0 l 1
EndSplineSet
EndChar
StartChar: uni0E42
Encoding: 270 3650 286
Width: 218
VWidth: 1279
Flags: HW
HStem: 706 68<151 239 263 443>
VStem: 85 395<0 774>
Fore
223 68 m 1
 185 0 l 1
 85 0 l 1
 207 572 l 2
 220 636 215 706 135 706 c 2
 113 706 l 1
 151 774 l 1
 481 774 l 1
 443 706 l 1
 263 706 l 1
 284 671 287 620 277 572 c 2
 170 68 l 1
 223 68 l 1
EndSplineSet
EndChar
StartChar: uni0E43
Encoding: 271 3651 287
Width: 234
VWidth: 1279
Flags: HW
HStem: 712 69<210 303>
VStem: 101 275<650 665 650 666>
Fore
234 68 m 1
 196 0 l 1
 101 0 l 1
 213 524 l 2
 233 621 299 637 305 665 c 0
 308 678 291 712 250 712 c 2
 249 712 l 2
 210 712 179 685 175 667 c 0
 175 666 175 666 175 666 c 2
 172 650 l 1
 101 650 l 1
 104 665 l 2
 104 665 104 666 104 667 c 0
 117 727 192 780 262 781 c 2
 263 781 l 2
 334 781 389 725 376 666 c 0
 362 597 299 598 284 525 c 2
 186 68 l 1
 234 68 l 1
EndSplineSet
EndChar
StartChar: uni0E44
Encoding: 272 3652 288
Width: 219
VWidth: 1281
Flags: HW
VStem: 86 311<0 775>
Fore
221 68 m 1
 183 0 l 1
 86 0 l 1
 210 585 l 2
 221 637 252 677 283 707 c 1
 250 707 l 1
 183 638 l 1
 114 713 l 1
 134 805 l 1
 198 738 l 1
 232 775 l 1
 396 775 l 1
 385 719 l 1
 342 690 295 654 280 584 c 2
 171 68 l 1
 221 68 l 1
EndSplineSet
EndChar
StartChar: uni0E45
Encoding: 273 3653 289
Width: 405
VWidth: 1267
Flags: HW
HStem: 466 68<220 375>
VStem: 136 276<332 402>
Fore
154 485 m 1
 188 508 235 534 284 534 c 0
 405 534 436 440 413 332 c 2
 300 -197 l 1
 230 -197 l 1
 342 332 l 2
 356 396 350 466 270 466 c 0
 222 466 166 423 136 402 c 1
 154 485 l 1
EndSplineSet
EndChar
StartChar: uni0E46
Encoding: 274 3654 290
Width: 534
VWidth: 1267
Flags: HW
HStem: 239 68<191 291> 385 70<322 396>
VStem: 131 416<354 382 357 379>
Fore
300 313 m 1
 303 248 l 1
 277 242 263 239 239 239 c 0
 149 239 116 307 131 379 c 0
 143 436 188 499 261 526 c 2
 289 537 l 1
 301 514 l 2
 310 494 331 455 359 455 c 0
 387 455 424 494 442 514 c 2
 467 544 l 1
 494 523 l 2
 539 486 562 425 547 357 c 2
 430 -197 l 1
 359 -197 l 1
 476 355 l 2
 483 388 476 419 460 442 c 1
 425 410 385 385 343 385 c 0
 298 385 268 412 246 447 c 1
 221 431 205 405 199 379 c 0
 191 342 205 307 252 307 c 0
 270 307 286 310 300 313 c 1
EndSplineSet
EndChar
StartChar: uni0E47
Encoding: 275 3655 291
Width: 0
VWidth: 1333
Flags: HW
HStem: 577 59<-23.3976 27.9135> 723 58<-218.5 112>
VStem: -296 444<684 781>
AnchorPoint: "AboveMark" -134.268 568 mark 0
AnchorPoint: "AboveBase" 56.7324 568 mark 0
Fore
54 646 m 1
 70 593 l 1
 40 584 14 577 -11 577 c 0
 -31 577 -50 581 -67 591 c 2
 -122 625 l 1
 -190 587 l 1
 -200 587 l 2
 -254 587 -309 622 -296 684 c 0
 -282 746 -213 781 -159 781 c 2
 148 781 l 1
 112 723 l 1
 -173 723 l 2
 -208 723 -230 703 -234 684 c 0
 -237 666 -226 648 -199 646 c 1
 -111 695 l 1
 -26 642 l 2
 -16 638 -7 636 3 636 c 0
 18 636 35 641 54 646 c 1
EndSplineSet
EndChar
StartChar: uni0E48
Encoding: 276 3656 292
Width: 0
VWidth: 1333
Flags: HW
VStem: 26 102<763 904>
AnchorPoint: "AboveMark" 59.417 750 mark 0
Fore
98 763 m 1
 26 763 l 1
 56 904 l 1
 128 904 l 1
 98 763 l 1
EndSplineSet
MultipleSubs2: "Multiple Substitution lookup 5" uni0E4D uni0E48
Substitution2: "Single Substitution lookup 4" uni0E48.low
EndChar
StartChar: uni0E49
Encoding: 277 3657 293
Width: 0
VWidth: 1333
Flags: HW
HStem: 763 72<33 170>
VStem: -100 309<831 835>
AnchorPoint: "AboveMark" 59.417 750 mark 0
Fore
-100 831 m 1
 -61 903 l 1
 -28 903 l 2
 27 903 39 862 33 835 c 1
 209 835 l 1
 170 763 l 1
 -54 763 l 1
 -40 827 l 2
 -39 831 -42 830 -44 831 c 2
 -100 831 l 1
EndSplineSet
MultipleSubs2: "Multiple Substitution lookup 5" uni0E4D uni0E49
Substitution2: "Single Substitution lookup 4" uni0E49.low
EndChar
StartChar: uni0E4A
Encoding: 278 3658 294
Width: 0
VWidth: 1333
Flags: HW
HStem: 763 72<-30.7 -10 224 322> 861 72<-26.5 55.4>
VStem: -101 462<835 847>
AnchorPoint: "AboveMark" 59.417 750 mark 0
Fore
361 835 m 1
 322 763 l 1
 137 763 l 1
 152 832 l 1
 50 767 l 1
 49 789 l 2
 46 825 44 862 6 861 c 0
 -19 861 -27 853 -28 847 c 0
 -29 842 -28 836 -19 836 c 2
 6 836 l 1
 -10 764 l 1
 -35 764 l 2
 -86 764 -110 805 -101 847 c 0
 -91 892 -47 933 19 933 c 0
 71 933 94 905 105 879 c 1
 172 921 l 1
 243 921 l 1
 224 835 l 1
 361 835 l 1
EndSplineSet
MultipleSubs2: "Multiple Substitution lookup 5" uni0E4D uni0E4A
Substitution2: "Single Substitution lookup 4" uni0E4A.low
EndChar
StartChar: uni0E4B
Encoding: 279 3659 295
Width: 0
VWidth: 1333
Flags: HW
HStem: 804 69<11 35 122 146>
VStem: -4 165<804 875>
AnchorPoint: "AboveMark" 59.417 750 mark 0
Fore
-4 804 m 1
 11 873 l 1
 50 873 l 1
 58 915 l 1
 130 915 l 1
 122 875 l 1
 161 875 l 1
 146 803 l 1
 107 803 l 1
 98 763 l 1
 26 763 l 1
 35 804 l 1
 -4 804 l 1
EndSplineSet
MultipleSubs2: "Multiple Substitution lookup 5" uni0E4D uni0E4B
Substitution2: "Single Substitution lookup 4" uni0E4B.low
EndChar
StartChar: uni0E4C
Encoding: 280 3660 296
Width: 0
VWidth: 1333
Flags: HW
HStem: 812 72<108 193>
VStem: 26 206<763 884>
AnchorPoint: "AboveMark" 59.417 750 mark 0
Fore
232 884 m 1
 193 812 l 1
 113 812 l 2
 108 811 109 812 108 808 c 2
 98 763 l 1
 26 763 l 1
 36 808 l 2
 41 835 67 884 128 884 c 2
 232 884 l 1
EndSplineSet
MultipleSubs2: "Multiple Substitution lookup 5" uni0E4D uni0E4C
Substitution2: "Single Substitution lookup 4" uni0E4C.low
EndChar
StartChar: uni0E4D
Encoding: 281 3661 297
Width: 0
VWidth: 1333
Flags: HW
HStem: 572 52<10.6 51.4851> 675 52<27.6245 67.4>
VStem: -38 155<630.8 667.633 649 649>
AnchorPoint: "AboveMark" 60.417 750 basemark 0
AnchorPoint: "AboveBase" 82.7324 568 mark 0
Fore
117 649 m 0
 108 607 66 572 23 572 c 0
 -19 572 -47 607 -38 649 c 0
 -29 692 14 727 56 727 c 0
 99 727 126 692 117 649 c 0
14 649 m 0
 11 637 16 624 34 624 c 0
 46 624 61 631 65 649 c 0
 68 661 62 675 44 675 c 0
 32 675 18 667 14 649 c 0
EndSplineSet
Substitution2: "Single Substitution lookup 3" uni0E4D.high
LCarets2: 1 0 
EndChar
StartChar: uni0E4E
Encoding: 282 3662 298
Width: 0
VWidth: 1333
Flags: HW
HStem: 940 65<-41.2 158.835>
VStem: -218 408<723 999>
AnchorPoint: "AboveBase" 56.7324 568 mark 0
Fore
78 849 m 1
 2 784 l 1
 -17 784 l 2
 -71 784 -143 771 -154 721 c 0
 -157 708 -103 677 -65 724 c 1
 -16 692 l 1
 -32 673 -60 636 -126 636 c 0
 -183 636 -230 668 -218 723 c 0
 -203 797 -135 826 -96 838 c 1
 -120 907 -27 1005 122 1005 c 0
 150 1005 170 1002 190 999 c 1
 167 934 l 1
 148 937 131 940 107 940 c 0
 -7 940 -86 863 12 849 c 2
 78 849 l 1
EndSplineSet
EndChar
StartChar: uni0E4F
Encoding: 283 3663 299
Width: 679
VWidth: 1333
Flags: HW
HStem: -21 73<195 505> 484 73<287 596>
VStem: 108 579<244 292 268 268>
Fore
686 268 m 0
 652 108 495 -21 335 -21 c 0
 176 -21 74 108 108 268 c 0
 142 428 299 557 458 557 c 0
 618 557 720 428 686 268 c 0
180 268 m 0
 154 149 231 52 350 52 c 0
 469 52 586 149 612 268 c 0
 637 387 561 484 442 484 c 0
 322 484 205 387 180 268 c 0
430 424 m 0
 516 424 571 354 553 268 c 0
 535 182 450 112 364 112 c 0
 278 112 223 182 241 268 c 0
 259 354 344 424 430 424 c 0
EndSplineSet
EndChar
StartChar: uni0E50
Encoding: 284 3664 300
Width: 586
VWidth: 1333
Flags: HW
HStem: -7 72<161 461> 407 72<234 534>
VStem: 73 549<212 260 236 236>
Fore
622 236 m 0
 593 97 444 -7 296 -7 c 0
 147 -7 43 97 73 236 c 0
 102 375 251 479 399 479 c 0
 548 479 652 375 622 236 c 0
145 236 m 0
 126 145 196 65 311 65 c 0
 427 65 531 145 550 236 c 0
 569 327 499 407 384 407 c 0
 268 407 164 327 145 236 c 0
EndSplineSet
EndChar
StartChar: uni0E51
Encoding: 285 3665 301
Width: 586
VWidth: 1333
Flags: HW
HStem: -56 71<280 404> 43 72<160 351> 407 72<234 532>
VStem: 73 548<212 256 232 236>
Fore
396 189 m 1
 444 146 l 1
 421 122 348 43 236 43 c 0
 130 43 48 120 73 236 c 0
 102 375 251 479 399 479 c 0
 546 479 652 376 621 232 c 0
 584 57 428 -56 280 -56 c 2
 264 -56 l 1
 280 15 l 1
 296 15 l 2
 404 15 521 98 549 232 c 0
 570 330 498 407 384 407 c 0
 268 407 164 327 145 236 c 0
 129 163 181 115 251 115 c 0
 328 115 378 171 396 189 c 1
EndSplineSet
EndChar
StartChar: uni0E52
Encoding: 286 3666 302
Width: 653
VWidth: 1333
Flags: HW
HStem: 0 72<201 506> 107 72<298 351> 407 71<346 444 535 641>
VStem: 119 567<215 303>
Fore
164 556 m 1
 206 622 l 1
 220 616 l 2
 275 591 254 509 248 484 c 2
 191 216 l 2
 174 134 220 72 286 72 c 2
 441 72 l 2
 506 72 578 134 595 216 c 2
 614 304 l 2
 623 348 627 407 581 407 c 0
 535 407 513 349 503 304 c 2
 487 227 l 1
 415 227 l 1
 431 303 l 2
 440 347 443 405 397 405 c 0
 358 405 321 355 307 292 c 0
 294 229 310 179 350 179 c 2
 366 179 l 1
 351 107 l 1
 335 107 l 2
 251 107 213 188 235 292 c 0
 258 398 330 477 412 477 c 0
 437 477 473 470 493 433 c 1
 515 454 549 477 596 477 c 0
 669 477 710 418 686 303 c 2
 667 215 l 2
 642 99 535 0 424 0 c 2
 269 0 l 2
 158 0 94 99 119 215 c 2
 176 483 l 2
 185 527 183 546 177 549 c 2
 164 556 l 1
EndSplineSet
EndChar
StartChar: uni0E53
Encoding: 287 3667 303
Width: 633
VWidth: 1333
Flags: HW
HStem: 0 72<159 229> 407 72<230 373 481 602>
VStem: 103 545<236 304 236 304>
Fore
353 304 m 2
 363 354 360 407 298 407 c 0
 246 407 194 330 174 236 c 0
 154 143 175 72 229 72 c 2
 245 72 l 1
 229 0 l 1
 213 0 l 2
 96 0 81 131 103 236 c 0
 125 339 197 479 315 479 c 0
 359 479 396 462 416 427 c 1
 451 462 495 479 539 479 c 0
 617 479 674 426 649 304 c 2
 584 0 l 1
 512 0 l 1
 577 304 l 2
 587 354 584 407 522 407 c 0
 461 407 435 354 425 304 c 2
 360 0 l 1
 288 0 l 1
 353 304 l 2
EndSplineSet
EndChar
StartChar: uni0E54
Encoding: 288 3668 304
Width: 641
VWidth: 1333
Flags: HW
HStem: -7 72<178 351> 12 71<434 545> 207 72<442 487> 397 71<518 660> 408 71<256 503>
Fore
640 49 m 1x60
 595 -16 l 1
 582 -9 l 2
 556 6 521 12 483 12 c 0x60
 411 12 371 -7 311 -7 c 0
 159 -7 72 112 100 243 c 0
 129 380 278 479 424 479 c 0xa8
 502 479 546 468 577 468 c 0
 641 468 685 501 704 588 c 2
 707 604 l 1
 778 604 l 1
 774 588 l 2
 743 439 643 397 560 397 c 0x30
 517 397 478 408 407 408 c 0
 291 408 189 333 171 244 c 0
 152 155 212 65 325 65 c 0xa8
 331 65 338 66 345 66 c 1
 326 95 319 128 326 161 c 0
 340 225 400 279 486 279 c 2
 502 279 l 1
 487 207 l 1
 471 207 l 2
 443 207 406 197 398 160 c 0
 393 136 403 101 448 80 c 1
 463 81 480 83 496 83 c 0
 564 83 605 67 627 56 c 2
 640 49 l 1x60
EndSplineSet
EndChar
StartChar: uni0E55
Encoding: 289 3669 305
Width: 641
VWidth: 1333
Flags: HW
HStem: -7 72<178 351> 12 71<434 545> 207 72<442 487> 397 71<522 660> 408 61<407 461> 529 64<430 473>
Fore
415 499 m 0x2c
 412 483 423 469 439 469 c 0
 456 469 472 483 475 499 c 0
 479 516 468 529 452 529 c 0
 435 529 419 516 415 499 c 0x2c
640 49 m 1
 595 -16 l 1
 582 -9 l 2
 556 6 521 12 483 12 c 0x64
 411 12 371 -7 311 -7 c 0
 159 -7 72 112 100 243 c 0
 124 356 228 441 344 469 c 1
 342 479 343 489 345 499 c 0
 355 549 408 593 465 593 c 0
 518 593 556 554 545 500 c 0
 543 490 539 480 534 471 c 1
 551 469 565 468 577 468 c 0
 641 468 685 501 704 588 c 2
 707 604 l 1
 778 604 l 1
 774 588 l 2
 743 439 643 397 560 397 c 0xb4
 521 397 476 408 407 408 c 0
 291 408 189 333 171 244 c 0
 152 155 212 65 325 65 c 0xac
 331 65 338 66 345 66 c 1
 326 95 319 128 326 161 c 0
 340 225 400 279 486 279 c 2
 502 279 l 1
 487 207 l 1
 471 207 l 2
 443 207 406 197 398 160 c 0
 393 136 403 101 448 80 c 1
 463 81 480 83 496 83 c 0x64
 564 83 605 67 627 56 c 2
 640 49 l 1
EndSplineSet
EndChar
StartChar: uni0E56
Encoding: 290 3670 306
Width: 586
VWidth: 1333
Flags: HW
HStem: -7 72<156 464> 209 69<200 266> 409 69<332 537>
VStem: 53 572<236 547>
Fore
53 547 m 1
 85 617 l 1
 176 594 211 506 219 439 c 1
 278 466 349 479 402 479 c 0
 550 479 654 375 625 236 c 0
 595 97 447 -7 299 -7 c 0
 153 -7 81 73 99 160 c 0
 113 225 177 279 265 279 c 2
 281 279 l 1
 266 209 l 1
 250 209 l 2
 200 209 176 183 171 160 c 0
 164 127 192 65 314 65 c 0
 429 65 534 145 553 236 c 0
 572 327 502 409 387 409 c 0
 249 409 163 339 134 308 c 1
 179 512 56 546 53 547 c 1
EndSplineSet
EndChar
StartChar: uni0E57
Encoding: 291 3671 307
Width: 681
VWidth: 1333
Flags: HW
HStem: 0 72<146 212 398 425> 407 73<217 330 435 536>
Fore
359 0 m 1
 398 72 l 1
 410 72 l 2
 452 72 498 154 516 240 c 0
 535 326 523 407 481 407 c 0
 434 407 412 357 405 324 c 2
 373 175 l 1
 301 175 l 1
 333 323 l 2
 340 360 337 407 282 407 c 0
 232 407 182 329 163 240 c 0
 144 150 161 72 211 72 c 2
 227 72 l 1
 212 0 l 1
 196 0 l 2
 102 0 62 103 91 241 c 0
 120 379 204 480 298 480 c 0
 322 480 367 475 392 433 c 1
 414 456 449 480 498 480 c 0
 584 480 620 381 590 241 c 0
 575 173 552 123 529 89 c 1
 578 111 610 158 627 241 c 2
 679 484 l 2
 685 511 699 591 766 616 c 2
 783 622 l 1
 795 555 l 1
 779 549 l 2
 770 545 760 526 751 484 c 2
 699 241 l 2
 658 48 540 1 425 0 c 2
 381 0 l 1
 359 0 l 1
EndSplineSet
EndChar
StartChar: uni0E58
Encoding: 292 3672 308
Width: 641
VWidth: 1333
Flags: HW
HStem: -7 72<426 566> 396 72<519 662> 407 72<258 505>
Fore
395 180 m 1xa0
 403 104 439 65 481 65 c 0
 546 65 572 96 582 143 c 2
 586 159 l 1
 659 159 l 1
 656 143 l 2
 635 44 559 -7 467 -7 c 0
 414 -7 370 24 345 73 c 1
 297 -8 l 1
 286 -8 l 2
 92 0 82 155 101 243 c 0
 130 380 279 479 426 479 c 0xa0
 503 479 547 468 578 468 c 0
 642 468 686 501 705 588 c 2
 708 604 l 1
 780 604 l 1
 777 588 l 2
 744 434 641 396 563 396 c 0xc0
 520 396 481 407 409 407 c 0
 293 407 192 332 173 243 c 0
 155 160 182 83 268 68 c 1
 335 180 l 1
 395 180 l 1xa0
EndSplineSet
EndChar
StartChar: uni0E59
Encoding: 293 3673 309
Width: 615
VWidth: 1333
Flags: HW
HStem: -5 72<166 333> 412 72<239 406 531 586>
VStem: 446 74<-2 266> 669 74<543 645>
Fore
520 8 m 1
 446 -2 l 1
 461 226 448 412 320 412 c 0
 257 412 171 347 149 244 c 0
 125 132 180 67 227 67 c 0
 308 67 323 115 334 164 c 1
 408 164 l 1
 388 71 340 -5 214 -5 c 0
 116 -5 48 109 77 244 c 0
 106 381 226 484 335 484 c 0
 390 484 432 465 463 425 c 1
 498 467 536 483 568 483 c 0
 592 483 612 474 626 461 c 1
 642 490 652 523 658 552 c 0
 665 583 668 611 669 628 c 1
 743 638 l 1
 740 606 735 577 730 552 c 0
 705 436 660 386 599 329 c 1
 602 379 579 411 554 411 c 0
 536 411 520 396 498 358 c 1
 519 296 533 202 520 8 c 1
EndSplineSet
EndChar
StartChar: uni0E5A
Encoding: 294 3674 310
Width: 631
VWidth: 1333
Flags: HW
HStem: 327 72<240 369> 484 72<203 325>
VStem: 143 542<435 549>
Fore
493 -16 m 1
 613 549 l 1
 685 549 l 1
 565 -16 l 1
 493 -16 l 1
310 484 m 1
 228 484 215 441 214 435 c 0
 208 410 252 399 275 399 c 0
 364 399 476 488 506 549 c 1
 574 549 l 1
 454 -16 l 1
 383 -16 l 1
 475 417 l 1
 422 373 344 327 261 327 c 0
 187 327 129 370 143 435 c 0
 149 462 187 556 325 556 c 1
 310 484 l 1
EndSplineSet
EndChar
StartChar: uni0E5B
Encoding: 295 3675 311
Width: 1199
VWidth: 1333
Flags: HW
HStem: -21 72<182 374> 156 61<273 326> 225 59<1123 1195> 247 72<1002 1087> 319 61<294 348> 485 72<242 387>
Fore
273 268 m 0xcc
 267 240 279 217 300 217 c 0
 320 217 342 240 348 268 c 0
 354 296 342 319 321 319 c 0
 300 319 279 296 273 268 c 0xcc
938 220 m 0
 917 220 911 236 908 243 c 1
 871 169 l 2
 845 124 807 135 803 167 c 2
 794 235 l 1
 747 135 l 2
 721 85 678 98 678 134 c 2
 672 243 l 1
 611 98 l 2
 583 43 544 62 541 97 c 2
 533 230 l 1
 477 87 387 -21 241 -21 c 0
 138 -21 42 78 81 263 c 0
 115 422 222 557 338 557 c 0
 436 557 482 468 456 344 c 0
 432 233 364 156 286 156 c 0
 227 156 201 211 213 268 c 0
 225 325 275 380 334 380 c 0
 354 380 371 373 383 362 c 1
 394 433 372 485 323 485 c 0
 261 485 178 394 150 263 c 0
 118 109 199 51 253 51 c 0
 346 51 447 111 511 408 c 2
 519 445 l 2
 524 473 548 484 562 484 c 0
 583 484 590 467 591 456 c 2
 603 261 l 1
 664 407 l 2
 674 430 692 439 706 439 c 0
 721 439 736 430 735 406 c 2
 743 287 l 1
 782 371 l 2
 813 424 847 403 850 373 c 2
 861 298 l 1
 880 337 l 2
 887 350 898 374 919 374 c 1
 926 372 935 375 947 347 c 2
 968 302 l 1
 1001 314 1029 319 1053 319 c 0xdc
 1107 319 1134 284 1172 284 c 0
 1197 284 1223 293 1236 293 c 1
 1268 285 1250 261 1243 255 c 0
 1223 237 1179 225 1160 225 c 0xec
 1109 225 1076 247 1038 247 c 0xdc
 989 247 955 220 938 220 c 0
EndSplineSet
EndChar
StartChar: Euro
Encoding: 313 8364 313
Width: 555
VWidth: 1333
Flags: HW
HStem: -6 69<242 404> 224 69<86 116 188 502> 377 69<118 135 235 534> 607 67<358 518>
VStem: 48 587<224 611>
Fore
635 611 m 1
 579 555 l 1
 569 565 l 2
 541 591 506 607 466 607 c 0
 383 607 291 543 235 445 c 1
 572 445 l 1
 534 377 l 1
 204 377 l 1
 200 363 196 349 193 335 c 0
 190 320 188 306 187 293 c 1
 540 293 l 1
 502 224 l 1
 188 224 l 1
 202 126 267 63 350 63 c 0
 391 63 432 76 470 102 c 2
 484 112 l 1
 518 58 l 1
 503 49 l 2
 446 11 389 -6 337 -6 c 0
 220 -6 128 82 116 224 c 1
 48 224 l 1
 86 293 l 1
 118 293 l 1
 119 306 122 320 125 335 c 0
 128 349 131 363 135 377 c 1
 80 377 l 1
 118 445 l 1
 163 445 l 1
 229 576 353 675 482 675 c 0
 544 675 591 651 625 620 c 2
 635 611 l 1
EndSplineSet
EndChar
StartChar: uni25CC
Encoding: 315 9676 314
Width: 621
VWidth: 1333
Flags: HW
HStem: 51 85<180 204 486 510> 197 85<189 213 613 637> 331 85<299 323 605 629>
VStem: 149 518<93 240>
Fore
516 136 m 0
 540 136 551 117 541 93 c 0
 531 70 503 51 480 51 c 0
 457 51 446 70 456 93 c 0
 466 117 493 136 516 136 c 0
210 136 m 0
 233 136 244 117 234 93 c 0
 224 70 197 51 174 51 c 0
 150 51 139 70 149 93 c 0
 159 117 187 136 210 136 c 0
635 416 m 0
 659 416 670 397 660 373 c 0
 650 350 622 331 599 331 c 0
 576 331 565 350 575 373 c 0
 585 397 612 416 635 416 c 0
341 69 m 0
 365 69 376 50 366 27 c 0
 356 3 328 -16 305 -16 c 0
 282 -16 271 3 281 27 c 0
 291 50 318 69 341 69 c 0
329 416 m 0
 352 416 363 397 353 373 c 0
 343 350 316 331 293 331 c 0
 269 331 258 350 268 373 c 0
 278 397 306 416 329 416 c 0
219 283 m 0
 242 283 253 263 243 240 c 0
 233 217 206 197 183 197 c 0
 159 197 148 217 158 240 c 0
 168 263 196 283 219 283 c 0
523 496 m 0
 546 496 557 477 547 453 c 0
 537 430 510 411 487 411 c 0
 463 411 452 430 462 453 c 0
 472 477 500 496 523 496 c 0
643 283 m 0
 666 283 677 263 667 240 c 0
 657 217 630 197 607 197 c 0
 583 197 572 217 582 240 c 0
 592 263 620 283 643 283 c 0
EndSplineSet
EndChar
StartChar: uni0E10.descless
Encoding: 316 63232 315
Width: 534
VWidth: 1333
Flags: HW
HStem: 233 68<327 450> 472 68<260 431>
VStem: 122 450<337 484>
Fore
473 337 m 2
 488 412 439 472 361 472 c 0
 284 472 209 412 193 337 c 9
 122 337 l 17
 146 449 260 540 376 540 c 0
 419 540 455 528 484 507 c 1
 545 541 l 1
 573 484 l 1
 527 459 l 1
 547 425 553 383 543 337 c 2
 471 0 l 1
 401 0 l 1
 450 233 l 1
 289 233 l 1
 327 301 l 1
 465 301 l 1
 473 337 l 2
EndSplineSet
EndChar
StartChar: uni0E34.left
Encoding: 317 63233 316
Width: 0
VWidth: 1333
Flags: HW
HStem: 587 72<-414 -47>
VStem: -477 445<587 659>
Fore
-32 659 m 1
 -47 587 l 1
 -477 587 l 1
 -414 659 l 1
 -32 659 l 1
EndSplineSet
EndChar
StartChar: uni0E35.left
Encoding: 318 63234 317
Width: 0
VWidth: 1333
Flags: HW
HStem: 587 72<-414 -104>
VStem: -477 456<587 711>
Fore
-104 659 m 5
 -93 711 l 5
 -21 711 l 5
 -47 587 l 5
 -477 587 l 5
 -414 659 l 5
 -104 659 l 5
EndSplineSet
EndChar
StartChar: uni0E36.left
Encoding: 319 63235 318
Width: 0
VWidth: 1333
Flags: HW
HStem: 587 72<-430 -170> 587 47<-121 -76> 696 45<-107 -62>
VStem: -493 478<587 664>
Fore
-123 665 m 4x70
 -126 647 -115 633 -98 633 c 4
 -81 633 -64 647 -60 665 c 4
 -56 682 -67 696 -85 696 c 4
 -102 696 -119 682 -123 665 c 4x70
-15 664 m 4
 -24 622 -66 587 -109 587 c 6
 -493 587 l 5x70
 -430 659 l 5
 -170 659 l 5xb0
 -170 660 -170 662 -170 664 c 4
 -161 706 -118 741 -76 741 c 4
 -33 741 -6 706 -15 664 c 4
EndSplineSet
EndChar
StartChar: uni0E37.left
Encoding: 320 63236 319
Width: 0
VWidth: 1333
Flags: HW
HStem: 587 72<-414 -191 -120 -104> 587 124<-180 -120 -93 -47>
VStem: -477 456<587 711>
Fore
-180 711 m 5x60
 -109 711 l 5x60
 -120 659 l 5
 -104 659 l 5xa0
 -93 711 l 5
 -21 711 l 5
 -47 587 l 5
 -477 587 l 5x60
 -414 659 l 5
 -191 659 l 5xa0
 -180 711 l 5x60
EndSplineSet
EndChar
StartChar: uni0E48.low_left
Encoding: 321 63237 320
Width: 0
VWidth: 1333
Flags: HW
VStem: -159 102<587 728>
Fore
-87 587 m 5
 -159 587 l 5
 -129 728 l 5
 -57 728 l 5
 -87 587 l 5
EndSplineSet
EndChar
StartChar: uni0E49.low_left
Encoding: 322 63238 321
Width: 0
VWidth: 1333
Flags: HW
HStem: 587 72<-218 -81>
VStem: -351 309<655 659>
Fore
-291 651 m 6
 -290 654 -290 655 -294 655 c 6
 -351 655 l 5
 -312 727 l 5
 -279 727 l 6
 -223 727 -214 687 -218 659 c 5
 -42 659 l 5
 -81 587 l 5
 -305 587 l 5
 -291 651 l 6
EndSplineSet
EndChar
StartChar: uni0E4A.low_left
Encoding: 323 63239 322
Width: 0
VWidth: 1333
Flags: HW
HStem: 587 72<-347 -326 -91 7>
VStem: -418 464<659 669>
Fore
-91 659 m 1
 46 659 l 1
 7 587 l 1
 -178 587 l 1
 -163 655 l 1
 -279 581 l 1
 -276 638 l 2
 -275 709 -342 682 -344 669 c 0
 -345 665 -344 659 -336 659 c 2
 -311 659 l 1
 -326 587 l 1
 -351 587 l 2
 -402 587 -427 628 -418 669 c 0
 -408 714 -363 756 -297 756 c 0
 -245 756 -222 728 -212 701 c 1
 -144 744 l 1
 -73 744 l 1
 -91 659 l 1
EndSplineSet
EndChar
StartChar: uni0E4B.low_left
Encoding: 324 63240 323
Width: 0
VWidth: 1333
Flags: HW
HStem: 628 69<-186 -163 -75 -52>
VStem: -201 164<628 699>
Fore
-201 628 m 1
 -186 697 l 1
 -148 697 l 1
 -139 739 l 1
 -67 739 l 1
 -75 699 l 1
 -37 699 l 1
 -52 627 l 1
 -91 627 l 1
 -99 587 l 1
 -171 587 l 1
 -163 628 l 1
 -201 628 l 1
EndSplineSet
EndChar
StartChar: uni0E4C.low_left
Encoding: 325 63241 324
Width: 0
VWidth: 1333
Flags: HW
HStem: 636 72<-135 -49>
VStem: -215 205<587 708>
Fore
-129 636 m 2
 -133 635 -133 637 -134 632 c 2
 -143 587 l 1
 -215 587 l 1
 -206 632 l 2
 -200 659 -174 708 -114 708 c 2
 -10 708 l 1
 -49 636 l 1
 -129 636 l 2
EndSplineSet
EndChar
StartChar: uni0E48.low
Encoding: 326 63242 325
Width: 0
VWidth: 1333
Flags: HW
VStem: -11 102<587 728>
AnchorPoint: "AboveBase" 56.7324 568 mark 0
Fore
61 587 m 1
 -11 587 l 1
 19 728 l 1
 91 728 l 1
 61 587 l 1
EndSplineSet
EndChar
StartChar: uni0E49.low
Encoding: 327 63243 326
Width: 0
VWidth: 1333
Flags: HW
HStem: 587 72<-20 143>
VStem: -154 336<655 659>
AnchorPoint: "AboveBase" 145.732 568 mark 0
Fore
-94 651 m 2
 -93 653 -92 655 -97 655 c 2
 -154 655 l 1
 -114 727 l 1
 -81 727 l 2
 -25 727 -17 688 -20 659 c 1
 182 659 l 1
 143 587 l 1
 -107 587 l 1
 -94 651 l 2
EndSplineSet
EndChar
StartChar: uni0E4A.low
Encoding: 328 63244 327
Width: 0
VWidth: 1333
Flags: HW
HStem: 588 72<-100.7 -79 155 253>
VStem: -170 462<659 671>
AnchorPoint: "AboveBase" 195.732 568 mark 0
Fore
83 656 m 1
 -31 582 l 1
 -29 640 l 2
 -28 710 -95 684 -97 671 c 0
 -98 666 -98 660 -89 660 c 2
 -64 660 l 1
 -79 588 l 1
 -104 588 l 2
 -155 588 -179 629 -170 671 c 0
 -161 716 -116 757 -50 757 c 0
 2 757 25 729 35 703 c 1
 102 745 l 1
 173 745 l 1
 155 659 l 1
 292 659 l 1
 253 587 l 1
 69 587 l 1
 83 656 l 1
EndSplineSet
EndChar
StartChar: uni0E4B.low
Encoding: 329 63245 328
Width: 0
VWidth: 1333
Flags: HW
HStem: 628 69<-27 -3 85 108>
VStem: -42 166<628 699>
AnchorPoint: "AboveBase" 86.7324 568 mark 0
Fore
-42 628 m 1
 -27 697 l 1
 12 697 l 1
 21 739 l 1
 93 739 l 1
 85 699 l 1
 124 699 l 1
 108 627 l 1
 69 627 l 1
 61 587 l 1
 -11 587 l 1
 -3 628 l 1
 -42 628 l 1
EndSplineSet
EndChar
StartChar: uni0E4C.low
Encoding: 330 63246 329
Width: 0
VWidth: 1333
Flags: HW
HStem: 636 72<-11.1116 75>
VStem: -91 205<587 708>
AnchorPoint: "AboveBase" 56.7324 568 mark 0
Fore
-5 636 m 2
 -9 635 -9 636 -10 632 c 2
 -19 587 l 1
 -91 587 l 1
 -82 632 l 2
 -75 662 -51 708 10 708 c 2
 114 708 l 1
 75 636 l 1
 -5 636 l 2
-8 635 m 1
 -8 635 l 1
EndSplineSet
EndChar
StartChar: uni0E0D.descless
Encoding: 331 63247 330
Width: 842
VWidth: 1333
Flags: HW
HStem: -7 68<516 684> 472 68<300 448>
Fore
122 362 m 1
 190 511 310 540 371 540 c 0
 487 540 562 449 539 337 c 2
 508 195 l 2
 492 117 536 61 600 61 c 0
 665 61 734 118 750 195 c 2
 822 534 l 1
 893 534 l 1
 821 195 l 2
 797 86 695 -7 586 -7 c 0
 476 -7 415 86 438 195 c 2
 468 336 l 2
 486 422 427 472 357 472 c 0
 313 472 244 452 203 384 c 1
 280 336 l 1
 251 324 l 2
 217 309 197 294 188 249 c 2
 149 68 l 1
 208 68 l 1
 170 0 l 1
 64 0 l 1
 117 248 l 2
 124 279 147 310 173 332 c 1
 122 362 l 1
EndSplineSet
EndChar
StartChar: uni0E31.left
Encoding: 332 63248 331
Width: 0
VWidth: 1333
Flags: HW
HStem: 587 72<-173 136>
VStem: -261 460<587 659>
Fore
-173 659 m 5
 199 659 l 5
 136 587 l 5
 -261 587 l 5
 -234 711 l 5
 -162 711 l 5
 -173 659 l 5
EndSplineSet
EndChar
StartChar: uni0E4D.left
Encoding: 333 63249 332
Width: 0
VWidth: 1333
Flags: HW
HStem: 585 52<-120 -77> 688 52<-105 -62>
VStem: -168 155<638 687 663 663>
Fore
-14 663 m 0
 -23 620 -65 585 -108 585 c 0
 -150 585 -177 620 -168 663 c 0
 -159 705 -117 740 -75 740 c 0
 -32 740 -5 705 -14 663 c 0
-116 663 m 0
 -119 651 -115 637 -97 637 c 0
 -85 637 -70 645 -66 663 c 0
 -63 675 -68 688 -86 688 c 0
 -98 688 -113 681 -116 663 c 0
EndSplineSet
EndChar
StartChar: uni0E47.left
Encoding: 334 63250 333
Width: 0
VWidth: 1333
Flags: HW
HStem: 577 72<-148 -82> 709 72<-352 -14>
VStem: -419 444<684 781>
Fore
-313 587 m 1
 -323 587 l 2
 -377 587 -432 622 -419 684 c 0
 -405 746 -336 781 -282 781 c 2
 26 781 l 1
 -14 709 l 1
 -299 709 l 2
 -356 707 -363 664 -319 659 c 1
 -232 708 l 1
 -146 656 l 2
 -136 651 -126 650 -115 650 c 0
 -104 650 -92 652 -80 655 c 2
 -65 660 l 1
 -53 593 l 1
 -70 588 l 2
 -90 581 -111 577 -131 577 c 0
 -152 577 -173 582 -190 591 c 2
 -245 625 l 1
 -313 587 l 1
EndSplineSet
EndChar
StartChar: uni0E48.left
Encoding: 335 63251 334
Width: 0
VWidth: 1333
Flags: HW
VStem: -82 102<763 904>
Fore
-10 763 m 5
 -82 763 l 5
 -52 904 l 5
 20 904 l 5
 -10 763 l 5
EndSplineSet
EndChar
StartChar: uni0E49.left
Encoding: 336 63252 335
Width: 0
VWidth: 1333
Flags: HW
HStem: 763 72<-80 56>
VStem: -214 309<831 835>
Fore
-154 827 m 6
 -153 829 -152 831 -157 831 c 6
 -214 831 l 5
 -174 903 l 5
 -141 903 l 6
 -86 903 -76 864 -80 835 c 5
 96 835 l 5
 56 763 l 5
 -167 763 l 5
 -154 827 l 6
EndSplineSet
EndChar
StartChar: uni0E4A.left
Encoding: 337 63253 336
Width: 0
VWidth: 1333
Flags: HW
HStem: 764 72<-128 -107 127 224>
VStem: -199 462<835 847>
Fore
56 832 m 5
 -60 758 l 5
 -57 816 l 6
 -56 886 -123 860 -125 847 c 4
 -126 842 -125 836 -117 836 c 6
 -92 836 l 5
 -107 764 l 5
 -132 764 l 6
 -183 764 -208 805 -199 847 c 4
 -189 892 -144 933 -78 933 c 4
 -26 933 -3 905 7 879 c 5
 75 921 l 5
 145 921 l 5
 127 835 l 5
 264 835 l 5
 224 763 l 5
 41 763 l 5
 56 832 l 5
EndSplineSet
EndChar
StartChar: uni0E4B.left
Encoding: 338 63254 337
Width: 0
VWidth: 1333
Flags: HW
HStem: 804 69<-97 -73 14 37>
VStem: -112 164<804 875>
Fore
-112 804 m 5
 -97 873 l 5
 -58 873 l 5
 -50 915 l 5
 22 915 l 5
 14 875 l 5
 53 875 l 5
 37 803 l 5
 -1 803 l 5
 -10 763 l 5
 -82 763 l 5
 -73 804 l 5
 -112 804 l 5
EndSplineSet
EndChar
StartChar: uni0E4C.left
Encoding: 339 63255 338
Width: 0
VWidth: 1333
Flags: HW
HStem: 812 72<-2 84>
VStem: -82 205<763 884>
Fore
5 812 m 6
 1 811 1 812 0 808 c 6
 -10 763 l 5
 -82 763 l 5
 -72 808 l 6
 -67 831 -41 884 20 884 c 6
 123 884 l 5
 84 812 l 5
 5 812 l 6
1 811 m 5
 1 811 l 5
EndSplineSet
EndChar
StartChar: uni0E38.low
Encoding: 340 63256 339
Width: 0
VWidth: 1333
Flags: HW
HStem: -227 27G<-222 -107>
VStem: -261 155<-272 -200>
Fore
-222 -200 m 1
 -107 -200 l 1
 -148 -395 l 1
 -220 -395 l 1
 -194 -272 l 1
 -261 -272 l 1
 -222 -200 l 1
EndSplineSet
EndChar
StartChar: uni0E39.low
Encoding: 341 63257 340
Width: 0
VWidth: 1333
Flags: HW
HStem: -395 72<-289 -219> -227 27G<-367 -277 -179 -107>
VStem: -407 300<-272 -200>
Fore
-367 -200 m 1
 -277 -200 l 1
 -293 -273 l 2
 -299 -300 -281 -323 -254 -323 c 0
 -227 -323 -200 -300 -194 -273 c 2
 -179 -200 l 1
 -107 -200 l 1
 -122 -273 l 2
 -136 -341 -202 -395 -269 -395 c 0
 -337 -395 -379 -341 -365 -273 c 2
 -364 -272 l 1
 -407 -272 l 1
 -367 -200 l 1
EndSplineSet
EndChar
StartChar: uni0E3A.low
Encoding: 342 63258 341
Width: 0
VWidth: 1333
Flags: HW
HStem: -301 99<-179 -129>
VStem: -203 99<-276 -228 -252 -252>
Fore
-143 -203 m 0
 -116 -203 -98 -225 -104 -252 c 0
 -110 -279 -137 -301 -164 -301 c 0
 -191 -301 -209 -279 -203 -252 c 0
 -197 -225 -170 -203 -143 -203 c 0
EndSplineSet
EndChar
StartChar: uniF780
Encoding: 343 63360 342
Width: 405
VWidth: 1333
Flags: HW
HStem: 472 68<221 376> 572 52<-123 -80> 675 52<-108 -65>
VStem: -171 585<337 649>
Fore
-17 649 m 0
 -26 607 -68 572 -110 572 c 0
 -153 572 -180 607 -171 649 c 0
 -162 692 -120 727 -78 727 c 0
 -35 727 -8 692 -17 649 c 0
-119 649 m 0
 -122 637 -117 624 -99 624 c 0
 -87 624 -72 631 -69 649 c 0
 -66 661 -71 675 -89 675 c 0
 -101 675 -116 667 -119 649 c 0
155 491 m 1
 189 513 236 540 286 540 c 0
 406 540 437 446 414 337 c 2
 342 0 l 1
 271 0 l 1
 343 337 l 2
 357 401 352 472 271 472 c 0
 223 472 167 429 137 408 c 1
 155 491 l 1
EndSplineSet
EndChar
StartChar: uniF781
Encoding: 344 63361 343
Width: 0
VWidth: 1333
Flags: HW
HStem: 636 63<-208 -151> 940 65<-53 102>
VStem: -282 409<723 999>
Fore
-63 784 m 1
 -81 784 l 2
 -135 784 -207 772 -217 722 c 0
 -219 713 -201 699 -178 699 c 0
 -162 699 -144 705 -129 724 c 1
 -80 692 l 1
 -96 673 -124 636 -190 636 c 0
 -247 636 -294 668 -282 723 c 0
 -267 797 -200 826 -160 838 c 1
 -164 850 -164 863 -161 879 c 0
 -145 955 -46 1005 58 1005 c 0
 86 1005 106 1002 127 999 c 1
 102 934 l 1
 84 937 67 940 42 940 c 0
 -31 940 -90 908 -96 881 c 0
 -99 867 -86 854 -52 849 c 2
 14 849 l 1
 -63 784 l 1
EndSplineSet
EndChar
StartChar: uniF782
Encoding: 345 63362 344
Width: 610
VWidth: 1275
Flags: HW
HStem: -7 68<145 254 354 493> 379 68<436 549>
VStem: 98 563<158 535>
Fore
177 533 m 1
 248 533 l 1
 168 158 l 2
 158 111 161 61 216 61 c 0
 273 61 296 120 304 158 c 2
 341 333 l 1
 412 333 l 1
 375 158 l 2
 365 111 368 61 422 61 c 0
 476 61 500 111 511 158 c 2
 543 312 l 2
 551 350 538 379 501 379 c 2
 421 379 l 1
 436 447 l 1
 516 447 l 2
 553 447 578 475 586 513 c 2
 591 535 l 1
 661 535 l 1
 657 513 l 2
 648 473 622 436 589 411 c 1
 612 386 622 350 613 309 c 2
 581 158 l 2
 557 45 484 -7 408 -7 c 0
 366 -7 333 9 314 41 c 1
 282 9 242 -7 201 -7 c 0
 125 -7 74 45 98 158 c 2
 177 533 l 1
EndSplineSet
EndChar
StartChar: uniF783
Encoding: 346 63363 345
Width: 874
VWidth: 1267
Flags: HW
HStem: 466 68<690 844> 472 68<293 448>
Fore
623 485 m 5x80
 657 508 704 534 754 534 c 4
 874 534 905 440 882 332 c 6
 771 -192 l 5
 700 -192 l 5
 811 332 l 6
 825 396 820 466 739 466 c 4
 691 466 635 423 606 402 c 5
 623 485 l 5x80
207 68 m 1
 169 0 l 1
 64 0 l 1
 117 248 l 2
 123 279 147 310 174 332 c 1
 122 362 l 1
 190 511 311 540 371 540 c 0
 487 540 562 449 538 337 c 2
 426 -192 l 1
 355 -192 l 1
 467 337 l 2
 486 423 427 472 356 472 c 0x40
 303 472 240 445 202 384 c 1
 269 342 l 1
 244 332 199 306 187 248 c 2
 149 68 l 1
 207 68 l 1
EndSplineSet
EndChar
StartChar: uniF784
Encoding: 347 63364 346
Width: 874
VWidth: 1267
Flags: HW
HStem: 466 68<690 844> 472 68<292 448>
Fore
623 485 m 1x80
 657 508 704 534 754 534 c 0
 874 534 905 440 882 332 c 2
 771 -192 l 1
 700 -192 l 1
 811 332 l 2
 825 396 820 466 739 466 c 0
 691 466 635 423 606 402 c 1
 623 485 l 1x80
12 0 m 1
 50 68 l 1
 78 68 l 1
 116 248 l 2
 123 279 146 310 173 332 c 1
 121 362 l 1
 190 511 310 540 370 540 c 0
 486 540 561 449 538 337 c 2
 425 -192 l 1
 355 -192 l 1
 467 337 l 2
 485 423 427 472 356 472 c 0x40
 302 472 239 445 202 384 c 1
 269 342 l 1
 244 332 199 306 187 248 c 2
 134 0 l 1
 12 0 l 1
EndSplineSet
EndChar
StartChar: uniFB00
Encoding: 348 64256 347
Width: 507
VWidth: 1333
Flags: HW
HStem: 0 28G<64 136 313 385> 385 68<120 146 233 395 479 570> 581 59<297 423> 608 59<566 637>
VStem: 64 586<0 667>
Fore
483 600 m 1xe8
 524 640 579 667 634 667 c 2
 650 667 l 1
 637 608 l 1
 621 608 l 2xd8
 566 608 497 538 481 464 c 2
 479 453 l 1
 604 453 l 1
 570 385 l 1
 467 385 l 1
 385 0 l 1
 313 0 l 1
 395 385 l 1
 218 385 l 1
 136 0 l 1
 64 0 l 1
 146 385 l 1
 106 385 l 1
 120 453 l 1
 161 453 l 1
 187 556 280 640 380 640 c 0
 423 640 460 627 483 600 c 1xe8
233 453 m 1
 408 453 l 1
 411 464 l 2
 417 495 432 531 449 557 c 1
 435 573 412 581 385 581 c 0xe8
 317 581 253 528 233 453 c 1
EndSplineSet
Ligature2: "'liga' Standard Ligatures in Latin lookup 0" f f
EndChar
StartChar: uniFB01
Encoding: 349 64257 348
Width: 429
VWidth: 1333
Flags: HW
HStem: 0 28G<64 136 313 384> 385 68<120 146 232 395> 615 59<300 434>
VStem: 64 457<0 555>
Fore
232 453 m 1
 480 453 l 1
 384 0 l 1
 313 0 l 1
 395 385 l 1
 218 385 l 1
 136 0 l 1
 64 0 l 1
 146 385 l 1
 106 385 l 1
 120 453 l 1
 160 453 l 1
 165 477 l 2
 188 585 284 673 387 673 c 0
 491 673 528 606 521 555 c 0
 513 502 438 483 424 529 c 0
 417 553 434 582 459 593 c 1
 445 607 418 615 392 615 c 0
 321 615 254 556 237 477 c 2
 232 453 l 1
EndSplineSet
Ligature2: "'liga' Standard Ligatures in Latin lookup 0" f i
EndChar
StartChar: uniFB02
Encoding: 350 64258 349
Width: 447
VWidth: 1333
Flags: HW
HStem: 0 28G<64 136 313 384> 385 68<120 146 232 325> 608 59<319 443>
VStem: 64 462<0 667>
Fore
384 0 m 1
 313 0 l 1
 443 608 l 1
 375 608 l 2
 319 608 252 544 236 471 c 2
 232 453 l 1
 364 453 l 1
 325 385 l 1
 218 385 l 1
 136 0 l 1
 64 0 l 1
 146 385 l 1
 106 385 l 1
 120 453 l 5
 160 453 l 1
 164 471 l 2
 187 577 284 667 386 667 c 2
 526 667 l 1
 384 0 l 1
EndSplineSet
Ligature2: "'liga' Standard Ligatures in Latin lookup 0" f l
EndChar
StartChar: uniFB03
Encoding: 351 64259 350
Width: 678
VWidth: 1333
Flags: HW
HStem: 0 28G<64 136 313 384 563 633> 385 68<120 146 233 395 480 645> 581 59<297 423> 608 59<562 679>
Fore
480 453 m 1xd0
 730 453 l 1
 633 0 l 1
 563 0 l 1
 645 385 l 1
 466 385 l 1
 384 0 l 1
 313 0 l 1
 395 385 l 1
 218 385 l 1
 136 0 l 1
 64 0 l 1
 146 385 l 1
 106 385 l 1
 120 453 l 1
 161 453 l 1
 187 556 280 640 380 640 c 0xe0
 438 640 469 618 485 600 c 1
 525 640 579 667 635 667 c 0
 739 667 771 600 763 548 c 0
 754 507 722 496 704 496 c 0
 677 496 661 518 666 544 c 0
 670 561 684 578 702 587 c 1
 687 601 666 608 640 608 c 0
 569 608 501 550 484 471 c 2
 480 453 l 1xd0
233 453 m 1
 410 453 l 1
 413 471 l 2
 420 501 432 531 449 557 c 1
 434 573 412 581 385 581 c 0
 317 581 253 528 233 453 c 1
EndSplineSet
Ligature2: "'liga' Standard Ligatures in Latin lookup 0" f f i
EndChar
StartChar: uniFB04
Encoding: 352 64260 351
Width: 681
VWidth: 1333
Flags: HW
HStem: 0 28G<64 136 313 385 563 633> 385 68<120 146 233 395 482 575> 581 59<297 423> 608 59<562 692>
Fore
613 453 m 1xd0
 575 385 l 1
 467 385 l 1
 385 0 l 1
 313 0 l 1
 395 385 l 1
 218 385 l 1
 136 0 l 1
 64 0 l 1
 146 385 l 1
 106 385 l 1
 120 453 l 1
 161 453 l 1
 187 556 280 640 380 640 c 0xe0
 438 640 469 618 485 600 c 1
 525 640 579 667 635 667 c 2
 775 667 l 1
 633 0 l 1
 563 0 l 1
 692 608 l 1
 640 608 l 2
 569 608 502 550 485 471 c 2
 482 453 l 1
 613 453 l 1xd0
233 453 m 1
 410 453 l 1
 413 471 l 2
 420 501 432 531 449 557 c 1
 434 573 412 581 385 581 c 0
 317 581 253 528 233 453 c 1
EndSplineSet
Ligature2: "'liga' Standard Ligatures in Latin lookup 0" f f l
EndChar
